<svg width="24" height="24" viewBox="0 0 24 24" fill="none" xmlns="http://www.w3.org/2000/svg">
<g id="vuesax/bold/tag-2">
<g id="tag-2">
<path id="Vector" d="M19.83 8.70001L15.3 4.17401C14.8306 3.70337 14.2676 3.33647 13.6475 3.09704C13.0274 2.8576 12.3639 2.75096 11.7 2.78401L6.70003 3.02401C5.73834 3.06619 4.82703 3.46581 4.14451 4.14463C3.462 4.82344 3.05743 5.73257 3.01003 6.69401L2.77003 11.694C2.73927 12.3577 2.84697 13.0205 3.08628 13.6403C3.32558 14.26 3.69125 14.8232 4.16003 15.294L8.69003 19.824C9.58604 20.7174 10.7997 21.2191 12.065 21.2191C13.3303 21.2191 14.544 20.7174 15.44 19.824L19.83 15.434C20.275 14.9934 20.6283 14.469 20.8694 13.8911C21.1104 13.3132 21.2346 12.6932 21.2346 12.067C21.2346 11.4408 21.1104 10.8208 20.8694 10.2429C20.6283 9.66498 20.275 9.14058 19.83 8.70001ZM9.50003 12.38C8.93042 12.38 8.3736 12.2111 7.89998 11.8946C7.42637 11.5782 7.05723 11.1284 6.83925 10.6021C6.62127 10.0759 6.56424 9.49682 6.67536 8.93815C6.78649 8.37949 7.06078 7.86632 7.46356 7.46354C7.86633 7.06077 8.3795 6.78648 8.93817 6.67535C9.49683 6.56423 10.0759 6.62126 10.6022 6.83924C11.1284 7.05722 11.5782 7.42636 11.8947 7.89997C12.2111 8.37358 12.38 8.9304 12.38 9.50001C12.3782 10.2633 12.0742 10.9947 11.5345 11.5344C10.9947 12.0741 10.2633 12.3782 9.50003 12.38ZM17.53 13.53L13.53 17.53C13.4605 17.5998 13.3779 17.6552 13.287 17.693C13.196 17.7307 13.0985 17.7502 13 17.7502C12.9015 17.7502 12.804 17.7307 12.7131 17.693C12.6221 17.6552 12.5395 17.5998 12.47 17.53C12.3305 17.3889 12.2523 17.1984 12.2523 17C12.2523 16.8016 12.3305 16.6112 12.47 16.47L16.47 12.47C16.6122 12.3375 16.8002 12.2654 16.9945 12.2688C17.1888 12.2723 17.3742 12.351 17.5116 12.4884C17.6491 12.6258 17.7278 12.8112 17.7312 13.0055C17.7346 13.1998 17.6625 13.3878 17.53 13.53Z" fill="white"/>
</g>
</g>
</svg>
