<svg width="16" height="16" viewBox="0 0 16 16" fill="none" xmlns="http://www.w3.org/2000/svg">
<g id="vuesax/outline/money-send">
<g id="money-send">
<path id="Vector" d="M8.69995 10.8335H7.44662C7.01199 10.8254 6.59824 10.6455 6.2959 10.3332C5.99355 10.0209 5.82722 9.60149 5.83329 9.16682C5.83416 9.03448 5.88712 8.90781 5.9807 8.81423C6.07428 8.72066 6.20095 8.6677 6.33329 8.66682C6.46562 8.6677 6.59229 8.72066 6.68587 8.81423C6.77945 8.90781 6.83241 9.03448 6.83329 9.16682C6.8266 9.33646 6.88738 9.50184 7.00232 9.62678C7.11726 9.75172 7.27701 9.82604 7.44662 9.83349H8.69995C8.83073 9.82626 8.95331 9.76745 9.04079 9.66997C9.12828 9.57249 9.17353 9.44429 9.16662 9.31349C9.16662 8.95349 9.06662 8.90016 8.83995 8.82016L6.83329 8.12016C6.52429 8.03534 6.2549 7.8447 6.07213 7.58152C5.88936 7.31833 5.80483 6.99931 5.83329 6.68016C5.82791 6.28459 5.97903 5.90292 6.25372 5.61824C6.52841 5.33355 6.90445 5.16891 7.29995 5.16016H8.55329C8.98792 5.16822 9.40166 5.3481 9.70401 5.66044C10.0064 5.97278 10.1727 6.39216 10.1666 6.82682C10.1666 6.95943 10.1139 7.08661 10.0202 7.18038C9.9264 7.27414 9.79923 7.32682 9.66662 7.32682C9.53401 7.32682 9.40683 7.27414 9.31307 7.18038C9.2193 7.08661 9.16662 6.95943 9.16662 6.82682C9.17331 6.65719 9.11253 6.49181 8.99759 6.36687C8.88264 6.24193 8.72289 6.16761 8.55329 6.16016H7.29995C7.16917 6.16739 7.0466 6.22619 6.95911 6.32368C6.87163 6.42116 6.82638 6.54936 6.83329 6.68016C6.83329 7.04016 6.93329 7.09349 7.15995 7.17349L9.16662 7.87349C9.47561 7.95831 9.74501 8.14894 9.92778 8.41213C10.1105 8.67532 10.1951 8.99433 10.1666 9.31349C10.173 9.70936 10.0223 10.0916 9.74737 10.3765C9.47245 10.6615 9.0958 10.8258 8.69995 10.8335Z" fill="#707070"/>
<path id="Vector_2" d="M8 11.5C7.86766 11.4991 7.74099 11.4462 7.64741 11.3526C7.55383 11.259 7.50087 11.1323 7.5 11V5C7.50087 4.86766 7.55383 4.74099 7.64741 4.64741C7.74099 4.55383 7.86766 4.50087 8 4.5C8.13234 4.50087 8.25901 4.55383 8.35259 4.64741C8.44617 4.74099 8.49913 4.86766 8.5 5V11C8.49913 11.1323 8.44617 11.259 8.35259 11.3526C8.25901 11.4462 8.13234 11.4991 8 11.5Z" fill="#707070"/>
<path id="Vector_3" d="M7.99992 15.1666C6.0992 15.1666 4.27633 14.4116 2.93232 13.0676C1.58831 11.7236 0.833252 9.9007 0.833252 7.99998C0.833252 6.09926 1.58831 4.27639 2.93232 2.93238C4.27633 1.58837 6.0992 0.833313 7.99992 0.833313C8.13226 0.834187 8.25893 0.887145 8.35251 0.980725C8.44609 1.0743 8.49904 1.20097 8.49992 1.33331C8.49904 1.46565 8.44609 1.59232 8.35251 1.6859C8.25893 1.77948 8.13226 1.83244 7.99992 1.83331C6.78027 1.83331 5.58801 2.19498 4.5739 2.87258C3.5598 3.55019 2.7694 4.51329 2.30266 5.6401C1.83592 6.76691 1.7138 8.00682 1.95174 9.20304C2.18968 10.3993 2.777 11.498 3.63943 12.3605C4.50185 13.2229 5.60065 13.8102 6.79686 14.0482C7.99308 14.2861 9.23299 14.164 10.3598 13.6972C11.4866 13.2305 12.4497 12.4401 13.1273 11.426C13.8049 10.4119 14.1666 9.21963 14.1666 7.99998C14.1666 7.86737 14.2193 7.74019 14.313 7.64643C14.4068 7.55266 14.534 7.49998 14.6666 7.49998C14.7992 7.49998 14.9264 7.55266 15.0201 7.64643C15.1139 7.74019 15.1666 7.86737 15.1666 7.99998C15.165 9.90021 14.4094 11.7222 13.0658 13.0658C11.7221 14.4095 9.90015 15.1651 7.99992 15.1666Z" fill="#707070"/>
<path id="Vector_4" d="M14.6667 4.49998C14.5343 4.49911 14.4077 4.44615 14.3141 4.35257C14.2205 4.25899 14.1675 4.13232 14.1667 3.99998V1.83331H12C11.8677 1.83244 11.741 1.77948 11.6474 1.6859C11.5538 1.59232 11.5009 1.46565 11.5 1.33331C11.5009 1.20097 11.5538 1.0743 11.6474 0.980725C11.741 0.887145 11.8677 0.834187 12 0.833313L14.6667 0.833313C14.799 0.834187 14.9257 0.887145 15.0193 0.980725C15.1128 1.0743 15.1658 1.20097 15.1667 1.33331V3.99998C15.1658 4.13232 15.1128 4.25899 15.0193 4.35257C14.9257 4.44615 14.799 4.49911 14.6667 4.49998Z" fill="#707070"/>
<path id="Vector_5" d="M11.3327 5.1687C11.267 5.16894 11.2019 5.15609 11.1413 5.13091C11.0806 5.10573 11.0256 5.06871 10.9794 5.02203C10.8864 4.92794 10.8342 4.80099 10.8342 4.6687C10.8342 4.53641 10.8864 4.40946 10.9794 4.31537L14.3127 0.982034C14.4075 0.893714 14.5328 0.845632 14.6624 0.847917C14.7919 0.850203 14.9155 0.902677 15.0071 0.994286C15.0987 1.08589 15.1512 1.20948 15.1535 1.33902C15.1558 1.46855 15.1077 1.59392 15.0194 1.6887L11.686 5.02203C11.6398 5.06871 11.5848 5.10573 11.5241 5.13091C11.4635 5.15609 11.3984 5.16894 11.3327 5.1687Z" fill="#707070"/>
</g>
</g>
</svg>
