<svg width="16" height="16" viewBox="0 0 16 16" fill="none" xmlns="http://www.w3.org/2000/svg">
<g id="vuesax/outline/money-recive">
<g id="money-recive">
<path id="Vector" d="M8.6999 10.8335H7.44656C7.01193 10.8254 6.59819 10.6455 6.29584 10.3332C5.99349 10.0209 5.82716 9.60149 5.83323 9.16682C5.8341 9.03448 5.88706 8.90781 5.98064 8.81423C6.07422 8.72066 6.20089 8.6677 6.33323 8.66682C6.46557 8.6677 6.59224 8.72066 6.68582 8.81423C6.7794 8.90781 6.83236 9.03448 6.83323 9.16682C6.82654 9.33646 6.88732 9.50184 7.00226 9.62678C7.11721 9.75172 7.27696 9.82604 7.44656 9.83349H8.6999C8.83068 9.82626 8.95325 9.76745 9.04074 9.66997C9.12822 9.57249 9.17347 9.44429 9.16656 9.31349C9.16656 8.95349 9.06656 8.90016 8.8399 8.82016L6.83323 8.12016C6.52362 8.0364 6.25352 7.84601 6.07057 7.58256C5.88762 7.31911 5.80357 6.99952 5.83323 6.68016C5.82786 6.28459 5.97897 5.90292 6.25366 5.61824C6.52836 5.33355 6.90439 5.16891 7.2999 5.16016H8.55323C8.98786 5.16822 9.40161 5.3481 9.70395 5.66044C10.0063 5.97278 10.1726 6.39216 10.1666 6.82682C10.1666 6.95943 10.1139 7.08661 10.0201 7.18038C9.92635 7.27414 9.79917 7.32682 9.66656 7.32682C9.53395 7.32682 9.40678 7.27414 9.31301 7.18038C9.21924 7.08661 9.16656 6.95943 9.16656 6.82682C9.17325 6.65719 9.11247 6.49181 8.99753 6.36687C8.88259 6.24193 8.72283 6.16761 8.55323 6.16016H7.2999C7.16911 6.16739 7.04654 6.22619 6.95906 6.32368C6.87157 6.42116 6.82632 6.54936 6.83323 6.68016C6.83323 7.04016 6.93323 7.09349 7.1599 7.17349L9.16656 7.87349C9.47618 7.95725 9.74627 8.14764 9.92922 8.41109C10.1122 8.67454 10.1962 8.99412 10.1666 9.31349C10.173 9.70936 10.0222 10.0916 9.74731 10.3765C9.47239 10.6615 9.09574 10.8258 8.6999 10.8335Z" fill="#707070"/>
<path id="Vector_2" d="M8 11.5C7.86766 11.4991 7.74099 11.4462 7.64741 11.3526C7.55383 11.259 7.50087 11.1323 7.5 11V5C7.50087 4.86766 7.55383 4.74099 7.64741 4.64741C7.74099 4.55383 7.86766 4.50087 8 4.5C8.13234 4.50087 8.25901 4.55383 8.35259 4.64741C8.44617 4.74099 8.49913 4.86766 8.5 5V11C8.49913 11.1323 8.44617 11.259 8.35259 11.3526C8.25901 11.4462 8.13234 11.4991 8 11.5Z" fill="#707070"/>
<path id="Vector_3" d="M7.99992 15.1666C6.0992 15.1666 4.27633 14.4116 2.93232 13.0676C1.58831 11.7236 0.833252 9.9007 0.833252 7.99998C0.833252 6.09926 1.58831 4.27639 2.93232 2.93238C4.27633 1.58837 6.0992 0.833313 7.99992 0.833313C8.13226 0.834187 8.25893 0.887145 8.35251 0.980725C8.44609 1.0743 8.49904 1.20097 8.49992 1.33331C8.49904 1.46565 8.44609 1.59232 8.35251 1.6859C8.25893 1.77948 8.13226 1.83244 7.99992 1.83331C6.78027 1.83331 5.58801 2.19498 4.5739 2.87258C3.5598 3.55019 2.7694 4.51329 2.30266 5.6401C1.83592 6.76691 1.7138 8.00682 1.95174 9.20304C2.18968 10.3993 2.777 11.498 3.63943 12.3605C4.50185 13.2229 5.60065 13.8102 6.79686 14.0482C7.99308 14.2861 9.23299 14.164 10.3598 13.6972C11.4866 13.2305 12.4497 12.4401 13.1273 11.426C13.8049 10.4119 14.1666 9.21963 14.1666 7.99998C14.1666 7.86737 14.2193 7.74019 14.313 7.64643C14.4068 7.55266 14.534 7.49998 14.6666 7.49998C14.7992 7.49998 14.9264 7.55266 15.0201 7.64643C15.1139 7.74019 15.1666 7.86737 15.1666 7.99998C15.165 9.90021 14.4094 11.7222 13.0658 13.0658C11.7221 14.4095 9.90015 15.1651 7.99992 15.1666Z" fill="#707070"/>
<path id="Vector_4" d="M13.9999 5.16667H11.3333C11.2009 5.16579 11.0742 5.11283 10.9807 5.01925C10.8871 4.92568 10.8341 4.79901 10.8333 4.66667V2C10.8341 1.86766 10.8871 1.74099 10.9807 1.64741C11.0742 1.55383 11.2009 1.50087 11.3333 1.5C11.4656 1.50087 11.5923 1.55383 11.6858 1.64741C11.7794 1.74099 11.8324 1.86766 11.8333 2V4.16667H13.9999C14.1325 4.16667 14.2597 4.21935 14.3535 4.31311C14.4472 4.40688 14.4999 4.53406 14.4999 4.66667C14.4999 4.79927 14.4472 4.92645 14.3535 5.02022C14.2597 5.11399 14.1325 5.16667 13.9999 5.16667Z" fill="#707070"/>
<path id="Vector_5" d="M11.3327 5.1687C11.267 5.16894 11.2019 5.15609 11.1413 5.13091C11.0806 5.10573 11.0256 5.06871 10.9794 5.02203C10.8864 4.92794 10.8342 4.80099 10.8342 4.6687C10.8342 4.53641 10.8864 4.40946 10.9794 4.31537L14.3127 0.982034C14.4075 0.893714 14.5328 0.845632 14.6624 0.847917C14.7919 0.850203 14.9155 0.902677 15.0071 0.994286C15.0987 1.08589 15.1512 1.20948 15.1535 1.33902C15.1558 1.46855 15.1077 1.59392 15.0194 1.6887L11.686 5.02203C11.6398 5.06871 11.5848 5.10573 11.5241 5.13091C11.4635 5.15609 11.3984 5.16894 11.3327 5.1687Z" fill="#707070"/>
</g>
</g>
</svg>
