<svg width="24" height="24" viewBox="0 0 24 24" fill="none" xmlns="http://www.w3.org/2000/svg">
<g id="vuesax/outline/money-add">
<g id="money-add">
<path id="Vector" d="M12 15.25C11.3572 15.25 10.7289 15.0594 10.1944 14.7023C9.65994 14.3452 9.24338 13.8376 8.99739 13.2437C8.75141 12.6499 8.68705 11.9964 8.81245 11.366C8.93785 10.7355 9.24738 10.1564 9.7019 9.7019C10.1564 9.24738 10.7355 8.93785 11.366 8.81245C11.9964 8.68705 12.6499 8.75141 13.2437 8.99739C13.8376 9.24338 14.3452 9.65994 14.7023 10.1944C15.0594 10.7289 15.25 11.3572 15.25 12C15.2484 12.8615 14.9055 13.6872 14.2963 14.2963C13.6872 14.9055 12.8615 15.2484 12 15.25ZM12 10.25C11.6539 10.25 11.3155 10.3526 11.0278 10.5449C10.74 10.7372 10.5157 11.0105 10.3832 11.3303C10.2508 11.6501 10.2161 12.0019 10.2836 12.3414C10.3512 12.6809 10.5178 12.9927 10.7626 13.2374C11.0073 13.4822 11.3191 13.6489 11.6586 13.7164C11.9981 13.7839 12.3499 13.7492 12.6697 13.6168C12.9895 13.4843 13.2628 13.26 13.4551 12.9722C13.6474 12.6845 13.75 12.3461 13.75 12C13.7479 11.5365 13.5628 11.0926 13.2351 10.7649C12.9074 10.4372 12.4635 10.2521 12 10.25Z" fill="#707070"/>
<path id="Vector_2" d="M18.5 15.25C18.3015 15.2487 18.1115 15.1693 17.9711 15.0289C17.8307 14.8885 17.7513 14.6985 17.75 14.5V9.5C17.7513 9.30149 17.8307 9.11149 17.9711 8.97112C18.1115 8.83075 18.3015 8.75131 18.5 8.75C18.6985 8.75131 18.8885 8.83075 19.0289 8.97112C19.1693 9.11149 19.2487 9.30149 19.25 9.5V14.5C19.2487 14.6985 19.1693 14.8885 19.0289 15.0289C18.8885 15.1693 18.6985 15.2487 18.5 15.25Z" fill="#707070"/>
<path id="Vector_3" d="M5.00002 22.75C4.18105 22.7502 3.37612 22.5373 2.6643 22.1323C1.95248 21.7273 1.35826 21.1441 0.940019 20.44C0.486559 19.7071 0.247524 18.8618 0.250019 18C0.250019 16.7402 0.750464 15.532 1.64126 14.6412C2.53206 13.7504 3.74024 13.25 5.00002 13.25C6.2598 13.25 7.46798 13.7504 8.35878 14.6412C9.24957 15.532 9.75002 16.7402 9.75002 18C9.7512 18.8648 9.51233 19.7129 9.06002 20.45C8.63957 21.1514 8.0446 21.7319 7.33308 22.135C6.62157 22.5381 5.81777 22.7499 5.00002 22.75ZM5.00002 14.75C4.13855 14.7516 3.31282 15.0945 2.70367 15.7037C2.09452 16.3128 1.75161 17.1385 1.75002 18C1.7483 18.5895 1.91106 19.1679 2.22002 19.67C2.507 20.1508 2.91367 20.5491 3.40037 20.826C3.88708 21.1029 4.43723 21.249 4.99719 21.25C5.55715 21.251 6.10781 21.1069 6.59551 20.8317C7.08322 20.5566 7.49131 20.1598 7.78002 19.68C8.08925 19.1743 8.25197 18.5927 8.25002 18C8.24843 17.1385 7.90551 16.3128 7.29636 15.7037C6.68721 15.0945 5.86149 14.7516 5.00002 14.75Z" fill="#707070"/>
<path id="Vector_4" d="M6.50001 18.73H3.51001C3.3115 18.7287 3.1215 18.6493 2.98113 18.5089C2.84076 18.3685 2.76132 18.1785 2.76001 17.98C2.76132 17.7815 2.84076 17.5915 2.98113 17.4511C3.1215 17.3108 3.3115 17.2313 3.51001 17.23H6.50001C6.69852 17.2313 6.88852 17.3108 7.02889 17.4511C7.16926 17.5915 7.2487 17.7815 7.25001 17.98C7.2487 18.1785 7.16926 18.3685 7.02889 18.5089C6.88852 18.6493 6.69852 18.7287 6.50001 18.73Z" fill="#707070"/>
<path id="Vector_5" d="M5 20.26C4.80149 20.2587 4.61149 20.1792 4.47112 20.0389C4.33075 19.8985 4.25131 19.7085 4.25 19.51V16.52C4.25131 16.3215 4.33075 16.1315 4.47112 15.9911C4.61149 15.8507 4.80149 15.7713 5 15.77C5.19851 15.7713 5.38851 15.8507 5.52888 15.9911C5.66925 16.1315 5.74869 16.3215 5.75 16.52V19.51C5.75013 19.6085 5.73082 19.7061 5.69318 19.7972C5.65553 19.8882 5.60029 19.9709 5.53062 20.0406C5.46095 20.1103 5.37822 20.1655 5.28717 20.2032C5.19611 20.2408 5.09853 20.2601 5 20.26Z" fill="#707070"/>
<path id="Vector_6" d="M17 20.75H8.5C8.30109 20.75 8.11032 20.671 7.96967 20.5303C7.82902 20.3897 7.75 20.1989 7.75 20C7.75 19.8011 7.82902 19.6103 7.96967 19.4697C8.11032 19.329 8.30109 19.25 8.5 19.25H17C19.86 19.25 21.25 17.86 21.25 15V9C21.25 6.14 19.86 4.75 17 4.75H7C4.14 4.75 2.75 6.14 2.75 9V15.3C2.74869 15.4985 2.66925 15.6885 2.52888 15.8289C2.38851 15.9693 2.19851 16.0487 2 16.05C1.80149 16.0487 1.61149 15.9693 1.47112 15.8289C1.33075 15.6885 1.25131 15.4985 1.25 15.3V9C1.25 5.35 3.35 3.25 7 3.25H17C20.65 3.25 22.75 5.35 22.75 9V15C22.75 18.65 20.65 20.75 17 20.75Z" fill="#707070"/>
</g>
</g>
</svg>
