<svg width="15" height="15" viewBox="0 0 15 15" fill="none" xmlns="http://www.w3.org/2000/svg">
<g id="vuesax/outline/arrow-right">
<g id="arrow-right">
<path id="Vector" d="M2.08123 5.56875C2.08101 5.50718 2.09306 5.44617 2.11667 5.3893C2.14027 5.33243 2.17497 5.28082 2.21873 5.2375C2.30694 5.15033 2.42597 5.10144 2.54998 5.10144C2.674 5.10144 2.79302 5.15033 2.88124 5.2375L6.95623 9.3125C7.1005 9.45662 7.29607 9.53757 7.49998 9.53757C7.7039 9.53757 7.89947 9.45662 8.04373 9.3125L12.1181 5.23813C12.2072 5.15694 12.3241 5.11318 12.4446 5.11594C12.5651 5.11871 12.6799 5.16777 12.7652 5.25296C12.8504 5.33814 12.8996 5.4529 12.9025 5.57339C12.9054 5.69388 12.8617 5.81085 12.7806 5.9L8.70623 9.97688C8.54797 10.1355 8.35995 10.2613 8.15295 10.3471C7.94595 10.4329 7.72406 10.477 7.49998 10.4769C7.2757 10.4784 7.05338 10.435 6.84619 10.3491C6.639 10.2632 6.45114 10.1367 6.29373 9.97688L2.21873 5.90188C2.13235 5.81227 2.08321 5.6932 2.08123 5.56875Z" fill="#292929"/>
</g>
</g>
</svg>
