<svg width="24" height="24" viewBox="0 0 24 24" fill="none" xmlns="http://www.w3.org/2000/svg">
<path d="M12 22.75C9.87386 22.75 7.79545 22.1195 6.02762 20.9383C4.2598 19.7571 2.88194 18.0782 2.0683 16.1139C1.25466 14.1495 1.04177 11.9881 1.45656 9.90278C1.87135 7.81749 2.89519 5.90202 4.39861 4.39861C5.90202 2.89519 7.81749 1.87135 9.90278 1.45656C11.9881 1.04177 14.1495 1.25466 16.1139 2.0683C18.0782 2.88194 19.7571 4.2598 20.9383 6.02762C22.1195 7.79545 22.75 9.87386 22.75 12C22.7476 14.8504 21.6143 17.5833 19.5988 19.5988C17.5833 21.6143 14.8504 22.7476 12 22.75ZM12 2.75C10.1705 2.75 8.38213 3.29251 6.86098 4.30891C5.33983 5.32531 4.15423 6.76997 3.45412 8.46018C2.75401 10.1504 2.57083 12.0103 2.92774 13.8046C3.28465 15.5989 4.16563 17.2471 5.45927 18.5407C6.7529 19.8344 8.40109 20.7154 10.1954 21.0723C11.9897 21.4292 13.8496 21.246 15.5398 20.5459C17.23 19.8458 18.6747 18.6602 19.6911 17.139C20.7075 15.6179 21.25 13.8295 21.25 12C21.2471 9.54765 20.2716 7.19656 18.5375 5.46248C16.8034 3.7284 14.4524 2.75292 12 2.75Z" fill="#707070"/>
<path d="M14.5 12.75H8.5C8.30149 12.7487 8.11149 12.6693 7.97112 12.5289C7.83075 12.3885 7.75131 12.1985 7.75 12C7.75131 11.8015 7.83075 11.6115 7.97112 11.4711C8.11149 11.3307 8.30149 11.2513 8.5 11.25H14.5C14.6985 11.2513 14.8885 11.3307 15.0289 11.4711C15.1693 11.6115 15.2487 11.8015 15.25 12C15.2487 12.1985 15.1693 12.3885 15.0289 12.5289C14.8885 12.6693 14.6985 12.7487 14.5 12.75Z" fill="#707070"/>
<path d="M12.5 15.753C12.4015 15.7533 12.3039 15.7341 12.2129 15.6963C12.1219 15.6585 12.0393 15.603 11.97 15.533C11.8305 15.3919 11.7523 15.2014 11.7523 15.003C11.7523 14.8046 11.8305 14.6141 11.97 14.473L14.44 12.003L11.971 9.52999C11.8433 9.38711 11.7751 9.20075 11.7805 9.00917C11.7858 8.81759 11.8643 8.63534 11.9999 8.49982C12.1354 8.3643 12.3176 8.28581 12.5092 8.28045C12.7008 8.27508 12.8871 8.34326 13.03 8.47099L16.03 11.471C16.1695 11.6121 16.2477 11.8026 16.2477 12.001C16.2477 12.1994 16.1695 12.3899 16.03 12.531L13.03 15.531C12.9609 15.6014 12.8784 15.6573 12.7874 15.6954C12.6964 15.7335 12.5987 15.7531 12.5 15.753Z" fill="#707070"/>
</svg>
