<svg width="15" height="15" viewBox="0 0 15 15" fill="none" xmlns="http://www.w3.org/2000/svg">
<path d="M7.49939 4.4981C7.72345 4.49803 7.94533 4.54215 8.15232 4.62795C8.3593 4.71375 8.54733 4.83953 8.70564 4.9981L12.7806 9.07497C12.8617 9.16413 12.9054 9.2811 12.9025 9.40159C12.8996 9.52208 12.8505 9.63683 12.7652 9.72202C12.6799 9.8072 12.5651 9.85627 12.4446 9.85903C12.3241 9.86179 12.2072 9.81804 12.1181 9.73685L8.04189 5.66247C7.89763 5.51836 7.70205 5.43741 7.49814 5.43741C7.29423 5.43741 7.09865 5.51836 6.95439 5.66247L2.87939 9.73747C2.79053 9.82027 2.673 9.86535 2.55156 9.86321C2.43013 9.86106 2.31426 9.81187 2.22838 9.72599C2.14249 9.6401 2.0933 9.52424 2.09116 9.4028C2.08901 9.28136 2.13409 9.16383 2.21689 9.07497L6.29189 4.9981C6.45035 4.83938 6.63858 4.71351 6.84579 4.62771C7.053 4.54191 7.27512 4.49786 7.49939 4.4981Z" fill="#707070"/>
</svg>
