<svg width="25" height="26" viewBox="0 0 25 26" fill="none" xmlns="http://www.w3.org/2000/svg">
<path d="M10.61 19.1551H6.82001C6.6215 19.1538 6.43149 19.0731 6.29113 18.9306C6.15076 18.7881 6.07132 18.5952 6.07001 18.3936V13.1954C6.07263 12.6873 6.2726 12.2008 6.62648 11.8415C6.98035 11.4822 7.45956 11.2792 7.96001 11.2766H10.61C10.8085 11.2779 10.9985 11.3585 11.1389 11.501C11.2793 11.6436 11.3587 11.8365 11.36 12.038V18.3835C11.3605 18.5866 11.282 18.7816 11.1415 18.9261C11.0011 19.0707 10.81 19.153 10.61 19.1551ZM7.57001 17.6322H9.86001V12.8096H7.96001C7.85657 12.8096 7.75737 12.8513 7.68424 12.9256C7.6111 12.9998 7.57001 13.1006 7.57001 13.2056V17.6322Z" fill="#707070"/>
<path d="M14.39 19.1551H10.6C10.4015 19.1538 10.2115 19.0731 10.0711 18.9306C9.93072 18.7881 9.85129 18.5952 9.84998 18.3936V8.58605C9.8526 8.07796 10.0526 7.59143 10.4064 7.23215C10.7603 6.87287 11.2395 6.66984 11.74 6.66718L13.26 6.66718C13.7604 6.66984 14.2396 6.87287 14.5935 7.23215C14.9474 7.59143 15.1473 8.07796 15.15 8.58605V18.3936C15.1463 18.5962 15.0648 18.7892 14.9227 18.9315C14.7807 19.0738 14.5895 19.1541 14.39 19.1551ZM11.36 17.6322H13.65V8.58605C13.65 8.48104 13.6089 8.38032 13.5357 8.30607C13.4626 8.23181 13.3634 8.19009 13.26 8.19009H11.74C11.6365 8.19009 11.5373 8.23181 11.4642 8.30607C11.3911 8.38032 11.35 8.48104 11.35 8.58605V17.6322H11.36Z" fill="#707070"/>
<path d="M18.18 19.1551H14.39C14.1915 19.1537 14.0015 19.0731 13.8611 18.9306C13.7208 18.7881 13.6413 18.5951 13.64 18.3936V13.7741C13.6413 13.5726 13.7208 13.3796 13.8611 13.2371C14.0015 13.0946 14.1915 13.014 14.39 13.0126H17.04C17.5405 13.0153 18.0197 13.2183 18.3735 13.5776C18.7274 13.9369 18.9274 14.4234 18.93 14.9315V18.3936C18.9301 18.4936 18.9108 18.5927 18.8732 18.6852C18.8355 18.7776 18.7803 18.8616 18.7106 18.9323C18.641 19.0031 18.5582 19.0592 18.4672 19.0974C18.3761 19.1356 18.2785 19.1552 18.18 19.1551ZM15.14 17.6321H17.43V14.9315C17.43 14.8265 17.3889 14.7258 17.3158 14.6515C17.2426 14.5773 17.1434 14.5356 17.04 14.5356H15.14V17.6321Z" fill="#707070"/>
<path d="M15.5 23.8254H9.5C4.07 23.8254 1.75 21.4699 1.75 15.957V9.86529C1.75 4.35233 4.07 1.99689 9.5 1.99689H15.5C20.93 1.99689 23.25 4.35233 23.25 9.86529V15.957C23.25 21.4699 20.93 23.8254 15.5 23.8254ZM9.5 3.5198C4.89 3.5198 3.25 5.18486 3.25 9.86529V15.957C3.25 20.6374 4.89 22.3024 9.5 22.3024H15.5C20.11 22.3024 21.75 20.6374 21.75 15.957V9.86529C21.75 5.18486 20.11 3.5198 15.5 3.5198H9.5Z" fill="#707070"/>
</svg>
