<svg width="24" height="24" viewBox="0 0 24 24" fill="none" xmlns="http://www.w3.org/2000/svg">
<path d="M13 22.75H9C3.57 22.75 1.25 20.43 1.25 15V9C1.25 3.57 3.57 1.25 9 1.25H15C20.43 1.25 22.75 3.57 22.75 9V13C22.75 13.1989 22.671 13.3897 22.5303 13.5303C22.3897 13.671 22.1989 13.75 22 13.75C21.8011 13.75 21.6103 13.671 21.4697 13.5303C21.329 13.3897 21.25 13.1989 21.25 13V9C21.25 4.39 19.61 2.75 15 2.75H9C4.39 2.75 2.75 4.39 2.75 9V15C2.75 19.61 4.39 21.25 9 21.25H13C13.1989 21.25 13.3897 21.329 13.5303 21.4697C13.671 21.6103 13.75 21.8011 13.75 22C13.75 22.1989 13.671 22.3897 13.5303 22.5303C13.3897 22.671 13.1989 22.75 13 22.75Z" fill="#707070"/>
<path d="M13 22.75H9C3.57 22.75 1.25 20.43 1.25 15V9C1.25 3.57 3.57 1.25 9 1.25H15C20.43 1.25 22.75 3.57 22.75 9V13C22.75 13.1989 22.671 13.3897 22.5303 13.5303C22.3897 13.671 22.1989 13.75 22 13.75C21.8011 13.75 21.6103 13.671 21.4697 13.5303C21.329 13.3897 21.25 13.1989 21.25 13V9C21.25 4.39 19.61 2.75 15 2.75H9C4.39 2.75 2.75 4.39 2.75 9V15C2.75 19.61 4.39 21.25 9 21.25H13C13.1989 21.25 13.3897 21.329 13.5303 21.4697C13.671 21.6103 13.75 21.8011 13.75 22C13.75 22.1989 13.671 22.3897 13.5303 22.5303C13.3897 22.671 13.1989 22.75 13 22.75Z" fill="#707070"/>
<path d="M7 14.69C6.80149 14.6887 6.61149 14.6092 6.47112 14.4689C6.33075 14.3285 6.25131 14.1385 6.25 13.94V10.73C6.25131 10.5315 6.33075 10.3415 6.47112 10.2011C6.61149 10.0607 6.80149 9.98129 7 9.97998C7.19851 9.98129 7.38851 10.0607 7.52888 10.2011C7.66925 10.3415 7.74869 10.5315 7.75 10.73V13.94C7.75013 14.0385 7.73082 14.1361 7.69318 14.2271C7.65553 14.3182 7.60029 14.4009 7.53062 14.4706C7.46095 14.5403 7.37822 14.5955 7.28717 14.6332C7.19611 14.6708 7.09853 14.6901 7 14.69Z" fill="#707070"/>
<path d="M17 14.69C16.8015 14.6887 16.6115 14.6092 16.4711 14.4689C16.3307 14.3285 16.2513 14.1385 16.25 13.94V10.73C16.2513 10.5315 16.3307 10.3415 16.4711 10.2011C16.6115 10.0607 16.8015 9.98129 17 9.97998C17.1985 9.98129 17.3885 10.0607 17.5289 10.2011C17.6693 10.3415 17.7487 10.5315 17.75 10.73V13.94C17.7501 14.0385 17.7308 14.1361 17.6932 14.2271C17.6555 14.3182 17.6003 14.4009 17.5306 14.4706C17.461 14.5403 17.3782 14.5955 17.2872 14.6332C17.1961 14.6708 17.0985 14.6901 17 14.69Z" fill="#707070"/>
<path d="M13 22.75H9C3.57 22.75 1.25 20.43 1.25 15V9C1.25 3.57 3.57 1.25 9 1.25H15C20.43 1.25 22.75 3.57 22.75 9V13C22.75 13.1989 22.671 13.3897 22.5303 13.5303C22.3897 13.671 22.1989 13.75 22 13.75C21.8011 13.75 21.6103 13.671 21.4697 13.5303C21.329 13.3897 21.25 13.1989 21.25 13V9C21.25 4.39 19.61 2.75 15 2.75H9C4.39 2.75 2.75 4.39 2.75 9V15C2.75 19.61 4.39 21.25 9 21.25H13C13.1989 21.25 13.3897 21.329 13.5303 21.4697C13.671 21.6103 13.75 21.8011 13.75 22C13.75 22.1989 13.671 22.3897 13.5303 22.5303C13.3897 22.671 13.1989 22.75 13 22.75Z" fill="#707070"/>
<path d="M17.58 21.7469C17.4815 21.7469 17.384 21.7275 17.2931 21.6897C17.2022 21.652 17.1195 21.5966 17.05 21.5269L15.47 19.9599C15.3375 19.8178 15.2654 19.6297 15.2688 19.4354C15.2723 19.2411 15.351 19.0557 15.4884 18.9183C15.6258 18.7809 15.8112 18.7022 16.0055 18.6988C16.1998 18.6953 16.3878 18.7675 16.53 18.8999L17.54 19.8999L20.44 16.5099C20.504 16.4345 20.5823 16.3726 20.6704 16.3277C20.7585 16.2828 20.8547 16.2559 20.9533 16.2485C21.0519 16.241 21.151 16.2532 21.2448 16.2844C21.3387 16.3155 21.4254 16.365 21.5 16.4299C21.6502 16.5605 21.7428 16.7451 21.7578 16.9435C21.7727 17.1419 21.7089 17.3383 21.58 17.4899L18.16 21.4899C18.0925 21.5679 18.0098 21.6312 17.9169 21.6759C17.8241 21.7206 17.723 21.7458 17.62 21.7499L17.58 21.7469Z" fill="#707070"/>
<path d="M12 14.25C11.8015 14.2487 11.6115 14.1693 11.4711 14.0289C11.3307 13.8885 11.2513 13.6985 11.25 13.5V10.5C11.2513 10.3015 11.3307 10.1115 11.4711 9.97112C11.6115 9.83075 11.8015 9.75131 12 9.75C12.1985 9.75131 12.3885 9.83075 12.5289 9.97112C12.6693 10.1115 12.7487 10.3015 12.75 10.5V13.5C12.7487 13.6985 12.6693 13.8885 12.5289 14.0289C12.3885 14.1693 12.1985 14.2487 12 14.25Z" fill="#707070"/>
</svg>
