<svg width="25" height="25" viewBox="0 0 25 25" fill="none" xmlns="http://www.w3.org/2000/svg">
<g id="vuesax/outline/calendar">
<g id="calendar">
<path id="Vector" d="M8.5 6.24994C8.30149 6.24863 8.11149 6.16919 7.97112 6.02882C7.83075 5.88845 7.75131 5.69845 7.75 5.49994V2.49994C7.75131 2.30143 7.83075 2.11143 7.97112 1.97106C8.11149 1.83069 8.30149 1.75125 8.5 1.74994C8.69851 1.75125 8.88851 1.83069 9.02888 1.97106C9.16925 2.11143 9.24869 2.30143 9.25 2.49994V5.49994C9.24869 5.69845 9.16925 5.88845 9.02888 6.02882C8.88851 6.16919 8.69851 6.24863 8.5 6.24994Z" fill="#707070"/>
<path id="Vector_2" d="M16.5 6.24994C16.3015 6.24863 16.1115 6.16919 15.9711 6.02882C15.8307 5.88845 15.7513 5.69845 15.75 5.49994V2.49994C15.7513 2.30143 15.8307 2.11143 15.9711 1.97106C16.1115 1.83069 16.3015 1.75125 16.5 1.74994C16.6985 1.75125 16.8885 1.83069 17.0289 1.97106C17.1693 2.11143 17.2487 2.30143 17.25 2.49994V5.49994C17.2487 5.69845 17.1693 5.88845 17.0289 6.02882C16.8885 6.16919 16.6985 6.24863 16.5 6.24994Z" fill="#707070"/>
<path id="Vector_3" d="M9 15C8.86932 14.9984 8.74022 14.9712 8.62 14.92C8.4973 14.8705 8.38526 14.7978 8.29 14.706C8.10675 14.5163 8.003 14.2637 8 14C8.00158 13.8693 8.02876 13.7402 8.08 13.62C8.13073 13.4989 8.20175 13.3873 8.29 13.29C8.38561 13.1996 8.49762 13.1283 8.62 13.08C8.80258 13.0061 9.00263 12.9867 9.19603 13.0239C9.38943 13.0612 9.56793 13.1536 9.71 13.29C9.89257 13.4817 9.99612 13.7353 10 14C9.99781 14.067 9.99113 14.1339 9.98 14.2C9.96911 14.2627 9.94889 14.3233 9.92 14.38C9.89814 14.4437 9.86788 14.5043 9.83 14.56C9.79309 14.6124 9.75301 14.6625 9.71 14.71C9.51826 14.8926 9.26473 14.9961 9 15Z" fill="#707070"/>
<path id="Vector_4" d="M12.5 15.0011C12.3693 14.9995 12.2402 14.9723 12.12 14.9211C11.9976 14.8728 11.8856 14.8015 11.79 14.7111C11.6058 14.5204 11.502 14.2662 11.5 14.0011C11.5014 13.8701 11.5286 13.7406 11.58 13.6201C11.6307 13.4989 11.7017 13.3873 11.79 13.2901C11.8856 13.1997 11.9976 13.1284 12.12 13.0801C12.3021 13.0035 12.5028 12.9826 12.6968 13.02C12.8908 13.0573 13.0694 13.1513 13.21 13.2901C13.3928 13.4821 13.4964 13.736 13.5 14.0011C13.4978 14.0681 13.4911 14.1349 13.48 14.2011C13.4691 14.2637 13.4489 14.3244 13.42 14.3811C13.3981 14.4448 13.3679 14.5054 13.33 14.5611C13.2931 14.6135 13.253 14.6636 13.21 14.7111C13.0183 14.8936 12.7647 14.9972 12.5 15.0011Z" fill="#707070"/>
<path id="Vector_5" d="M16 15.0011C15.8693 14.9995 15.7402 14.9723 15.62 14.9211C15.4976 14.8728 15.3856 14.8015 15.29 14.7111L15.17 14.5611C15.1321 14.5054 15.1019 14.4448 15.08 14.3811C15.0511 14.3244 15.0309 14.2637 15.02 14.2011C15.0089 14.1349 15.0022 14.0681 15 14.0011C15.0036 13.736 15.1072 13.4821 15.29 13.2901C15.3856 13.1997 15.4976 13.1284 15.62 13.0801C15.8021 13.0035 16.0028 12.9826 16.1968 13.02C16.3908 13.0573 16.5694 13.1513 16.71 13.2901C16.8928 13.4821 16.9964 13.736 17 14.0011C16.9978 14.0681 16.9911 14.1349 16.98 14.2011C16.9691 14.2637 16.9489 14.3244 16.92 14.3811C16.8981 14.4448 16.8679 14.5054 16.83 14.5611C16.7931 14.6135 16.753 14.6636 16.71 14.7111C16.5183 14.8936 16.2647 14.9972 16 15.0011Z" fill="#707070"/>
<path id="Vector_6" d="M9 18.4999C8.86932 18.4984 8.74022 18.4712 8.62 18.4199C8.49907 18.3701 8.38749 18.3001 8.29 18.2129C8.10674 18.0204 8.00313 17.7657 8 17.4999C8.00158 17.3693 8.02876 17.2402 8.08 17.1199C8.12602 16.9967 8.19759 16.8846 8.29 16.7909C8.48339 16.6125 8.73687 16.5134 9 16.5134C9.26313 16.5134 9.51661 16.6125 9.71 16.7909C9.89233 16.9824 9.99587 17.2356 10 17.4999C9.99612 17.7647 9.89257 18.0182 9.71 18.2099C9.51826 18.3925 9.26473 18.4961 9 18.4999Z" fill="#707070"/>
<path id="Vector_7" d="M12.5 18.4999C12.2357 18.4969 11.9822 18.3944 11.79 18.2129C11.6067 18.0204 11.5031 17.7657 11.5 17.4999C11.5016 17.3693 11.5288 17.2402 11.58 17.1199C11.626 16.9967 11.6976 16.8846 11.79 16.7909C11.9834 16.6125 12.2369 16.5134 12.5 16.5134C12.7631 16.5134 13.0166 16.6125 13.21 16.7909C13.3025 16.8849 13.3741 16.9973 13.42 17.1209C13.4711 17.2409 13.4983 17.3696 13.5 17.4999C13.4961 17.7647 13.3926 18.0182 13.21 18.2099C13.0183 18.3925 12.7647 18.4961 12.5 18.4999Z" fill="#707070"/>
<path id="Vector_8" d="M16 18.4991C15.7353 18.4952 15.4817 18.3916 15.29 18.2091C15.1975 18.1151 15.1259 18.0027 15.08 17.8791C15.0288 17.7589 15.0016 17.6298 15 17.4991C15.0017 17.3687 15.0289 17.24 15.08 17.1201C15.1259 16.9965 15.1975 16.884 15.29 16.7901C15.4064 16.6748 15.5494 16.5899 15.7063 16.5428C15.8632 16.4957 16.0293 16.4879 16.19 16.5201C16.2562 16.5293 16.3205 16.5496 16.38 16.5801C16.4437 16.6019 16.5043 16.6322 16.56 16.6701C16.6124 16.707 16.6625 16.7471 16.71 16.7901C16.8923 16.9816 16.9959 17.2347 17 17.4991C16.9961 17.7638 16.8926 18.0173 16.71 18.2091C16.5183 18.3916 16.2647 18.4952 16 18.4991Z" fill="#707070"/>
<path id="Vector_9" d="M21 10.3399H4C3.80149 10.3386 3.61149 10.2592 3.47112 10.1188C3.33075 9.97842 3.25131 9.78841 3.25 9.5899C3.25131 9.3914 3.33075 9.20139 3.47112 9.06102C3.61149 8.92065 3.80149 8.84122 4 8.8399H21C21.1985 8.84122 21.3885 8.92065 21.5289 9.06102C21.6693 9.20139 21.7487 9.3914 21.75 9.5899C21.7487 9.78841 21.6693 9.97842 21.5289 10.1188C21.3885 10.2592 21.1985 10.3386 21 10.3399Z" fill="#707070"/>
<path id="Vector_10" d="M16.5 23.2499H8.5C4.85 23.2499 2.75 21.1499 2.75 17.4999V8.99994C2.75 5.34994 4.85 3.24994 8.5 3.24994H16.5C20.15 3.24994 22.25 5.34994 22.25 8.99994V17.4999C22.25 21.1499 20.15 23.2499 16.5 23.2499ZM8.5 4.74994C5.64 4.74994 4.25 6.13994 4.25 8.99994V17.4999C4.25 20.3599 5.64 21.7499 8.5 21.7499H16.5C19.36 21.7499 20.75 20.3599 20.75 17.4999V8.99994C20.75 6.13994 19.36 4.74994 16.5 4.74994H8.5Z" fill="#707070"/>
</g>
</g>
</svg>
