<svg width="25" height="25" viewBox="0 0 25 25" fill="none" xmlns="http://www.w3.org/2000/svg">
<path d="M12.29 12.6292C11.769 12.6355 11.2521 12.5354 10.77 12.3348L4.87002 9.67474C3.37002 8.99451 3.15002 8.07974 3.15002 7.58226C3.15002 7.08477 3.37002 6.17102 4.87002 5.49078L10.77 2.83076C11.7493 2.43483 12.8408 2.43483 13.82 2.83076L19.73 5.49078C21.22 6.16087 21.45 7.08477 21.45 7.58226C21.45 8.07974 21.23 8.99349 19.73 9.67373L13.82 12.3338C13.3359 12.5395 12.8147 12.6402 12.29 12.6292ZM12.29 4.06026C11.9789 4.05076 11.6693 4.10604 11.38 4.2227L5.48002 6.88273C4.87002 7.16701 4.65002 7.45129 4.65002 7.58327C4.65002 7.71526 4.87002 8.00969 5.47002 8.28381L11.37 10.9438C11.962 11.157 12.6081 11.157 13.2 10.9438L19.11 8.28381C19.72 8.00969 19.94 7.71526 19.94 7.58327C19.94 7.45129 19.72 7.15686 19.11 6.88273L13.21 4.2227C12.9162 4.10989 12.6042 4.05377 12.29 4.05721V4.06026Z" fill="#707070"/>
<path d="M12.5 17.9178C12.114 17.9172 11.7324 17.8342 11.38 17.6741L4.59 14.608C4.05755 14.3408 3.60575 13.933 3.282 13.4275C2.95825 12.9219 2.77449 12.3372 2.75 11.7347C2.75131 11.5332 2.83075 11.3403 2.97112 11.1978C3.11149 11.0552 3.30149 10.9746 3.5 10.9733C3.69851 10.9746 3.88851 11.0552 4.02888 11.1978C4.16925 11.3403 4.24869 11.5332 4.25 11.7347C4.27304 12.0442 4.37204 12.343 4.53798 12.6037C4.70392 12.8644 4.93152 13.0787 5.2 13.2272L11.99 16.2933C12.1511 16.3637 12.3246 16.3999 12.5 16.3999C12.6754 16.3999 12.8489 16.3637 13.01 16.2933L19.8 13.2272C20.0693 13.0797 20.2976 12.8656 20.4637 12.6047C20.6297 12.3438 20.7282 12.0446 20.75 11.7347C20.75 11.5328 20.829 11.3391 20.9697 11.1963C21.1103 11.0535 21.3011 10.9733 21.5 10.9733C21.6989 10.9733 21.8897 11.0535 22.0303 11.1963C22.171 11.3391 22.25 11.5328 22.25 11.7347C22.2243 12.3382 22.0402 12.9238 21.7167 13.4308C21.3932 13.9378 20.942 14.3477 20.41 14.6181L13.62 17.6843C13.2655 17.8364 12.8849 17.9158 12.5 17.9178Z" fill="#707070"/>
<path d="M12.5 22.9944C12.114 22.9938 11.7324 22.9108 11.38 22.7507L4.59 19.6846C4.04156 19.436 3.57585 19.0314 3.24928 18.5196C2.92271 18.0079 2.74928 17.411 2.75 16.8012C2.75131 16.5997 2.83075 16.4067 2.97112 16.2642C3.11149 16.1217 3.30149 16.0411 3.5 16.0397C3.6995 16.0434 3.88965 16.1262 4.02981 16.2704C4.16996 16.4146 4.24899 16.6088 4.25 16.8113C4.25009 17.1266 4.33977 17.435 4.50828 17.6998C4.67679 17.9645 4.91698 18.1742 5.2 18.3038L11.99 21.3699C12.1511 21.4403 12.3246 21.4766 12.5 21.4766C12.6754 21.4766 12.8489 21.4403 13.01 21.3699L19.8 18.3038C20.084 18.1756 20.3251 17.9662 20.4938 17.7012C20.6625 17.4361 20.7516 17.1269 20.75 16.8113C20.75 16.6094 20.829 16.4157 20.9697 16.2729C21.1103 16.1301 21.3011 16.0499 21.5 16.0499C21.6989 16.0499 21.8897 16.1301 22.0303 16.2729C22.171 16.4157 22.25 16.6094 22.25 16.8113C22.2507 17.4211 22.0773 18.018 21.7507 18.5298C21.4242 19.0415 20.9584 19.4462 20.41 19.6947L13.62 22.7609C13.2655 22.913 12.8849 22.9924 12.5 22.9944Z" fill="#707070"/>
</svg>
