<svg width="71" height="26" viewBox="0 0 71 26" fill="none" xmlns="http://www.w3.org/2000/svg">
<g id="Group 14">
<path id="Subtraction 11" d="M38.8614 24.3221C38.2965 24.324 37.7324 24.2782 37.1752 24.1854C36.6587 24.0986 36.1519 23.9613 35.6622 23.7755C35.198 23.5989 34.7553 23.3702 34.3425 23.094C33.9378 22.8212 33.5665 22.5018 33.2362 22.1425C32.8961 21.7705 32.5997 21.3607 32.353 20.9212C32.088 20.4466 31.8703 19.947 31.7031 19.4298C31.5184 18.8561 31.3846 18.2674 31.3033 17.6702C31.2119 16.9987 31.1674 16.3217 31.17 15.644C31.1675 14.9493 31.2165 14.2553 31.3166 13.5678C31.4077 12.9459 31.5549 12.3336 31.7565 11.7383C31.9412 11.1942 32.1766 10.6687 32.4597 10.1687C32.7239 9.70393 33.0378 9.26927 33.3959 8.87235C33.7425 8.49005 34.131 8.14796 34.554 7.85253C34.9813 7.55617 35.4401 7.30805 35.922 7.11271C36.4214 6.9106 36.9401 6.75988 37.47 6.66286C38.0301 6.56143 38.5983 6.51123 39.1675 6.51289C39.6323 6.51179 40.0963 6.55193 40.554 6.63285C40.9722 6.70636 41.3843 6.81107 41.7869 6.94611C42.1395 7.06399 42.4808 7.21334 42.8067 7.39236C43.035 7.50974 43.2478 7.65528 43.4399 7.82558C43.5347 7.91447 43.6176 8.0153 43.6865 8.12553C43.7367 8.22191 43.7726 8.32507 43.7932 8.43179C43.8227 8.57695 43.8427 8.72388 43.8532 8.87165C43.8665 9.04001 43.8732 9.2508 43.8732 9.49816C43.8732 9.76355 43.8645 9.99228 43.8465 10.178C43.8355 10.3325 43.8042 10.4849 43.7533 10.6312C43.7212 10.7273 43.6663 10.8142 43.5932 10.8844C43.5343 10.9363 43.4585 10.9648 43.38 10.9643C43.2472 10.9643 43.0768 10.8856 42.8734 10.7311C42.6192 10.5428 42.3543 10.3692 42.0802 10.2112C41.7118 10.0006 41.3235 9.82664 40.921 9.69189C40.4021 9.52618 39.8593 9.44736 39.3147 9.45861C38.6881 9.44286 38.0674 9.58253 37.508 9.86514C36.9486 10.1477 36.4679 10.5645 36.1088 11.0782C35.7085 11.6486 35.417 12.2881 35.249 12.9644C35.0446 13.7793 34.9461 14.6172 34.9557 15.4572C34.9557 16.4656 35.0607 17.3514 35.269 18.09C35.4772 18.8286 35.7774 19.4454 36.1621 19.9229C36.5335 20.3902 37.0143 20.7588 37.5621 20.996C38.147 21.2384 38.7753 21.3586 39.4084 21.3492C39.9542 21.3596 40.4983 21.2854 41.0214 21.1292C41.4244 21.0035 41.8149 20.8407 42.1878 20.6427C42.5111 20.4656 42.7802 20.3041 42.9876 20.1628C43.1951 20.0215 43.3592 19.9495 43.4741 19.9495C43.5489 19.946 43.6231 19.9645 43.6874 20.0028C43.7535 20.0578 43.8002 20.1326 43.8207 20.2161C43.8634 20.3615 43.8902 20.5111 43.9007 20.6623C43.9182 20.8527 43.9269 21.1106 43.9269 21.4288C43.9269 21.6497 43.9202 21.8401 43.9069 21.9954C43.8967 22.13 43.8767 22.2637 43.8469 22.3953C43.8244 22.4952 43.7885 22.5916 43.7402 22.6819C43.6807 22.7814 43.6091 22.8732 43.527 22.9551C43.3556 23.1097 43.1652 23.2419 42.9604 23.3484C42.6317 23.5302 42.2884 23.6841 41.9339 23.8083C41.4823 23.9674 41.0187 24.09 40.5476 24.175C39.9913 24.2758 39.4268 24.3251 38.8614 24.3221ZM64.4016 24.1221C64.1189 24.1248 63.8363 24.1114 63.5552 24.0821C63.3722 24.0642 63.1914 24.0285 63.0153 23.9755C62.9055 23.9455 62.8063 23.8855 62.7287 23.8021C62.6725 23.7349 62.6418 23.6499 62.6421 23.5622V9.65873H58.3231C58.2403 9.66074 58.1596 9.63228 58.0964 9.57875C58.0243 9.51039 57.9695 9.42588 57.9365 9.33217C57.885 9.19029 57.8514 9.04252 57.8365 8.8923C57.8124 8.6732 57.8012 8.45287 57.8031 8.23246C57.8012 8.00538 57.8123 7.77837 57.8365 7.55258C57.851 7.40022 57.8846 7.25029 57.9365 7.10632C57.9683 7.01393 58.0233 6.93132 58.0964 6.86648C58.1614 6.81682 58.2414 6.79094 58.3231 6.79315H70.4803C70.5596 6.79306 70.6368 6.8188 70.7003 6.86648C70.7767 6.92957 70.8343 7.01257 70.8665 7.10632C70.9184 7.25029 70.952 7.40022 70.9664 7.55258C70.9906 7.77837 71.0018 8.00538 70.9998 8.23246C71.0017 8.45287 70.9906 8.6732 70.9664 8.8923C70.9516 9.04252 70.918 9.19029 70.8665 9.33217C70.833 9.4272 70.7758 9.51209 70.7003 9.57875C70.6385 9.63016 70.5607 9.65844 70.4803 9.65873H66.1612V23.5621C66.1615 23.6498 66.1308 23.7348 66.0746 23.802C65.9971 23.8854 65.8978 23.9454 65.788 23.9754C65.612 24.0284 65.4312 24.0641 65.2482 24.0821C64.967 24.1113 64.6844 24.1247 64.4017 24.122L64.4016 24.1221ZM48.4789 24.1221C48.1962 24.1248 47.9136 24.1114 47.6324 24.0821C47.4488 24.0645 47.2678 24.0264 47.0927 23.9684C46.983 23.9346 46.8841 23.8725 46.806 23.7884C46.7482 23.7168 46.7176 23.6271 46.7194 23.5352V7.89917C46.7158 7.72785 46.7411 7.55716 46.7944 7.39429C46.8383 7.26286 46.9159 7.14521 47.0193 7.05303C47.2254 6.87803 47.4889 6.78546 47.7591 6.79315H55.8771C55.9545 6.7924 56.0298 6.81829 56.0904 6.86648C56.1642 6.93195 56.2212 7.0142 56.2566 7.10632C56.3133 7.24922 56.3492 7.3995 56.3633 7.55258C56.3875 7.77837 56.3987 8.00538 56.3967 8.23246C56.3989 8.4573 56.3877 8.68208 56.3633 8.9056C56.3495 9.05451 56.3135 9.20052 56.2566 9.33882C56.2189 9.42971 56.1622 9.51151 56.0904 9.57875C56.0315 9.63066 55.9556 9.65913 55.8771 9.65873H50.2385V14.2976H55.5306C55.607 14.2966 55.6817 14.3199 55.7439 14.3642C55.8177 14.4243 55.8749 14.5023 55.9101 14.5908C55.9667 14.727 56.0028 14.8708 56.0171 15.0176C56.0617 15.4608 56.0617 15.9073 56.0171 16.3505C56.0015 16.5013 55.9657 16.6493 55.9105 16.7904C55.8762 16.885 55.8191 16.9697 55.7442 17.037C55.6837 17.0852 55.6084 17.1111 55.531 17.1103H50.2385V23.5355C50.2405 23.6264 50.2124 23.7155 50.1585 23.7887C50.0821 23.8748 49.9827 23.9373 49.8719 23.9687C49.6966 24.0258 49.5156 24.0639 49.3321 24.0825C49.0487 24.112 48.7639 24.1252 48.479 24.122L48.4789 24.1221Z" fill="white"/>
<path id="Path 27" d="M26.9669 13.251H28.3669C28.4365 13.251 28.5033 13.2787 28.5525 13.3279C28.6017 13.3771 28.6294 13.4439 28.6294 13.5135V13.6885H26.9669V13.251Z" fill="#E6E6E6"/>
<path id="Vector" d="M18.1874 2.78052L18.0736 6.99746H15.8784L15.9921 2.78052C15.9926 2.68454 15.9693 2.58994 15.9243 2.50513C15.8794 2.42031 15.8142 2.34791 15.7346 2.29434C15.6549 2.24077 15.5633 2.20769 15.4678 2.19805C15.3723 2.18841 15.2759 2.2025 15.1871 2.23906L3.46838 5.27089C3.0913 5.41283 2.76695 5.6672 2.53922 5.99957C2.31149 6.33194 2.19138 6.72626 2.19515 7.12915V8.10969C1.51238 8.61973 0.958303 9.28234 0.577165 10.0446C0.196028 10.8069 -0.00161642 11.6477 1.09969e-05 12.5V7.12915C-0.00193638 6.28125 0.254796 5.45294 0.735936 4.75477C1.21708 4.05661 1.89973 3.52182 2.69277 3.22179L14.4267 0.175615C14.7409 0.0607822 15.0727 0.00136217 15.4072 0C16.144 0.00212435 16.8499 0.295765 17.3709 0.816764C17.8918 1.33776 18.1853 2.04377 18.1874 2.78052Z" fill="white"/>
<path id="Subtraction 13" d="M24.0084 25.5089H4.2572L10.0163 9.2457H7.24939L1.79466 25.0659C1.25039 24.7623 0.797068 24.3189 0.481561 23.7814C0.166055 23.244 -0.000191221 22.632 1.71399e-05 22.0088V10.9759C-0.000581262 10.2519 0.141593 9.53476 0.418414 8.86567C0.695234 8.19659 1.10127 7.58865 1.61328 7.07664C2.12528 6.56463 2.73322 6.1586 3.40231 5.88178C4.07139 5.60496 4.7885 5.46278 5.51258 5.46338H21.562L15.4002 22.8665H18.1897L24.1678 5.46732C25.0675 5.50841 25.9167 5.89474 26.5389 6.54595C27.161 7.19717 27.5082 8.06314 27.5082 8.96377V22.0088C27.5085 22.3644 27.4543 22.718 27.3475 23.0572C27.2419 23.3899 27.0882 23.7053 26.8914 23.9935C26.4138 24.6908 25.6989 25.1905 24.88 25.3995C24.5952 25.4722 24.3023 25.509 24.0084 25.5089ZM13.8899 9.26049L9.01263 22.9174H11.6799L16.493 9.26049H13.8899ZM24.823 14.7232C24.5894 14.7232 24.361 14.7925 24.1667 14.9223C23.9725 15.0521 23.8211 15.2365 23.7317 15.4524C23.6423 15.6682 23.6189 15.9058 23.6645 16.1349C23.71 16.364 23.8225 16.5745 23.9877 16.7397C24.1529 16.9049 24.3634 17.0174 24.5926 17.063C24.8217 17.1086 25.0592 17.0852 25.2751 16.9958C25.4909 16.9064 25.6754 16.755 25.8052 16.5607C25.935 16.3665 26.0043 16.1381 26.0043 15.9044C26.0039 15.5913 25.8793 15.291 25.6579 15.0696C25.4364 14.8482 25.1362 14.7235 24.823 14.7232Z" fill="white"/>
<path id="Subtraction 12" d="M28.3669 18.1511H24.7794C24.492 18.1514 24.2074 18.095 23.942 17.9851C23.6765 17.8751 23.4354 17.7138 23.2325 17.5103C23.0291 17.3074 22.8678 17.0663 22.7578 16.8009C22.6479 16.5354 22.5915 16.2509 22.5918 15.9635V15.7885C22.592 15.3585 22.7188 14.938 22.9564 14.5796C23.194 14.2211 23.5319 13.9406 23.9279 13.7729C24.1973 13.6589 24.4869 13.6004 24.7794 13.601H28.6294V17.8886C28.6294 17.9582 28.6017 18.025 28.5525 18.0742C28.5033 18.1234 28.4365 18.1511 28.3669 18.1511ZM24.8231 14.7385C24.5895 14.7385 24.3611 14.8078 24.1668 14.9376C23.9726 15.0674 23.8212 15.2519 23.7318 15.4677C23.6423 15.6836 23.619 15.9211 23.6645 16.1502C23.7101 16.3794 23.8226 16.5899 23.9878 16.7551C24.153 16.9203 24.3635 17.0328 24.5927 17.0784C24.8218 17.1239 25.0593 17.1005 25.2752 17.0111C25.491 16.9217 25.6755 16.7703 25.8053 16.5761C25.9351 16.3818 26.0044 16.1534 26.0044 15.9198C26.004 15.6066 25.8795 15.3064 25.658 15.0849C25.4365 14.8634 25.1363 14.7389 24.8231 14.7385Z" fill="#EEEEEE"/>
</g>
</svg>
