<svg width="79" height="115" viewBox="0 0 79 115" fill="none" xmlns="http://www.w3.org/2000/svg">
<path d="M14.4831 115C13.4194 115.003 12.3573 114.916 11.308 114.739C10.3354 114.573 9.38116 114.311 8.45903 113.956C7.58496 113.619 6.75133 113.183 5.97406 112.655C5.212 112.134 4.5128 111.525 3.89078 110.839C3.25037 110.128 2.69241 109.346 2.22782 108.507C1.72874 107.601 1.31886 106.647 1.00411 105.66C0.656345 104.565 0.40438 103.441 0.251137 102.301C0.0791303 101.019 -0.00471403 99.7261 0.000204415 98.4323C-0.00450768 97.106 0.0877929 95.7812 0.276348 94.4687C0.447721 93.2815 0.724948 92.1124 1.10462 90.9759C1.45242 89.9372 1.89571 88.934 2.42866 87.9794C2.92616 87.0921 3.51729 86.2623 4.19164 85.5046C4.8442 84.7747 5.57569 84.1216 6.37229 83.5576C7.17687 82.9918 8.04078 82.5181 8.94822 82.1452C9.88856 81.7594 10.8652 81.4716 11.8631 81.2864C12.9178 81.0928 13.9877 80.9969 15.0595 81.0001C15.9347 80.998 16.8083 81.0746 17.6702 81.2291C18.4577 81.3694 19.2338 81.5693 19.9919 81.8271C20.6558 82.0522 21.2985 82.3373 21.912 82.6791C22.342 82.9032 22.7426 83.181 23.1044 83.5061C23.283 83.6759 23.4391 83.8683 23.5687 84.0788C23.6633 84.2628 23.731 84.4597 23.7696 84.6635C23.8252 84.9406 23.863 85.2211 23.8826 85.5032C23.9077 85.8246 23.9203 86.227 23.9203 86.6993C23.9203 87.206 23.9039 87.6426 23.8701 87.9971C23.8493 88.2921 23.7903 88.5831 23.6945 88.8624C23.6341 89.0459 23.5307 89.2118 23.3931 89.3458C23.2822 89.4449 23.1393 89.4992 22.9916 89.4984C22.7416 89.4984 22.4207 89.348 22.0378 89.053C21.559 88.6936 21.0603 88.3622 20.5442 88.0606C19.8503 87.6585 19.1192 87.3264 18.3614 87.0691C17.3842 86.7528 16.3622 86.6023 15.3366 86.6238C14.1568 86.5937 12.9881 86.8604 11.9347 87.3999C10.8813 87.9394 9.97616 88.735 9.29999 89.7157C8.54614 90.8047 7.99727 92.0255 7.68102 93.3168C7.29617 94.8725 7.11055 96.472 7.12873 98.0758C7.12873 100.001 7.32645 101.692 7.71859 103.102C8.11073 104.512 8.67587 105.69 9.40034 106.601C10.0996 107.493 11.0051 108.197 12.0366 108.65C13.1379 109.113 14.321 109.342 15.5131 109.324C16.5408 109.344 17.5654 109.202 18.5504 108.904C19.3092 108.664 20.0445 108.353 20.7467 107.976C21.3555 107.637 21.8621 107.329 22.2528 107.059C22.6434 106.789 22.9524 106.652 23.1689 106.652C23.3097 106.645 23.4493 106.681 23.5704 106.754C23.6948 106.859 23.7828 107.002 23.8215 107.161C23.9019 107.439 23.9523 107.724 23.9721 108.013C24.005 108.376 24.0215 108.869 24.0215 109.476C24.0215 109.898 24.0088 110.261 23.9838 110.558C23.9646 110.815 23.9269 111.07 23.8708 111.321C23.8285 111.512 23.7609 111.696 23.6699 111.868C23.5578 112.058 23.423 112.234 23.2684 112.39C22.9456 112.685 22.5871 112.938 22.2015 113.141C21.5827 113.488 20.9361 113.782 20.2687 114.019C19.4183 114.323 18.5454 114.557 17.6582 114.719C16.6106 114.912 15.5478 115.006 14.4831 115ZM62.5752 114.618C62.0429 114.623 61.5108 114.598 60.9814 114.542C60.6368 114.508 60.2964 114.439 59.9648 114.338C59.7581 114.281 59.5712 114.166 59.4252 114.007C59.3193 113.879 59.2616 113.716 59.2621 113.549V87.0058H51.1294C50.9735 87.0097 50.8216 86.9553 50.7026 86.8531C50.5668 86.7226 50.4636 86.5613 50.4014 86.3824C50.3044 86.1115 50.2411 85.8294 50.2131 85.5426C50.1677 85.1244 50.1467 84.7037 50.1503 84.2829C50.1466 83.8494 50.1676 83.416 50.2131 82.985C50.2404 82.6941 50.3037 82.4079 50.4014 82.133C50.4613 81.9566 50.565 81.7989 50.7026 81.6751C50.8249 81.5803 50.9755 81.5309 51.1294 81.5351H74.0214C74.1708 81.535 74.3162 81.5841 74.4356 81.6751C74.5796 81.7956 74.6879 81.954 74.7486 82.133C74.8464 82.4079 74.9096 82.6941 74.9368 82.985C74.9823 83.416 75.0033 83.8494 74.9996 84.2829C75.0032 84.7037 74.9822 85.1244 74.9368 85.5426C74.9089 85.8294 74.8457 86.1115 74.7486 86.3824C74.6856 86.5638 74.5778 86.7259 74.4356 86.8531C74.3192 86.9513 74.1728 87.0053 74.0214 87.0058H65.8886V113.549C65.8891 113.716 65.8313 113.879 65.7255 114.007C65.5795 114.166 65.3926 114.281 65.1859 114.338C64.8544 114.439 64.5139 114.507 64.1693 114.542C63.6398 114.597 63.1077 114.623 62.5754 114.618L62.5752 114.618ZM32.5929 114.618C32.0606 114.623 31.5284 114.598 30.999 114.542C30.6532 114.508 30.3122 114.435 29.9825 114.325C29.776 114.26 29.5898 114.142 29.4428 113.981C29.334 113.844 29.2762 113.673 29.2796 113.497V83.6466C29.2729 83.3196 29.3206 82.9937 29.4208 82.6828C29.5036 82.4319 29.6496 82.2073 29.8444 82.0313C30.2325 81.6972 30.7287 81.5204 31.2375 81.5351H46.5237C46.6694 81.5337 46.8112 81.5831 46.9252 81.6751C47.0643 81.8001 47.1716 81.9571 47.2383 82.133C47.345 82.4058 47.4126 82.6927 47.4391 82.985C47.4848 83.416 47.5058 83.8494 47.5021 84.2829C47.5061 84.7122 47.4851 85.1413 47.4391 85.568C47.4131 85.8523 47.3454 86.1311 47.2383 86.3951C47.1672 86.5686 47.0605 86.7248 46.9252 86.8531C46.8144 86.9523 46.6715 87.0066 46.5237 87.0058H35.9061V95.8619H45.8712C46.015 95.86 46.1556 95.9045 46.2728 95.9891C46.4118 96.1039 46.5195 96.2528 46.5858 96.4217C46.6923 96.6817 46.7602 96.9562 46.7873 97.2364C46.8712 98.0826 46.8712 98.9351 46.7873 99.7812C46.7579 100.069 46.6904 100.352 46.5865 100.621C46.5219 100.802 46.4143 100.963 46.2734 101.092C46.1594 101.184 46.0176 101.233 45.8719 101.232H35.9061V113.498C35.9099 113.672 35.857 113.842 35.7555 113.982C35.6116 114.146 35.4244 114.265 35.2159 114.325C34.8857 114.434 34.5449 114.507 34.1993 114.542C33.6658 114.599 33.1295 114.624 32.593 114.618L32.5929 114.618Z" fill="#292929"/>
<path d="M73.6841 36.2167H77.5095C77.6997 36.2167 77.8821 36.2923 78.0167 36.4268C78.1512 36.5614 78.2267 36.7438 78.2267 36.9341V37.4124H73.6841V36.2167Z" fill="#F8AF00"/>
<path d="M49.6951 7.59952L49.3843 19.125H43.386L43.6968 7.59952C43.698 7.33719 43.6343 7.07864 43.5115 6.84684C43.3887 6.61503 43.2106 6.41713 42.993 6.27072C42.7754 6.12431 42.525 6.03391 42.2641 6.00756C42.0031 5.98121 41.7397 6.01971 41.4972 6.11965L9.47698 14.406C8.44666 14.794 7.56039 15.4892 6.93814 16.3976C6.31589 17.306 5.98771 18.3837 5.99802 19.4849V22.1648C4.13241 23.5588 2.61846 25.3698 1.57704 27.4532C0.535626 29.5366 -0.00441669 31.8347 3.0048e-05 34.164V19.4849C-0.00529096 17.1675 0.696203 14.9036 2.01087 12.9954C3.32553 11.0872 5.19081 9.62559 7.35771 8.80557L39.4193 0.479977C40.2779 0.166126 41.1844 0.00372299 42.0985 0C44.1116 0.00580613 46.0406 0.808363 47.464 2.23232C48.8874 3.65628 49.6895 5.58588 49.6951 7.59952Z" fill="#FFC436"/>
<path d="M65.6001 69.7192H11.6324L27.3686 25.2697H19.8079L4.90348 68.5084C3.44052 67.6896 2.21704 66.5024 1.35447 65.0646C0.466747 63.5802 -0.00139255 61.8826 2.78014e-05 60.1529V29.9987C-0.00385369 27.9841 0.39874 25.9895 1.18373 24.1342C1.93967 22.344 3.03584 20.7176 4.41141 19.3452C5.78344 17.9693 7.40945 16.8728 9.19917 16.1167C11.054 15.3312 13.0483 14.9284 15.0625 14.9322H58.9159L42.0794 62.497H49.7015L66.036 14.9429C68.4903 15.0502 70.8081 16.1028 72.5042 17.8804C74.2146 19.6586 75.168 22.0316 75.1634 24.4992V60.1529C75.1659 61.432 74.9103 62.6985 74.4119 63.8765C73.9318 65.0132 73.2357 66.0459 72.3622 66.9173C71.4911 67.791 70.4588 68.4873 69.3225 68.9675C68.1449 69.466 66.8788 69.7217 65.6001 69.7192ZM37.9528 25.3101L24.626 62.6362H31.9139L45.0656 25.3101H37.9528ZM67.1836 40.6252C66.2962 40.6261 65.4453 40.9792 64.8178 41.6069C64.1903 42.2346 63.8373 43.0856 63.8364 43.9733C63.8374 44.861 64.1904 45.712 64.8179 46.3397C65.4454 46.9674 66.2962 47.3204 67.1836 47.3214C68.071 47.3204 68.9218 46.9674 69.5493 46.3397C70.1768 45.712 70.5298 44.861 70.5308 43.9733C70.5299 43.0856 70.1769 42.2346 69.5494 41.6069C68.9219 40.9792 68.071 40.6261 67.1836 40.6252Z" fill="#0174BE"/>
<path d="M67.7069 37.1733H78.2268V48.8917C78.2268 49.082 78.1512 49.2645 78.0167 49.399C77.8822 49.5336 77.6997 49.6092 77.5095 49.6092H67.7069C66.1217 49.6092 64.6014 48.9793 63.4804 47.858C62.3595 46.7368 61.7297 45.216 61.7297 43.6304V43.1521C61.7297 41.5664 62.3595 40.0457 63.4804 38.9244C64.6014 37.8032 66.1217 37.1733 67.7069 37.1733Z" fill="#FFC436"/>
<path d="M67.8266 46.7393C69.6092 46.7393 71.0542 45.2939 71.0542 43.5108C71.0542 41.7277 69.6092 40.2822 67.8266 40.2822C66.044 40.2822 64.5989 41.7277 64.5989 43.5108C64.5989 45.2939 66.044 46.7393 67.8266 46.7393Z" fill="white"/>
</svg>
