<svg width="91" height="33" viewBox="0 0 91 33" fill="none" xmlns="http://www.w3.org/2000/svg">
<path d="M49.8081 31.1818C49.0841 31.1842 48.3611 31.1256 47.6469 31.0065C46.9849 30.8952 46.3354 30.7192 45.7077 30.4811C45.1128 30.2546 44.5454 29.9615 44.0163 29.6073C43.4976 29.2575 43.0217 28.8481 42.5983 28.3875C42.1624 27.9105 41.7826 27.3852 41.4663 26.8217C41.1266 26.2132 40.8477 25.5728 40.6334 24.9097C40.3967 24.1742 40.2252 23.4194 40.1209 22.6539C40.0038 21.793 39.9467 20.9249 39.9501 20.0561C39.9469 19.1655 40.0097 18.2758 40.1381 17.3944C40.2547 16.5971 40.4434 15.8121 40.7018 15.0489C40.9386 14.3513 41.2403 13.6776 41.6031 13.0366C41.9417 12.4408 42.3441 11.8835 42.8031 11.3746C43.2472 10.8845 43.7451 10.4459 44.2874 10.0672C44.835 9.68725 45.423 9.36915 46.0407 9.11871C46.6808 8.85961 47.3455 8.66637 48.0247 8.542C48.7426 8.41196 49.4709 8.3476 50.2004 8.34972C50.7962 8.34831 51.3908 8.39978 51.9774 8.50352C52.5135 8.59776 53.0417 8.732 53.5577 8.90512C54.0097 9.05625 54.4471 9.24773 54.8647 9.47724C55.1574 9.62772 55.4301 9.81431 55.6764 10.0326C55.7979 10.1466 55.9041 10.2759 55.9924 10.4172C56.0568 10.5407 56.1028 10.673 56.1291 10.8098C56.167 10.9959 56.1927 11.1843 56.206 11.3737C56.2231 11.5896 56.2317 11.8598 56.2317 12.177C56.2317 12.5172 56.2205 12.8104 56.1975 13.0485C56.1834 13.2466 56.1432 13.442 56.078 13.6296C56.0369 13.7528 55.9665 13.8642 55.8728 13.9542C55.7974 14.0207 55.7001 14.0572 55.5995 14.0566C55.4294 14.0566 55.2109 13.9557 54.9503 13.7576C54.6244 13.5162 54.285 13.2937 53.9337 13.0911C53.4614 12.8211 52.9638 12.5981 52.4479 12.4253C51.7828 12.2129 51.0871 12.1118 50.3891 12.1262C49.586 12.1061 48.7905 12.2851 48.0735 12.6474C47.3565 13.0097 46.7404 13.544 46.2801 14.2026C45.767 14.9339 45.3934 15.7537 45.1782 16.6208C44.9162 17.6656 44.7899 18.7397 44.8022 19.8167C44.8022 21.1095 44.9368 22.2451 45.2037 23.192C45.4706 24.1389 45.8553 24.9296 46.3484 25.5418C46.8244 26.141 47.4407 26.6135 48.1428 26.9176C48.8925 27.2283 49.6978 27.3824 50.5092 27.3705C51.2087 27.3838 51.9061 27.2886 52.5766 27.0884C53.0931 26.9273 53.5936 26.7185 54.0715 26.4647C54.4859 26.2377 54.8308 26.0306 55.0967 25.8494C55.3626 25.6682 55.5728 25.576 55.7202 25.576C55.816 25.5714 55.9111 25.5952 55.9935 25.6443C56.0782 25.7149 56.1381 25.8107 56.1644 25.9177C56.2191 26.1042 56.2535 26.296 56.2669 26.4898C56.2894 26.7339 56.3006 27.0645 56.3006 27.4725C56.3006 27.7557 56.2919 27.9998 56.2749 28.1989C56.2619 28.3714 56.2362 28.5428 56.198 28.7116C56.1692 28.8396 56.1232 28.9632 56.0613 29.0789C55.985 29.2066 55.8932 29.3242 55.788 29.4293C55.5683 29.6275 55.3242 29.797 55.0618 29.9335C54.6405 30.1666 54.2004 30.3639 53.7462 30.5232C53.1674 30.727 52.5732 30.8842 51.9693 30.9932C51.2562 31.1225 50.5328 31.1856 49.8081 31.1818ZM82.5428 30.9254C82.1805 30.9288 81.8183 30.9117 81.458 30.8742C81.2234 30.8512 80.9917 30.8054 80.766 30.7374C80.6253 30.699 80.498 30.622 80.3987 30.5152C80.3266 30.4289 80.2873 30.32 80.2877 30.2076V12.3828H74.752C74.6459 12.3854 74.5425 12.3489 74.4615 12.2803C74.3691 12.1926 74.2988 12.0843 74.2565 11.9641C74.1905 11.7822 74.1474 11.5928 74.1283 11.4002C74.0974 11.1193 74.0831 10.8369 74.0856 10.5543C74.0831 10.2632 74.0973 9.97212 74.1283 9.68264C74.1469 9.48731 74.19 9.2951 74.2565 9.11052C74.2972 8.99208 74.3678 8.88616 74.4615 8.80304C74.5447 8.73937 74.6473 8.70619 74.752 8.70903H90.3338C90.4355 8.70892 90.5345 8.74192 90.6157 8.80304C90.7138 8.88392 90.7875 8.99033 90.8288 9.11052C90.8954 9.29509 90.9384 9.48731 90.9569 9.68264C90.9879 9.97212 91.0022 10.2632 90.9996 10.5543C91.0021 10.8369 90.9878 11.1193 90.9569 11.4002C90.9379 11.5928 90.8949 11.7823 90.8288 11.9641C90.7859 12.086 90.7126 12.1948 90.6157 12.2803C90.5365 12.3462 90.4368 12.3824 90.3338 12.3828H84.7981V30.2075C84.7984 30.3199 84.7591 30.4288 84.6871 30.5151C84.5877 30.6219 84.4605 30.6988 84.3198 30.7373C84.0941 30.8053 83.8624 30.8511 83.6278 30.874C83.2674 30.9116 82.9052 30.9287 82.5429 30.9253L82.5428 30.9254ZM62.1348 30.9254C61.7725 30.9288 61.4103 30.9117 61.0499 30.8742C60.8145 30.8516 60.5825 30.8027 60.358 30.7283C60.2174 30.685 60.0907 30.6054 59.9906 30.4976C59.9166 30.4058 59.8773 30.2908 59.8796 30.1729V10.127C59.875 9.90735 59.9075 9.68852 59.9757 9.47971C60.032 9.31121 60.1314 9.16039 60.2641 9.04221C60.5282 8.81784 60.8659 8.69917 61.2123 8.70903H71.6171C71.7163 8.70806 71.8128 8.74125 71.8904 8.80304C71.985 8.88697 72.0581 8.99243 72.1035 9.11052C72.1761 9.29373 72.2221 9.48639 72.2402 9.68264C72.2712 9.97212 72.2855 10.2631 72.283 10.5543C72.2857 10.8425 72.2714 11.1307 72.2402 11.4173C72.2224 11.6082 72.1764 11.7954 72.1035 11.9727C72.0551 12.0892 71.9825 12.1941 71.8904 12.2803C71.8149 12.3468 71.7177 12.3833 71.6171 12.3828H64.39V18.33H71.173C71.2708 18.3287 71.3665 18.3586 71.4463 18.4154C71.5409 18.4925 71.6142 18.5925 71.6593 18.7059C71.7318 18.8805 71.7781 19.0649 71.7965 19.253C71.8536 19.8212 71.8536 20.3938 71.7965 20.962C71.7765 21.1552 71.7305 21.3449 71.6598 21.5259C71.6158 21.6472 71.5426 21.7558 71.4467 21.842C71.3691 21.9038 71.2726 21.937 71.1734 21.936H64.39V30.1734C64.3926 30.2899 64.3566 30.4041 64.2875 30.498C64.1896 30.6084 64.0622 30.6885 63.9202 30.7288C63.6954 30.8019 63.4635 30.8508 63.2283 30.8746C62.8651 30.9124 62.5001 30.9293 62.1349 30.9253L62.1348 30.9254Z" fill="#292929"/>
<path d="M34.563 16.9882H36.3574C36.4466 16.9882 36.5322 17.0237 36.5953 17.0868C36.6584 17.1499 36.6938 17.2355 36.6938 17.3248V17.5491H34.563V16.9882Z" fill="#F8AF00"/>
<path d="M23.3106 3.56473L23.1648 8.97101H20.3512L20.497 3.56473C20.4975 3.44168 20.4677 3.3204 20.4101 3.21167C20.3525 3.10293 20.2689 3.0101 20.1669 2.94143C20.0648 2.87275 19.9473 2.83035 19.8249 2.81798C19.7025 2.80562 19.579 2.82368 19.4652 2.87056L4.44539 6.75748C3.9621 6.93945 3.54638 7.26557 3.2545 7.69168C2.96261 8.11779 2.80867 8.62332 2.81351 9.13984V10.3969C1.9384 11.0508 1.22825 11.9003 0.739749 12.8776C0.251248 13.8548 -0.00207175 14.9328 1.40947e-05 16.0254V9.13984C-0.00248184 8.0528 0.32657 6.99087 0.943243 6.0958C1.55992 5.20073 2.43487 4.5151 3.4513 4.13045L18.4905 0.225144C18.8933 0.0779251 19.3185 0.00174636 19.7473 0C20.6916 0.0027235 21.5964 0.379181 22.2641 1.04712C22.9318 1.71506 23.308 2.62019 23.3106 3.56473Z" fill="#FFC436"/>
<path d="M30.7712 32.7034H5.45643L12.8379 11.8533H9.29136L2.30009 32.1354C1.61385 31.7513 1.03995 31.1944 0.635344 30.52C0.218938 29.8237 -0.000653207 29.0274 1.30409e-05 28.2161V14.0715C-0.00180766 13.1266 0.187038 12.1909 0.555257 11.3207C0.909849 10.4809 1.42403 9.71802 2.06928 9.07428C2.71286 8.42887 3.47557 7.91455 4.31508 7.55985C5.18516 7.19143 6.12061 7.00244 7.06543 7.00422H27.6359L19.7383 29.3156H23.3136L30.9757 7.00927C32.127 7.05959 33.2142 7.55333 34.0098 8.38717C34.8121 9.22128 35.2593 10.3344 35.2571 11.4919V28.2161C35.2583 28.8161 35.1384 29.4101 34.9046 29.9627C34.6794 30.4959 34.3529 30.9803 33.9432 31.3891C33.5346 31.7989 33.0503 32.1255 32.5173 32.3508C31.9649 32.5846 31.3711 32.7045 30.7712 32.7034ZM17.8026 11.8723L11.5514 29.3809H14.9699L21.1391 11.8723H17.8026ZM31.514 19.0561C31.0977 19.0566 30.6987 19.2222 30.4043 19.5166C30.1099 19.8111 29.9444 20.2103 29.9439 20.6266C29.9444 21.043 30.11 21.4422 30.4043 21.7366C30.6987 22.0311 31.0978 22.1967 31.514 22.1972C31.9303 22.1967 32.3294 22.0311 32.6237 21.7366C32.9181 21.4422 33.0836 21.043 33.0841 20.6266C33.0837 20.2103 32.9181 19.8111 32.6237 19.5166C32.3294 19.2222 31.9303 19.0566 31.514 19.0561Z" fill="#0174BE"/>
<path d="M31.7593 17.437H36.6939V22.9338C36.6939 23.023 36.6584 23.1086 36.5953 23.1717C36.5322 23.2348 36.4467 23.2703 36.3574 23.2703H31.7593C31.0157 23.2703 30.3026 22.9748 29.7768 22.4489C29.251 21.9229 28.9556 21.2096 28.9556 20.4658V20.2414C28.9556 19.4976 29.251 18.7843 29.7768 18.2584C30.3026 17.7324 31.0157 17.437 31.7593 17.437Z" fill="#FFC436"/>
<path d="M31.8155 21.9241C32.6517 21.9241 33.3295 21.2461 33.3295 20.4097C33.3295 19.5733 32.6517 18.8953 31.8155 18.8953C30.9794 18.8953 30.3015 19.5733 30.3015 20.4097C30.3015 21.2461 30.9794 21.9241 31.8155 21.9241Z" fill="white"/>
</svg>
