<svg width="24" height="24" viewBox="0 0 24 24" fill="none" xmlns="http://www.w3.org/2000/svg">
<g id="vuesax/outline/edit">
<g id="edit">
<path id="Vector" d="M15 22.75H9C3.57 22.75 1.25 20.43 1.25 15V9C1.25 3.57 3.57 1.25 9 1.25H11C11.1985 1.25131 11.3885 1.33075 11.5289 1.47112C11.6693 1.61149 11.7487 1.80149 11.75 2C11.7487 2.19851 11.6693 2.38851 11.5289 2.52888C11.3885 2.66925 11.1985 2.74869 11 2.75H9C4.39 2.75 2.75 4.39 2.75 9V15C2.75 19.61 4.39 21.25 9 21.25H15C19.61 21.25 21.25 19.61 21.25 15V13C21.25 12.8011 21.329 12.6103 21.4697 12.4697C21.6103 12.329 21.8011 12.25 22 12.25C22.1989 12.25 22.3897 12.329 22.5303 12.4697C22.671 12.6103 22.75 12.8011 22.75 13V15C22.75 20.43 20.43 22.75 15 22.75Z" fill="#707070"/>
<path id="Vector_2" d="M8.50097 17.69C7.91335 17.6987 7.34586 17.476 6.92097 17.07C6.67616 16.8143 6.49514 16.5044 6.39262 16.1656C6.2901 15.8268 6.26898 15.4685 6.33097 15.12L6.76097 12.11C6.87902 11.4589 7.1809 10.8551 7.63097 10.37L15.511 2.49C17.501 0.499998 19.521 0.499998 21.511 2.49C21.9906 2.89496 22.3728 3.40287 22.629 3.97595C22.8853 4.54902 23.009 5.1725 22.991 5.8C22.8303 6.84031 22.3059 7.78993 21.511 8.48L13.631 16.36C13.1459 16.8101 12.5421 17.1119 11.891 17.23L8.88097 17.66C8.75587 17.6845 8.62837 17.6946 8.50097 17.69ZM16.571 3.55L8.69097 11.43C8.46947 11.6847 8.31483 11.9906 8.24097 12.32L7.81097 15.33C7.78468 15.4488 7.78636 15.572 7.81586 15.69C7.84536 15.808 7.90189 15.9176 7.98097 16.01C8.07339 16.0891 8.18293 16.1456 8.30094 16.1751C8.41895 16.2046 8.5422 16.2063 8.66097 16.18L11.671 15.75C12.0011 15.6783 12.3075 15.5234 12.561 15.3L20.441 7.42C20.9805 6.96687 21.3478 6.34189 21.481 5.65C21.4727 5.2436 21.3752 4.84399 21.1955 4.47939C21.0158 4.11479 20.7582 3.79411 20.441 3.54C18.84 1.939 17.74 2.39 16.57 3.55H16.571Z" fill="#707070"/>
<path id="Vector_3" d="M19.85 9.82999C19.7822 9.83057 19.7147 9.82045 19.65 9.79999C18.3504 9.42994 17.1668 8.73421 16.2113 7.77872C15.2558 6.82322 14.5601 5.63961 14.19 4.33999C14.1374 4.14775 14.1625 3.94256 14.2597 3.7686C14.357 3.59465 14.5187 3.46587 14.71 3.40999C14.8046 3.38342 14.9034 3.3758 15.0009 3.38758C15.0984 3.39936 15.1927 3.4303 15.2782 3.47863C15.3637 3.52696 15.4388 3.59172 15.4992 3.66918C15.5595 3.74664 15.604 3.83528 15.63 3.92999C15.9296 4.98207 16.4928 5.94024 17.2663 6.71374C18.0398 7.48724 18.9979 8.05044 20.05 8.34999C20.2421 8.40473 20.4046 8.53331 20.502 8.70761C20.5995 8.88191 20.6239 9.08772 20.57 9.27999C20.5285 9.43884 20.4351 9.57925 20.3047 9.67891C20.1742 9.77857 20.0142 9.83175 19.85 9.82999Z" fill="#707070"/>
</g>
</g>
</svg>
