<svg width="21" height="21" viewBox="0 0 21 21" fill="none" xmlns="http://www.w3.org/2000/svg">
<path d="M16.1034 3.30958C14.5008 1.70697 12.9313 1.66567 11.2874 3.30958L10.2878 4.30915C10.2466 4.35234 10.2173 4.40551 10.2028 4.46344C10.1883 4.52137 10.1891 4.58207 10.2052 4.63958C10.5211 5.72372 11.1054 6.71068 11.9039 7.50917C12.7023 8.30767 13.6893 8.8919 14.7734 9.20784C14.8057 9.21736 14.839 9.22291 14.8726 9.22436C14.9171 9.22484 14.9613 9.21631 15.0025 9.19928C15.0437 9.18224 15.081 9.15705 15.1121 9.12523L16.1034 8.12567C16.4563 7.83014 16.7458 7.4663 16.9545 7.05603C17.1632 6.64576 17.2868 6.19753 17.3178 5.73828C17.293 5.27176 17.1724 4.81534 16.9635 4.39748C16.7546 3.97963 16.4618 3.60929 16.1034 3.30958Z" fill="#707070"/>
<path d="M13.2865 9.9596C13.0469 9.84395 12.8156 9.7283 12.5926 9.59613C12.4109 9.48873 12.2374 9.37308 12.0639 9.24917C11.9029 9.13989 11.7484 9.02128 11.6013 8.89395C11.5507 8.8571 11.5037 8.81561 11.4609 8.77004C11.1529 8.50879 10.8682 8.22134 10.61 7.91091C10.564 7.86544 10.5225 7.81564 10.4861 7.76221C10.3615 7.61778 10.2456 7.46607 10.1391 7.30787C10.0214 7.15249 9.91374 6.98969 9.81694 6.82047C9.68476 6.59743 9.56911 6.37439 9.45346 6.14308C9.33781 5.89526 9.24694 5.65569 9.16433 5.43265L3.9765 10.6205C3.86111 10.7492 3.78137 10.9058 3.7452 11.0748L3.29911 14.2387C3.25308 14.4959 3.26716 14.7602 3.34025 15.011C3.41334 15.2618 3.54345 15.4922 3.72042 15.6844C4.03299 15.9782 4.44801 16.1383 4.87694 16.1305C4.97658 16.1304 5.07605 16.1221 5.17433 16.1057L8.3465 15.6596C8.51673 15.6269 8.67423 15.5467 8.80085 15.4283L13.9887 10.2405C13.7574 10.1579 13.5343 10.067 13.2865 9.9596Z" fill="#707070"/>
</svg>
