<svg width="24" height="24" viewBox="0 0 24 24" fill="none" xmlns="http://www.w3.org/2000/svg">
<path d="M17 21.25H7C3.35 21.25 1.25 19.15 1.25 15.5V8.5C1.25 4.85 3.35 2.75 7 2.75H17C20.65 2.75 22.75 4.85 22.75 8.5V15.5C22.75 19.15 20.65 21.25 17 21.25ZM7 4.25C4.14 4.25 2.75 5.64 2.75 8.5V15.5C2.75 18.36 4.14 19.75 7 19.75H17C19.86 19.75 21.25 18.36 21.25 15.5V8.5C21.25 5.64 19.86 4.25 17 4.25H7Z" fill="#707070"/>
<path d="M12 12.87C11.1527 12.8811 10.3271 12.6024 9.65998 12.08L6.52998 9.58004C6.37483 9.45671 6.27502 9.27681 6.25252 9.07989C6.23001 8.88298 6.28665 8.68519 6.40998 8.53004C6.5333 8.37489 6.71321 8.27508 6.91013 8.25258C7.10704 8.23007 7.30483 8.28671 7.45998 8.41004L10.59 10.91C10.9981 11.2074 11.49 11.3676 11.995 11.3676C12.4999 11.3676 12.9919 11.2074 13.4 10.91L16.53 8.41004C16.6063 8.34778 16.6943 8.30143 16.7888 8.27372C16.8833 8.246 16.9824 8.23749 17.0803 8.24867C17.1781 8.25985 17.2728 8.29051 17.3586 8.33883C17.4444 8.38716 17.5197 8.45217 17.58 8.53004C17.6422 8.60636 17.6886 8.69436 17.7163 8.78887C17.744 8.88338 17.7525 8.98249 17.7413 9.08034C17.7302 9.17819 17.6995 9.27282 17.6512 9.35864C17.6029 9.44446 17.5379 9.51974 17.46 9.58004L14.33 12.08C13.6673 12.6036 12.8444 12.8826 12 12.87Z" fill="#707070"/>
</svg>
