<svg width="24" height="24" viewBox="0 0 24 24" fill="none" xmlns="http://www.w3.org/2000/svg">
<path d="M9.46998 15.2801C9.37145 15.2805 9.27385 15.2612 9.18285 15.2234C9.09185 15.1856 9.00929 15.1301 8.93998 15.0601C8.53813 14.6583 8.21937 14.1812 8.0019 13.6562C7.78442 13.1311 7.67249 12.5684 7.67249 12.0001C7.67249 11.4318 7.78442 10.8691 8.0019 10.344C8.21937 9.81901 8.53813 9.34195 8.93998 8.9401C9.34182 8.53826 9.81888 8.2195 10.3439 8.00202C10.869 7.78454 11.4317 7.67261 12 7.67261C12.5683 7.67261 13.131 7.78454 13.656 8.00202C14.1811 8.2195 14.6581 8.53826 15.06 8.9401C15.1298 9.0096 15.1851 9.09219 15.2229 9.18315C15.2607 9.2741 15.2801 9.37161 15.2801 9.4701C15.2801 9.56859 15.2607 9.66611 15.2229 9.75706C15.1851 9.84801 15.1298 9.9306 15.06 10.0001L9.99998 15.0601C9.93067 15.1301 9.8481 15.1856 9.75711 15.2234C9.66611 15.2612 9.5685 15.2805 9.46998 15.2801ZM12 9.1701C11.5047 9.17031 11.0182 9.30042 10.589 9.54745C10.1598 9.79448 9.80287 10.1498 9.5539 10.5779C9.30494 11.006 9.17263 11.4919 9.17018 11.9871C9.16774 12.4824 9.29525 12.9696 9.53998 13.4001L13.4 9.5401C12.9735 9.29684 12.4909 9.16929 12 9.1701Z" fill="#292D32"/>
<path d="M5.59995 18.51C5.4205 18.5096 5.24695 18.4459 5.10995 18.33C3.99685 17.3707 3.0359 16.2479 2.25995 15C1.73895 14.086 1.46497 13.052 1.46497 12C1.46497 10.9479 1.73895 9.91399 2.25995 8.99998C4.69995 5.17998 8.24995 2.97998 11.9999 2.97998C14.2729 3.00619 16.4749 3.77531 18.2699 5.16998C18.4291 5.28933 18.5343 5.467 18.5624 5.66391C18.5905 5.86083 18.5393 6.06085 18.4199 6.21998C18.3006 6.37911 18.1229 6.48431 17.926 6.51244C17.7291 6.54057 17.5291 6.48933 17.3699 6.36998C15.8351 5.16904 13.9486 4.50506 11.9999 4.47998C8.76995 4.47998 5.67995 6.41998 3.51995 9.80998C3.1509 10.4809 2.95738 11.2342 2.95738 12C2.95738 12.7657 3.1509 13.519 3.51995 14.19C4.22447 15.308 5.08669 16.3184 6.07995 17.19C6.23011 17.3206 6.32273 17.5051 6.33771 17.7035C6.35268 17.902 6.28881 18.0983 6.15995 18.25C6.09145 18.3318 6.00576 18.3975 5.90896 18.4425C5.81217 18.4874 5.70666 18.5105 5.59995 18.51Z" fill="#292D32"/>
<path d="M12 21.0199C10.6659 21.0181 9.34597 20.746 8.11996 20.2199C8.02935 20.1819 7.94713 20.1263 7.87799 20.0564C7.80885 19.9866 7.75414 19.9038 7.717 19.8128C7.67986 19.7218 7.661 19.6244 7.66151 19.5261C7.66202 19.4278 7.68188 19.3306 7.71996 19.2399C7.75805 19.1493 7.81361 19.0671 7.88347 18.998C7.95333 18.9288 8.03612 18.8741 8.12712 18.837C8.21812 18.7998 8.31555 18.781 8.41384 18.7815C8.51213 18.782 8.60935 18.8019 8.69996 18.8399C9.73959 19.286 10.8587 19.5173 11.99 19.5199C15.22 19.5199 18.31 17.5799 20.47 14.1899C20.839 13.519 21.0325 12.7657 21.0325 11.9999C21.0325 11.2342 20.839 10.4809 20.47 9.80995C20.1619 9.32329 19.8246 8.85577 19.46 8.40995C19.3356 8.25414 19.2775 8.05572 19.298 7.85744C19.3186 7.65916 19.4163 7.4769 19.57 7.34995C19.6466 7.28712 19.7349 7.2401 19.8298 7.21161C19.9247 7.18311 20.0243 7.17371 20.1229 7.18394C20.2215 7.19417 20.317 7.22382 20.4041 7.2712C20.4911 7.31857 20.5679 7.38273 20.63 7.45995C21.0303 7.95071 21.401 8.46496 21.74 8.99995C22.261 9.91395 22.5349 10.9479 22.5349 11.9999C22.5349 13.052 22.261 14.0859 21.74 14.9999C19.3 18.8199 15.75 21.0199 12 21.0199Z" fill="#292D32"/>
<path d="M12.69 16.2701C12.5152 16.2693 12.3461 16.2082 12.2113 16.097C12.0764 15.9858 11.9841 15.8315 11.95 15.6601C11.9307 15.5634 11.931 15.4639 11.9509 15.3673C11.9708 15.2708 12.0099 15.1792 12.0658 15.0981C12.1218 15.017 12.1935 14.9479 12.2767 14.895C12.3598 14.8421 12.4528 14.8064 12.55 14.7901C13.0984 14.6818 13.6022 14.4129 13.9975 14.0176C14.3928 13.6223 14.6616 13.1185 14.77 12.5701C14.8083 12.3745 14.9221 12.2018 15.0868 12.0895C15.2516 11.9772 15.4539 11.9343 15.65 11.9701C15.7473 11.9882 15.8401 12.0254 15.9229 12.0795C16.0058 12.1336 16.0772 12.2035 16.133 12.2853C16.1887 12.3671 16.2278 12.4591 16.2479 12.556C16.2679 12.653 16.2687 12.7529 16.25 12.8501C16.0887 13.6974 15.6763 14.4766 15.0664 15.0865C14.4565 15.6964 13.6773 16.1088 12.83 16.2701C12.7834 16.2651 12.7365 16.2651 12.69 16.2701Z" fill="#292D32"/>
<path d="M2.00002 22.7501C1.9015 22.7505 1.80389 22.7312 1.71289 22.6934C1.6219 22.6556 1.53933 22.6001 1.47002 22.5301C1.33054 22.389 1.25232 22.1985 1.25232 22.0001C1.25232 21.8017 1.33054 21.6112 1.47002 21.4701L8.94002 14.0011C9.0822 13.8686 9.27024 13.7965 9.46454 13.7999C9.65884 13.8033 9.84423 13.8821 9.98164 14.0195C10.1191 14.1569 10.1978 14.3423 10.2012 14.5366C10.2046 14.7309 10.1325 14.9189 10 15.0611L2.53002 22.5311C2.46063 22.6009 2.37803 22.6563 2.28703 22.6939C2.19604 22.7315 2.09847 22.7506 2.00002 22.7501Z" fill="#292D32"/>
<path d="M14.53 10.2211C14.4315 10.2214 14.3339 10.2021 14.2429 10.1644C14.1519 10.1266 14.0693 10.0711 14 10.0011C13.8605 9.85993 13.7823 9.6695 13.7823 9.47107C13.7823 9.27264 13.8605 9.0822 14 8.94107L21.47 1.47107C21.6122 1.33859 21.8002 1.26646 21.9945 1.26989C22.1888 1.27332 22.3742 1.35203 22.5116 1.48945C22.649 1.62686 22.7277 1.81224 22.7312 2.00654C22.7346 2.20085 22.6625 2.38889 22.53 2.53107L15.06 10.0011C14.9907 10.0711 14.9081 10.1266 14.8171 10.1644C14.7261 10.2021 14.6285 10.2214 14.53 10.2211Z" fill="#292D32"/>
</svg>
