<svg width="24" height="24" viewBox="0 0 24 24" fill="none" xmlns="http://www.w3.org/2000/svg">
<path d="M12 16.3299C11.1436 16.3299 10.3064 16.076 9.59438 15.6002C8.88232 15.1244 8.32733 14.4481 7.9996 13.6569C7.67187 12.8657 7.58613 11.9951 7.7532 11.1552C7.92027 10.3152 8.33267 9.54371 8.93823 8.93815C9.54379 8.33259 10.3153 7.9202 11.1553 7.75312C11.9952 7.58605 12.8658 7.6718 13.657 7.99953C14.4482 8.32725 15.1245 8.88224 15.6003 9.5943C16.076 10.3064 16.33 11.1435 16.33 11.9999C16.3295 13.1481 15.8731 14.2492 15.0612 15.0611C14.2493 15.873 13.1482 16.3294 12 16.3299ZM12 9.16992C11.4403 9.16992 10.8931 9.3359 10.4277 9.64686C9.96235 9.95783 9.59962 10.3998 9.38542 10.9169C9.17123 11.434 9.11518 12.0031 9.22438 12.552C9.33357 13.101 9.60311 13.6053 9.99889 14.001C10.3947 14.3968 10.8989 14.6663 11.4479 14.7755C11.9969 14.8847 12.5659 14.8287 13.083 14.6145C13.6001 14.4003 14.0421 14.0376 14.3531 13.5722C14.664 13.1068 14.83 12.5596 14.83 11.9999C14.8289 11.2497 14.5304 10.5305 13.9999 9.99998C13.4694 9.46948 12.7502 9.17098 12 9.16992Z" fill="#707070"/>
<path d="M12 21.02C8.23998 21.02 4.68998 18.82 2.24998 15C1.72899 14.086 1.455 13.052 1.455 12C1.455 10.9479 1.72899 9.91399 2.24998 8.99998C4.69998 5.17998 8.25498 2.97998 12 2.97998C15.745 2.97998 19.3 5.17998 21.74 8.99998C22.261 9.91399 22.535 10.9479 22.535 12C22.535 13.052 22.261 14.086 21.74 15C19.3 18.82 15.755 21.02 12 21.02ZM12 4.47998C8.76998 4.47998 5.67998 6.41998 3.51998 9.80998C3.15093 10.4809 2.95742 11.2342 2.95742 12C2.95742 12.7657 3.15093 13.519 3.51998 14.19C5.67998 17.58 8.76998 19.52 12 19.52C15.23 19.52 18.32 17.58 20.48 14.19C20.849 13.519 21.0425 12.7657 21.0425 12C21.0425 11.2342 20.849 10.4809 20.48 9.80998C18.32 6.41998 15.23 4.47998 12 4.47998Z" fill="#707070"/>
</svg>
