<svg width="19" height="19" viewBox="0 0 19 19" fill="none" xmlns="http://www.w3.org/2000/svg">
<g id="vuesax/outline/setting-5">
<g id="setting-5">
<path id="Vector" d="M0.989584 15.0417C0.990621 14.8845 1.05351 14.7341 1.16464 14.623C1.27576 14.5118 1.42618 14.4489 1.58333 14.4479L10.2917 14.4479C10.4488 14.4489 10.5992 14.5118 10.7104 14.623C10.8215 14.7341 10.8844 14.8845 10.8854 15.0417C10.8844 15.1988 10.8215 15.3492 10.7104 15.4604C10.5992 15.5715 10.4488 15.6344 10.2917 15.6354L1.58333 15.6354C1.42618 15.6344 1.27576 15.5715 1.16464 15.4604C1.05351 15.3492 0.990621 15.1988 0.989584 15.0417Z" fill="#707070"/>
<path id="Vector_2" d="M12.8646 15.0417C12.8656 14.8845 12.9285 14.7341 13.0396 14.623C13.1508 14.5118 13.3012 14.4489 13.4583 14.4479L17.4167 14.4479C17.5738 14.4489 17.7242 14.5118 17.8354 14.623C17.9465 14.7341 18.0094 14.8845 18.0104 15.0417C18.0094 15.1988 17.9465 15.3492 17.8354 15.4604C17.7242 15.5715 17.5738 15.6344 17.4167 15.6354L13.4583 15.6354C13.3012 15.6344 13.1508 15.5715 13.0396 15.4604C12.9285 15.3492 12.8656 15.1988 12.8646 15.0417Z" fill="#707070"/>
<path id="Vector_3" d="M0.989583 9.5C0.99062 9.34285 1.05351 9.19243 1.16463 9.0813C1.27576 8.97018 1.42618 8.90729 1.58333 8.90625L5.54167 8.90625C5.69882 8.90729 5.84924 8.97018 5.96036 9.0813C6.07149 9.19243 6.13438 9.34285 6.13542 9.5C6.13438 9.65715 6.07149 9.80757 5.96036 9.9187C5.84924 10.0298 5.69882 10.0927 5.54167 10.0937L1.58333 10.0937C1.42618 10.0927 1.27576 10.0298 1.16463 9.9187C1.05351 9.80757 0.99062 9.65715 0.989583 9.5Z" fill="#707070"/>
<path id="Vector_4" d="M8.11458 9.5C8.11562 9.34285 8.17851 9.19243 8.28963 9.0813C8.40076 8.97018 8.55118 8.90729 8.70833 8.90625L17.4167 8.90625C17.5738 8.90729 17.7242 8.97018 17.8354 9.0813C17.9465 9.19243 18.0094 9.34285 18.0104 9.5C18.0094 9.65715 17.9465 9.80757 17.8354 9.9187C17.7242 10.0298 17.5738 10.0927 17.4167 10.0937L8.70833 10.0937C8.55118 10.0927 8.40076 10.0298 8.28963 9.9187C8.17851 9.80757 8.11562 9.65715 8.11458 9.5Z" fill="#707070"/>
<path id="Vector_5" d="M0.989582 3.95834C0.990619 3.80119 1.05351 3.65077 1.16463 3.53964C1.27576 3.42852 1.42618 3.36563 1.58333 3.36459L10.2917 3.36459C10.4488 3.36563 10.5992 3.42852 10.7104 3.53965C10.8215 3.65077 10.8844 3.80119 10.8854 3.95834C10.8844 4.1155 10.8215 4.26592 10.7104 4.37704C10.5992 4.48817 10.4488 4.55106 10.2917 4.55209L1.58333 4.55209C1.42618 4.55106 1.27576 4.48817 1.16463 4.37704C1.05351 4.26592 0.990619 4.1155 0.989582 3.95834Z" fill="#707070"/>
<path id="Vector_6" d="M12.8646 3.95834C12.8656 3.80119 12.9285 3.65077 13.0396 3.53964C13.1508 3.42852 13.3012 3.36563 13.4583 3.36459L17.4167 3.36459C17.5738 3.36563 17.7242 3.42852 17.8354 3.53965C17.9465 3.65077 18.0094 3.80119 18.0104 3.95834C18.0094 4.1155 17.9465 4.26592 17.8354 4.37704C17.7242 4.48817 17.5738 4.55106 17.4167 4.55209L13.4583 4.55209C13.3012 4.55106 13.1508 4.48817 13.0396 4.37704C12.9285 4.26592 12.8656 4.1155 12.8646 3.95834Z" fill="#707070"/>
<path id="Vector_7" d="M9.69792 5.54167L9.69792 2.375C9.69895 2.21785 9.76184 2.06743 9.87297 1.9563C9.98409 1.84518 10.1345 1.78229 10.2917 1.78125C10.4488 1.78229 10.5992 1.84518 10.7104 1.9563C10.8215 2.06743 10.8844 2.21785 10.8854 2.375L10.8854 5.54167C10.8844 5.69882 10.8215 5.84924 10.7104 5.96037C10.5992 6.07149 10.4488 6.13438 10.2917 6.13542C10.1345 6.13438 9.98409 6.07149 9.87297 5.96037C9.76184 5.84924 9.69895 5.69882 9.69792 5.54167Z" fill="#707070"/>
<path id="Vector_8" d="M9.69792 16.625L9.69792 13.4583C9.69896 13.3012 9.76184 13.1508 9.87297 13.0396C9.9841 12.9285 10.1345 12.8656 10.2917 12.8646C10.4488 12.8656 10.5992 12.9285 10.7104 13.0396C10.8215 13.1508 10.8844 13.3012 10.8854 13.4583L10.8854 16.625C10.8844 16.7822 10.8215 16.9326 10.7104 17.0437C10.5992 17.1548 10.4488 17.2177 10.2917 17.2188C10.1345 17.2177 9.9841 17.1548 9.87297 17.0437C9.76184 16.9326 9.69896 16.7822 9.69792 16.625Z" fill="#707070"/>
<path id="Vector_9" d="M8.11458 11.0833L8.11458 7.91666C8.11562 7.7595 8.17851 7.60908 8.28964 7.49796C8.40076 7.38683 8.55118 7.32394 8.70833 7.32291C8.86549 7.32394 9.01591 7.38683 9.12703 7.49796C9.23816 7.60908 9.30105 7.7595 9.30208 7.91666L9.30208 11.0833C9.30105 11.2405 9.23816 11.3909 9.12703 11.502C9.01591 11.6131 8.86549 11.676 8.70833 11.6771C8.55118 11.676 8.40076 11.6131 8.28964 11.502C8.17851 11.3909 8.11562 11.2405 8.11458 11.0833Z" fill="#707070"/>
</g>
</g>
</svg>
