<svg width="18" height="18" viewBox="0 0 18 18" fill="none" xmlns="http://www.w3.org/2000/svg">
<path d="M16.3274 1.67228C16.2187 1.56428 16.0718 1.50366 15.9186 1.50366C15.7654 1.50366 15.6185 1.56428 15.5099 1.67228L1.67237 15.5173C1.56437 15.6259 1.50375 15.7729 1.50375 15.926C1.50375 16.0792 1.56437 16.2261 1.67237 16.3348C1.78143 16.4393 1.92628 16.4984 2.07737 16.4998C2.15295 16.4994 2.2277 16.4839 2.29724 16.4543C2.36678 16.4247 2.42972 16.3815 2.48237 16.3273L16.3274 2.47853C16.3819 2.42649 16.4253 2.36394 16.4549 2.29464C16.4846 2.22535 16.4999 2.15077 16.4999 2.0754C16.4999 2.00003 16.4846 1.92545 16.4549 1.85616C16.4253 1.78687 16.3819 1.72431 16.3274 1.67228Z" fill="#707070"/>
<path d="M11.118 2.64V6.885L6.88801 11.115V9.96H4.56751C3.51751 9.96 3.22501 9.315 3.92251 8.5275L9.00001 2.7525L9.60001 2.07C10.4325 1.12425 11.118 1.38 11.118 2.64Z" fill="#707070"/>
<path d="M14.0775 9.47254L8.99999 15.2475L8.39999 15.93C7.56749 16.875 6.88499 16.62 6.88499 15.36V13.365L12.21 8.04004H13.4325C14.4825 8.04004 14.775 8.68504 14.0775 9.47254Z" fill="#707070"/>
</svg>
