<svg width="24" height="24" viewBox="0 0 24 24" fill="none" xmlns="http://www.w3.org/2000/svg">
<g id="vuesax/bold/clipboard-text">
<g id="clipboard-text">
<path id="Vector" d="M14.35 2.00002H9.65001C9.15016 1.99896 8.67033 2.19637 8.31594 2.54888C7.96155 2.90139 7.7616 3.38017 7.76001 3.88002V4.82002C7.75975 5.06698 7.8082 5.31157 7.90258 5.53978C7.99697 5.76799 8.13544 5.97534 8.31006 6.14997C8.48469 6.3246 8.69204 6.46307 8.92025 6.55745C9.14847 6.65184 9.39305 6.70028 9.64001 6.70002H14.35C14.597 6.70028 14.8416 6.65184 15.0698 6.55745C15.298 6.46307 15.5053 6.3246 15.68 6.14997C15.8546 5.97534 15.9931 5.76799 16.0874 5.53978C16.1818 5.31157 16.2303 5.06698 16.23 4.82002V3.88002C16.2312 3.6328 16.1834 3.3878 16.0893 3.15917C15.9953 2.93054 15.8568 2.72282 15.682 2.548C15.5072 2.37319 15.2995 2.23476 15.0709 2.1407C14.8422 2.04664 14.5972 1.99883 14.35 2.00002Z" fill="#0174BE"/>
<path id="Vector_2" d="M17.24 4.81999C17.2374 5.58566 16.932 6.31921 16.3906 6.86062C15.8492 7.40203 15.1157 7.70736 14.35 7.70999H9.65001C8.88435 7.70736 8.15079 7.40203 7.60938 6.86062C7.06797 6.31921 6.76265 5.58566 6.76001 4.81999C6.75858 4.69156 6.72406 4.56567 6.65979 4.45447C6.59551 4.34327 6.50365 4.25053 6.39308 4.18519C6.2825 4.11985 6.15695 4.08412 6.02854 4.08146C5.90013 4.0788 5.7732 4.10929 5.66001 4.16999C4.94376 4.55141 4.3448 5.12053 3.9273 5.81637C3.5098 6.5122 3.2895 7.30852 3.29001 8.11999V17.53C3.29291 18.7146 3.76479 19.8499 4.60245 20.6876C5.44011 21.5252 6.57538 21.9971 7.76001 22H16.24C17.4246 21.9971 18.5599 21.5252 19.3976 20.6876C20.2352 19.8499 20.7071 18.7146 20.71 17.53V8.11999C20.7105 7.30852 20.4902 6.5122 20.0727 5.81637C19.6552 5.12053 19.0563 4.55141 18.34 4.16999C18.2268 4.10929 18.0999 4.0788 17.9715 4.08146C17.8431 4.08412 17.7175 4.11985 17.6069 4.18519C17.4964 4.25053 17.4045 4.34327 17.3402 4.45447C17.276 4.56567 17.2414 4.69156 17.24 4.81999ZM12.38 16.95H8.00001C7.8011 16.95 7.61033 16.871 7.46968 16.7303C7.32903 16.5897 7.25001 16.3989 7.25001 16.2C7.25001 16.0011 7.32903 15.8103 7.46968 15.6697C7.61033 15.529 7.8011 15.45 8.00001 15.45H12.38C12.5789 15.45 12.7697 15.529 12.9103 15.6697C13.051 15.8103 13.13 16.0011 13.13 16.2C13.13 16.3989 13.051 16.5897 12.9103 16.7303C12.7697 16.871 12.5789 16.95 12.38 16.95ZM15 12.95H8.00001C7.8011 12.95 7.61033 12.871 7.46968 12.7303C7.32903 12.5897 7.25001 12.3989 7.25001 12.2C7.25001 12.0011 7.32903 11.8103 7.46968 11.6697C7.61033 11.529 7.8011 11.45 8.00001 11.45H15C15.1989 11.45 15.3897 11.529 15.5303 11.6697C15.671 11.8103 15.75 12.0011 15.75 12.2C15.75 12.3989 15.671 12.5897 15.5303 12.7303C15.3897 12.871 15.1989 12.95 15 12.95Z" fill="#0174BE"/>
</g>
</g>
</svg>
