<svg width="24" height="24" viewBox="0 0 24 24" fill="none" xmlns="http://www.w3.org/2000/svg">
<path d="M7.24001 2.00006H5.34001C4.88832 1.94122 4.42916 1.98674 3.99782 2.13313C3.56648 2.27951 3.17445 2.52287 2.85188 2.84447C2.52931 3.16608 2.28478 3.55737 2.1371 3.98827C1.98942 4.41917 1.94252 4.8782 2.00001 5.33006V7.23006C1.94224 7.6811 1.98859 8.13937 2.13551 8.56971C2.28242 9.00004 2.526 9.39099 2.84754 9.71253C3.16908 10.0341 3.56002 10.2776 3.99036 10.4246C4.42069 10.5715 4.87897 10.6178 5.33001 10.5601H7.23001C7.68105 10.6178 8.13933 10.5715 8.56966 10.4246C9 10.2776 9.39094 10.0341 9.71248 9.71253C10.034 9.39099 10.2776 9.00004 10.4245 8.56971C10.5714 8.13937 10.6178 7.6811 10.56 7.23006V5.33006C10.6197 4.87952 10.5751 4.42129 10.4295 3.99077C10.2839 3.56024 10.0413 3.16894 9.72043 2.8471C9.39956 2.52526 9.00899 2.28148 8.5789 2.13461C8.14881 1.98774 7.69072 1.9417 7.24001 2.00006Z" fill="#0174BE"/>
<path d="M18.67 2.00019H16.77C16.319 1.94242 15.8607 1.98877 15.4304 2.13569C15 2.28261 14.6091 2.52619 14.2875 2.84772C13.966 3.16926 13.7224 3.56021 13.5755 3.99054C13.4286 4.42088 13.3822 4.87916 13.44 5.33019V7.23019C13.3822 7.68123 13.4286 8.13951 13.5755 8.56985C13.7224 9.00018 13.966 9.39112 14.2875 9.71266C14.6091 10.0342 15 10.2778 15.4304 10.4247C15.8607 10.5716 16.319 10.618 16.77 10.5602H18.67C19.1211 10.618 19.5793 10.5716 20.0097 10.4247C20.44 10.2778 20.8309 10.0342 21.1525 9.71266C21.474 9.39112 21.7176 9.00018 21.8645 8.56985C22.0114 8.13951 22.0578 7.68123 22 7.23019V5.33019C22.0578 4.87916 22.0114 4.42088 21.8645 3.99054C21.7176 3.56021 21.474 3.16926 21.1525 2.84772C20.8309 2.52619 20.44 2.28261 20.0097 2.13569C19.5793 1.98877 19.1211 1.94242 18.67 2.00019Z" fill="#0174BE"/>
<path d="M18.67 13.4299H16.77C16.319 13.3721 15.8607 13.4185 15.4304 13.5654C15 13.7123 14.6091 13.9559 14.2875 14.2774C13.966 14.599 13.7224 14.9899 13.5755 15.4202C13.4286 15.8506 13.3822 16.3088 13.44 16.7599V18.6599C13.3822 19.1109 13.4286 19.5692 13.5755 19.9995C13.7224 20.4299 13.966 20.8208 14.2875 21.1423C14.6091 21.4639 15 21.7075 15.4304 21.8544C15.8607 22.0013 16.319 22.0477 16.77 21.9899H18.67C19.1211 22.0477 19.5793 22.0013 20.0097 21.8544C20.44 21.7075 20.8309 21.4639 21.1525 21.1423C21.474 20.8208 21.7176 20.4299 21.8645 19.9995C22.0114 19.5692 22.0578 19.1109 22 18.6599V16.7599C22.0578 16.3088 22.0114 15.8506 21.8645 15.4202C21.7176 14.9899 21.474 14.599 21.1525 14.2774C20.8309 13.9559 20.44 13.7123 20.0097 13.5654C19.5793 13.4185 19.1211 13.3721 18.67 13.4299Z" fill="#0174BE"/>
<path d="M7.24 13.4302H5.34C4.88831 13.3714 4.42914 13.4169 3.99781 13.5633C3.56647 13.7097 3.17444 13.953 2.85187 14.2746C2.5293 14.5963 2.28477 14.9875 2.13709 15.4184C1.98941 15.8493 1.94251 16.3084 2 16.7602V18.6602C1.94116 19.1119 1.98668 19.5711 2.13307 20.0024C2.27945 20.4338 2.5228 20.8258 2.84441 21.1484C3.16602 21.4709 3.55731 21.7155 3.98821 21.8631C4.41911 22.0108 4.87814 22.0577 5.33 22.0002H7.23C7.68103 22.058 8.13931 22.0117 8.56965 21.8647C8.99998 21.7178 9.39093 21.4742 9.71247 21.1527C10.034 20.8312 10.2776 20.4402 10.4245 20.0099C10.5714 19.5796 10.6178 19.1213 10.56 18.6702V16.7702C10.6208 16.3191 10.5769 15.8599 10.4319 15.4284C10.2869 14.9969 10.0445 14.6045 9.72355 14.2816C9.40261 13.9587 9.01168 13.714 8.58103 13.5664C8.15038 13.4187 7.69153 13.3722 7.24 13.4302Z" fill="#0174BE"/>
</svg>
