<svg width="24" height="24" viewBox="0 0 24 24" fill="none" xmlns="http://www.w3.org/2000/svg">
<path d="M16.19 2H7.81C4.17 2 2 4.17 2 7.81V16.18C2 19.83 4.17 22 7.81 22H16.18C19.82 22 21.99 19.83 21.99 16.19V7.81C22 4.17 19.83 2 16.19 2ZM9.11 16.9C9.11 17.0326 9.05732 17.1598 8.96355 17.2536C8.86979 17.3473 8.74261 17.4 8.61 17.4H5.82C5.68739 17.4 5.56021 17.3473 5.46645 17.2536C5.37268 17.1598 5.32 17.0326 5.32 16.9V12.28C5.31987 12.1303 5.34927 11.982 5.40651 11.8436C5.46375 11.7052 5.54772 11.5795 5.6536 11.4736C5.75949 11.3677 5.88521 11.2838 6.02359 11.2265C6.16196 11.1693 6.31026 11.1399 6.46 11.14H8.61C8.74261 11.14 8.86979 11.1927 8.96355 11.2864C9.05732 11.3802 9.11 11.5074 9.11 11.64V16.9ZM13.89 16.9C13.89 17.0326 13.8373 17.1598 13.7436 17.2536C13.6498 17.3473 13.5226 17.4 13.39 17.4H10.6C10.4674 17.4 10.3402 17.3473 10.2464 17.2536C10.1527 17.1598 10.1 17.0326 10.1 16.9V7.74C10.0999 7.59026 10.1293 7.44196 10.1865 7.30359C10.2438 7.16522 10.3277 7.03949 10.4336 6.9336C10.5395 6.82772 10.6652 6.74375 10.8036 6.68651C10.942 6.62927 11.0903 6.59987 11.24 6.6H12.76C12.9097 6.59987 13.058 6.62927 13.1964 6.68651C13.3348 6.74375 13.4605 6.82772 13.5664 6.9336C13.6723 7.03949 13.7562 7.16522 13.8135 7.30359C13.8707 7.44196 13.9001 7.59026 13.9 7.74V16.9H13.89ZM18.68 16.9C18.68 17.0326 18.6273 17.1598 18.5336 17.2536C18.4398 17.3473 18.3126 17.4 18.18 17.4H15.39C15.2574 17.4 15.1302 17.3473 15.0364 17.2536C14.9427 17.1598 14.89 17.0326 14.89 16.9V13.35C14.89 13.2174 14.9427 13.0902 15.0364 12.9964C15.1302 12.9027 15.2574 12.85 15.39 12.85H17.54C17.6897 12.8499 17.838 12.8793 17.9764 12.9365C18.1148 12.9938 18.2405 13.0777 18.3464 13.1836C18.4523 13.2895 18.5362 13.4152 18.5935 13.5536C18.6507 13.692 18.6801 13.8403 18.68 13.99V16.9Z" fill="#0174BE"/>
</svg>
