<svg width="24" height="24" viewBox="0 0 24 24" fill="none" xmlns="http://www.w3.org/2000/svg">
<g id="vuesax/outline/home-2">
<g id="home-2">
<path id="Vector" d="M17.79 22.75H6.21C4.89345 22.7479 3.63157 22.2233 2.70156 21.2914C1.77155 20.3595 1.24947 19.0966 1.25 17.78V10.373C1.28692 9.62488 1.47626 8.89218 1.80642 8.21983C2.13657 7.54748 2.60058 6.94965 3.17 6.46301L8.56 2.26001C9.4124 1.64368 10.4317 1.30036 11.4833 1.27536C12.5348 1.25037 13.5693 1.54488 14.45 2.12001L20.63 6.45001C21.2562 6.93298 21.77 7.54613 22.136 8.2471C22.5021 8.94808 22.7115 9.72016 22.75 10.51V17.79C22.7484 19.105 22.2253 20.3657 21.2955 21.2955C20.3657 22.2253 19.105 22.7484 17.79 22.75ZM9.48 3.44001L4.09 7.64001C3.30616 8.34302 2.82576 9.32282 2.75 10.373V17.783C2.75 18.7016 3.11421 19.5827 3.7628 20.2331C4.41139 20.8836 5.29143 21.2504 6.21 21.253H17.79C18.2446 21.2529 18.6947 21.1632 19.1146 20.9891C19.5345 20.815 19.9161 20.5598 20.2374 20.2382C20.5587 19.9167 20.8135 19.5349 20.9872 19.1149C21.161 18.6948 21.2503 18.2446 21.25 17.79V10.51C21.2128 9.9615 21.0621 9.42671 20.8073 8.93954C20.5525 8.45237 20.1993 8.02346 19.77 7.68001L13.59 3.35001C12.9718 2.9597 12.2524 2.76009 11.5214 2.77609C10.7905 2.7921 10.0805 3.02301 9.48 3.44001Z" fill="#707070"/>
<path id="Vector_2" d="M12 18.75C11.8015 18.7487 11.6115 18.6693 11.4711 18.5289C11.3307 18.3885 11.2513 18.1985 11.25 18V15C11.2513 14.8015 11.3307 14.6115 11.4711 14.4711C11.6115 14.3307 11.8015 14.2513 12 14.25C12.1985 14.2513 12.3885 14.3307 12.5289 14.4711C12.6693 14.6115 12.7487 14.8015 12.75 15V18C12.7487 18.1985 12.6693 18.3885 12.5289 18.5289C12.3885 18.6693 12.1985 18.7487 12 18.75Z" fill="#707070"/>
</g>
</g>
</svg>
