<svg width="24" height="24" viewBox="0 0 24 24" fill="none" xmlns="http://www.w3.org/2000/svg">
<g id="vuesax/outline/clipboard-text">
<g id="clipboard-text">
<path id="Vector" d="M15 12.95H8C7.80149 12.9487 7.61149 12.8693 7.47112 12.7289C7.33075 12.5885 7.25131 12.3985 7.25 12.2C7.25131 12.0015 7.33075 11.8115 7.47112 11.6711C7.61149 11.5308 7.80149 11.4513 8 11.45H15C15.1985 11.4513 15.3885 11.5308 15.5289 11.6711C15.6693 11.8115 15.7487 12.0015 15.75 12.2C15.7487 12.3985 15.6693 12.5885 15.5289 12.7289C15.3885 12.8693 15.1985 12.9487 15 12.95Z" fill="#707070"/>
<path id="Vector_2" d="M12.38 16.95H8C7.80149 16.9487 7.61149 16.8693 7.47112 16.7289C7.33075 16.5885 7.25131 16.3985 7.25 16.2C7.25131 16.0015 7.33075 15.8115 7.47112 15.6711C7.61149 15.5308 7.80149 15.4513 8 15.45H12.38C12.5785 15.4513 12.7685 15.5308 12.9089 15.6711C13.0493 15.8115 13.1287 16.0015 13.13 16.2C13.1287 16.3985 13.0493 16.5885 12.9089 16.7289C12.7685 16.8693 12.5785 16.9487 12.38 16.95Z" fill="#707070"/>
<path id="Vector_3" d="M14 6.75H10C9.04 6.75 7.25 6.75 7.25 4C7.25 1.25 9.04 1.25 10 1.25H14C14.96 1.25 16.75 1.25 16.75 4C16.75 4.96 16.75 6.75 14 6.75ZM10 2.75C9.01 2.75 8.75 2.75 8.75 4C8.75 5.25 9.01 5.25 10 5.25H14C15.25 5.25 15.25 4.99 15.25 4C15.25 2.75 14.99 2.75 14 2.75H10Z" fill="#707070"/>
<path id="Vector_4" d="M15 22.75H9C3.38 22.75 2.25 20.169 2.25 16V10C2.25 5.44 3.9 3.49 7.96 3.28C8.15858 3.2707 8.35283 3.34 8.50069 3.47289C8.64855 3.60578 8.73812 3.79155 8.75 3.99C8.75511 4.08795 8.74075 4.18595 8.70774 4.27831C8.67474 4.37068 8.62375 4.45559 8.55772 4.52812C8.4917 4.60066 8.41195 4.65938 8.32308 4.7009C8.23422 4.74242 8.138 4.7659 8.04 4.77C5.2 4.93 3.75 5.78 3.75 10V16C3.75 19.7 4.48 21.25 9 21.25H15C19.52 21.25 20.25 19.7 20.25 16V10C20.25 5.78 18.8 4.93 15.96 4.77C15.7616 4.75787 15.576 4.66823 15.4432 4.52042C15.3104 4.37262 15.241 4.17852 15.25 3.98C15.2619 3.78147 15.3514 3.59559 15.4992 3.46255C15.6471 3.3295 15.8413 3.25997 16.04 3.269C20.1 3.489 21.75 5.439 21.75 9.989V15.989C21.75 20.169 20.62 22.75 15 22.75Z" fill="#707070"/>
</g>
</g>
</svg>
