<svg width="24" height="24" viewBox="0 0 24 24" fill="none" xmlns="http://www.w3.org/2000/svg">
<g id="vuesax/outline/cards">
<g id="cards">
<path id="Vector" d="M19 13.36H2C1.80149 13.3587 1.61149 13.2792 1.47112 13.1389C1.33075 12.9985 1.25131 12.8085 1.25 12.61C1.25131 12.4115 1.33075 12.2215 1.47112 12.0811C1.61149 11.9407 1.80149 11.8613 2 11.86H19C19.1985 11.8613 19.3885 11.9407 19.5289 12.0811C19.6693 12.2215 19.7487 12.4115 19.75 12.61C19.7487 12.8085 19.6693 12.9985 19.5289 13.1389C19.3885 13.2792 19.1985 13.3587 19 13.36Z" fill="#707070"/>
<path id="Vector_2" d="M15.22 21.75H5.78C2.35 21.75 1.25 20.66 1.25 17.27V10.28C1.25 7.58999 1.86 5.99999 4.96 5.81999C5.22 5.80999 5.49 5.79999 5.78 5.79999H15.22C18.65 5.79999 19.75 6.88999 19.75 10.28V17.43C19.71 20.7 18.61 21.75 15.22 21.75ZM5.78 7.29999C5.51 7.29999 5.26 7.30999 5.03 7.31999C3.24 7.42999 2.75 7.80999 2.75 10.28V17.27C2.75 19.83 3.17 20.25 5.78 20.25H15.22C17.8 20.25 18.22 19.85 18.25 17.42V10.28C18.25 7.71999 17.83 7.29999 15.22 7.29999H5.78Z" fill="#707070"/>
<path id="Vector_3" d="M19.0001 18.18C18.8105 18.1824 18.6275 18.1106 18.4901 17.98C18.4146 17.9096 18.3544 17.8244 18.3132 17.7298C18.2719 17.6352 18.2504 17.5332 18.2501 17.43V10.28C18.2501 7.72 17.8301 7.3 15.2201 7.3H5.78008C5.51008 7.3 5.26008 7.31 5.03008 7.32C4.92905 7.32328 4.82838 7.3064 4.73395 7.27034C4.63951 7.23428 4.55321 7.17978 4.48008 7.11C4.40604 7.03903 4.3474 6.95356 4.30783 6.85894C4.26826 6.76431 4.2486 6.66255 4.25008 6.56C4.29008 3.3 5.39008 2.25 8.78008 2.25H18.2201C21.6501 2.25 22.7501 3.34 22.7501 6.73V13.72C22.7501 16.41 22.1401 18 19.0401 18.18H19.0001ZM5.78008 5.8H15.2201C18.6501 5.8 19.7501 6.89 19.7501 10.28V16.6C20.9101 16.39 21.2501 15.79 21.2501 13.72V6.73C21.2501 4.17 20.8301 3.75 18.2201 3.75H8.78008C6.50008 3.75 5.91008 4.06 5.78008 5.8Z" fill="#707070"/>
<path id="Vector_4" d="M6.96001 18.56H5.24001C5.0415 18.5587 4.85149 18.4792 4.71112 18.3389C4.57075 18.1985 4.49132 18.0085 4.49001 17.81C4.49132 17.6115 4.57075 17.4215 4.71112 17.2811C4.85149 17.1407 5.0415 17.0613 5.24001 17.06H6.96001C7.15892 17.06 7.34968 17.139 7.49034 17.2797C7.63099 17.4203 7.71001 17.6111 7.71001 17.81C7.71001 18.0089 7.63099 18.1997 7.49034 18.3403C7.34968 18.481 7.15892 18.56 6.96001 18.56Z" fill="#707070"/>
<path id="Vector_5" d="M12.55 18.56H9.11C8.91149 18.5587 8.72149 18.4792 8.58112 18.3389C8.44075 18.1985 8.36131 18.0085 8.36 17.81C8.36131 17.6115 8.44075 17.4215 8.58112 17.2811C8.72149 17.1407 8.91149 17.0613 9.11 17.06H12.55C12.7489 17.06 12.9397 17.139 13.0803 17.2797C13.221 17.4203 13.3 17.6111 13.3 17.81C13.3 18.0089 13.221 18.1997 13.0803 18.3403C12.9397 18.481 12.7489 18.56 12.55 18.56Z" fill="#707070"/>
</g>
</g>
</svg>
