<svg width="24" height="24" viewBox="0 0 24 24" fill="none" xmlns="http://www.w3.org/2000/svg">
<g id="vuesax/bold/cards">
<g id="cards">
<path id="Vector" d="M15.22 6.54999H5.78C5.5 6.54999 5.24 6.55999 5 6.56999C2.63 6.70999 2 7.57999 2 10.28V10.86C2 11.1252 2.10536 11.3796 2.29289 11.5671C2.48043 11.7546 2.73478 11.86 3 11.86H18C18.2652 11.86 18.5196 11.7546 18.7071 11.5671C18.8946 11.3796 19 11.1252 19 10.86V10.28C19 7.29999 18.24 6.54999 15.22 6.54999Z" fill="#0174BE"/>
<path id="Vector_2" d="M3 13.36C2.73478 13.36 2.48043 13.4653 2.29289 13.6529C2.10536 13.8404 2 14.0948 2 14.36V17.27C2 20.25 2.76 21 5.78 21H15.22C18.19 21 18.97 20.28 19 17.43V14.36C19 14.0948 18.8946 13.8404 18.7071 13.6529C18.5196 13.4653 18.2652 13.36 18 13.36H3ZM6.96 18.56H5.25C5.05109 18.56 4.86032 18.481 4.71967 18.3403C4.57902 18.1997 4.5 18.0089 4.5 17.81C4.5 17.6111 4.57902 17.4203 4.71967 17.2797C4.86032 17.139 5.05109 17.06 5.25 17.06H6.97C7.06849 17.0606 7.16589 17.0807 7.25663 17.119C7.34737 17.1573 7.42969 17.2131 7.49887 17.2832C7.56805 17.3533 7.62274 17.4363 7.65982 17.5276C7.69691 17.6188 7.71566 17.7165 7.715 17.815C7.71434 17.9135 7.69429 18.0109 7.656 18.1016C7.6177 18.1924 7.5619 18.2747 7.49179 18.3439C7.42169 18.413 7.33864 18.4677 7.24739 18.5048C7.15615 18.5419 7.05849 18.5606 6.96 18.56ZM12.55 18.56H9.11C8.91109 18.56 8.72032 18.481 8.57967 18.3403C8.43902 18.1997 8.36 18.0089 8.36 17.81C8.36 17.6111 8.43902 17.4203 8.57967 17.2797C8.72032 17.139 8.91109 17.06 9.11 17.06H12.55C12.7489 17.06 12.9397 17.139 13.0803 17.2797C13.221 17.4203 13.3 17.6111 13.3 17.81C13.3 18.0089 13.221 18.1997 13.0803 18.3403C12.9397 18.481 12.7489 18.56 12.55 18.56Z" fill="#0174BE"/>
<path id="Vector_3" d="M22 13.33V8.09001C22 4.96001 20.21 3.60001 17.51 3.60001H8.57999C7.88489 3.58728 7.19338 3.70253 6.53999 3.94001C6.08144 4.09995 5.66216 4.35561 5.30999 4.69001C5.27172 4.72928 5.24652 4.77943 5.23785 4.83357C5.22917 4.88771 5.23744 4.94322 5.26153 4.99248C5.28561 5.04174 5.32433 5.08236 5.37239 5.10877C5.42045 5.13518 5.47549 5.14609 5.52999 5.14001H16.4C16.9346 5.13962 17.464 5.24462 17.958 5.44902C18.4519 5.65341 18.9008 5.95319 19.2788 6.33121C19.6568 6.70922 19.9566 7.15805 20.161 7.65202C20.3654 8.146 20.4704 8.67542 20.47 9.21001V16.38C20.4651 16.4341 20.477 16.4883 20.5041 16.5354C20.5312 16.5824 20.5721 16.62 20.6213 16.643C20.6705 16.6659 20.7255 16.6731 20.779 16.6637C20.8324 16.6542 20.8817 16.6285 20.92 16.59C21.6905 15.6853 22.0779 14.5158 22 13.33Z" fill="#0174BE"/>
</g>
</g>
</svg>
