<svg width="24" height="24" viewBox="0 0 24 24" fill="none" xmlns="http://www.w3.org/2000/svg">
<g id="vuesax/outline/chart-square">
<g id="chart-square">
<path id="Vector" d="M10.11 18.15H6.32001C6.1215 18.1487 5.93149 18.0693 5.79113 17.9289C5.65076 17.7885 5.57132 17.5985 5.57001 17.4V12.28C5.57263 11.7796 5.7726 11.3004 6.12648 10.9465C6.48035 10.5926 6.95956 10.3926 7.46001 10.39H10.11C10.3085 10.3913 10.4985 10.4708 10.6389 10.6111C10.7793 10.7515 10.8587 10.9415 10.86 11.14V17.39C10.8605 17.59 10.782 17.7821 10.6415 17.9245C10.5011 18.0668 10.31 18.1479 10.11 18.15ZM7.07001 16.65H9.36001V11.9H7.46001C7.35657 11.9 7.25737 11.9411 7.18424 12.0142C7.1111 12.0874 7.07001 12.1866 7.07001 12.29V16.65Z" fill="#707070"/>
<path id="Vector_2" d="M13.89 18.15H10.1C9.90147 18.1487 9.71146 18.0693 9.57109 17.9289C9.43072 17.7885 9.35129 17.5985 9.34998 17.4V7.74001C9.3526 7.23956 9.55257 6.76035 9.90645 6.40648C10.2603 6.0526 10.7395 5.85263 11.24 5.85001L12.76 5.85001C13.2604 5.85263 13.7396 6.0526 14.0935 6.40648C14.4474 6.76035 14.6473 7.23956 14.65 7.74001V17.4C14.6463 17.5995 14.5648 17.7897 14.4227 17.9298C14.2807 18.07 14.0895 18.149 13.89 18.15ZM10.86 16.65H13.15V7.74001C13.15 7.63657 13.1089 7.53737 13.0357 7.46423C12.9626 7.3911 12.8634 7.35001 12.76 7.35001H11.24C11.1365 7.35001 11.0373 7.3911 10.9642 7.46423C10.8911 7.53737 10.85 7.63657 10.85 7.74001V16.65H10.86Z" fill="#707070"/>
<path id="Vector_3" d="M17.68 18.15H13.89C13.6915 18.1487 13.5015 18.0693 13.3611 17.9289C13.2208 17.7885 13.1413 17.5985 13.14 17.4V12.85C13.1413 12.6515 13.2208 12.4615 13.3611 12.3211C13.5015 12.1808 13.6915 12.1013 13.89 12.1H16.54C17.0405 12.1026 17.5197 12.3026 17.8735 12.6565C18.2274 13.0104 18.4274 13.4896 18.43 13.99V17.4C18.4301 17.4985 18.4108 17.5961 18.3732 17.6872C18.3355 17.7782 18.2803 17.861 18.2106 17.9306C18.141 18.0003 18.0582 18.0555 17.9672 18.0932C17.8761 18.1308 17.7785 18.1501 17.68 18.15ZM14.64 16.65H16.93V13.99C16.93 13.8866 16.8889 13.7874 16.8158 13.7142C16.7426 13.6411 16.6434 13.6 16.54 13.6H14.64V16.65Z" fill="#707070"/>
<path id="Vector_4" d="M15 22.75H9C3.57 22.75 1.25 20.43 1.25 15V9C1.25 3.57 3.57 1.25 9 1.25H15C20.43 1.25 22.75 3.57 22.75 9V15C22.75 20.43 20.43 22.75 15 22.75ZM9 2.75C4.39 2.75 2.75 4.39 2.75 9V15C2.75 19.61 4.39 21.25 9 21.25H15C19.61 21.25 21.25 19.61 21.25 15V9C21.25 4.39 19.61 2.75 15 2.75H9Z" fill="#707070"/>
</g>
</g>
</svg>
