<svg width="24" height="24" viewBox="0 0 24 24" fill="none" xmlns="http://www.w3.org/2000/svg">
<g id="vuesax/outline/category">
<g id="category">
<path id="Vector" d="M7 10.75H5C4.49326 10.8091 3.97971 10.7528 3.49784 10.5852C3.01596 10.4177 2.57825 10.1433 2.2175 9.78251C1.85675 9.42176 1.58232 8.98405 1.41477 8.50217C1.24721 8.0203 1.19089 7.50675 1.25 7.00001V5.00001C1.19089 4.49327 1.24721 3.97972 1.41477 3.49784C1.58232 3.01597 1.85675 2.57826 2.2175 2.21751C2.57825 1.85676 3.01596 1.58233 3.49784 1.41477C3.97971 1.24722 4.49326 1.19089 5 1.25001H7C7.50674 1.19089 8.02029 1.24722 8.50217 1.41477C8.98404 1.58233 9.42176 1.85676 9.78251 2.21751C10.1433 2.57826 10.4177 3.01597 10.5852 3.49784C10.7528 3.97972 10.8091 4.49327 10.75 5.00001V7.00001C10.8091 7.50675 10.7528 8.0203 10.5852 8.50217C10.4177 8.98405 10.1433 9.42176 9.78251 9.78251C9.42176 10.1433 8.98404 10.4177 8.50217 10.5852C8.02029 10.7528 7.50674 10.8091 7 10.75ZM5 2.75001C3.42 2.75001 2.75 3.42001 2.75 5.00001V7.00001C2.75 8.58001 3.42 9.25001 5 9.25001H7C8.58 9.25001 9.25 8.58001 9.25 7.00001V5.00001C9.25 3.42001 8.58 2.75001 7 2.75001H5Z" fill="#707070"/>
<path id="Vector_2" d="M19 10.75H17C16.4933 10.8091 15.9797 10.7528 15.4978 10.5852C15.016 10.4177 14.5782 10.1433 14.2175 9.78251C13.8567 9.42176 13.5823 8.98405 13.4148 8.50217C13.2472 8.0203 13.1909 7.50675 13.25 7.00001V5.00001C13.1909 4.49327 13.2472 3.97972 13.4148 3.49784C13.5823 3.01597 13.8567 2.57826 14.2175 2.21751C14.5782 1.85676 15.016 1.58233 15.4978 1.41477C15.9797 1.24722 16.4933 1.19089 17 1.25001H19C19.5067 1.19089 20.0203 1.24722 20.5022 1.41477C20.984 1.58233 21.4218 1.85676 21.7825 2.21751C22.1433 2.57826 22.4177 3.01597 22.5852 3.49784C22.7528 3.97972 22.8091 4.49327 22.75 5.00001V7.00001C22.8091 7.50675 22.7528 8.0203 22.5852 8.50217C22.4177 8.98405 22.1433 9.42176 21.7825 9.78251C21.4218 10.1433 20.984 10.4177 20.5022 10.5852C20.0203 10.7528 19.5067 10.8091 19 10.75ZM17 2.75001C15.42 2.75001 14.75 3.42001 14.75 5.00001V7.00001C14.75 8.58001 15.42 9.25001 17 9.25001H19C20.58 9.25001 21.25 8.58001 21.25 7.00001V5.00001C21.25 3.42001 20.58 2.75001 19 2.75001H17Z" fill="#707070"/>
<path id="Vector_3" d="M19 22.75H17C16.4933 22.8091 15.9797 22.7528 15.4978 22.5852C15.016 22.4177 14.5782 22.1433 14.2175 21.7825C13.8567 21.4218 13.5823 20.9841 13.4148 20.5022C13.2472 20.0203 13.1909 19.5067 13.25 19V17C13.1909 16.4933 13.2472 15.9797 13.4148 15.4978C13.5823 15.016 13.8567 14.5783 14.2175 14.2175C14.5782 13.8568 15.016 13.5823 15.4978 13.4148C15.9797 13.2472 16.4933 13.1909 17 13.25H19C19.5067 13.1909 20.0203 13.2472 20.5022 13.4148C20.984 13.5823 21.4218 13.8568 21.7825 14.2175C22.1433 14.5783 22.4177 15.016 22.5852 15.4978C22.7528 15.9797 22.8091 16.4933 22.75 17V19C22.8091 19.5067 22.7528 20.0203 22.5852 20.5022C22.4177 20.9841 22.1433 21.4218 21.7825 21.7825C21.4218 22.1433 20.984 22.4177 20.5022 22.5852C20.0203 22.7528 19.5067 22.8091 19 22.75ZM17 14.75C15.42 14.75 14.75 15.42 14.75 17V19C14.75 20.58 15.42 21.25 17 21.25H19C20.58 21.25 21.25 20.58 21.25 19V17C21.25 15.42 20.58 14.75 19 14.75H17Z" fill="#707070"/>
<path id="Vector_4" d="M7 22.75H5C4.49326 22.8091 3.97971 22.7528 3.49784 22.5852C3.01596 22.4177 2.57825 22.1433 2.2175 21.7825C1.85675 21.4218 1.58232 20.9841 1.41477 20.5022C1.24721 20.0203 1.19089 19.5067 1.25 19V17C1.19089 16.4933 1.24721 15.9797 1.41477 15.4978C1.58232 15.016 1.85675 14.5783 2.2175 14.2175C2.57825 13.8568 3.01596 13.5823 3.49784 13.4148C3.97971 13.2472 4.49326 13.1909 5 13.25H7C7.50674 13.1909 8.02029 13.2472 8.50217 13.4148C8.98404 13.5823 9.42176 13.8568 9.78251 14.2175C10.1433 14.5783 10.4177 15.016 10.5852 15.4978C10.7528 15.9797 10.8091 16.4933 10.75 17V19C10.8091 19.5067 10.7528 20.0203 10.5852 20.5022C10.4177 20.9841 10.1433 21.4218 9.78251 21.7825C9.42176 22.1433 8.98404 22.4177 8.50217 22.5852C8.02029 22.7528 7.50674 22.8091 7 22.75ZM5 14.75C3.42 14.75 2.75 15.42 2.75 17V19C2.75 20.58 3.42 21.25 5 21.25H7C8.58 21.25 9.25 20.58 9.25 19V17C9.25 15.42 8.58 14.75 7 14.75H5Z" fill="#707070"/>
</g>
</g>
</svg>
