<?xml version="1.0" encoding="UTF-8"?>
<svg xmlns="http://www.w3.org/2000/svg" xmlns:xlink="http://www.w3.org/1999/xlink" width="16px" height="16px" viewBox="0 0 16 16" version="1.1">
<g id="surface1">
<path style=" stroke:none;fill-rule:nonzero;fill:rgb(25.882353%,52.156863%,95.686275%);fill-opacity:1;" d="M 15.808594 8.148438 C 15.808594 7.496094 15.757812 7.015625 15.640625 6.519531 L 8.15625 6.519531 L 8.15625 9.476562 L 12.550781 9.476562 C 12.460938 10.214844 11.984375 11.320312 10.917969 12.066406 L 10.90625 12.164062 L 13.269531 13.996094 L 13.433594 14.015625 C 14.941406 12.625 15.808594 10.578125 15.808594 8.148438 "/>
<path style=" stroke:none;fill-rule:nonzero;fill:rgb(20.392157%,65.882353%,32.54902%);fill-opacity:1;" d="M 8.15625 15.945312 C 10.308594 15.945312 12.117188 15.238281 13.433594 14.015625 L 10.917969 12.066406 C 10.246094 12.535156 9.34375 12.863281 8.15625 12.863281 C 6.046875 12.863281 4.257812 11.472656 3.621094 9.550781 L 3.527344 9.558594 L 1.066406 11.460938 L 1.035156 11.550781 C 2.34375 14.15625 5.039062 15.945312 8.15625 15.945312 "/>
<path style=" stroke:none;fill-rule:nonzero;fill:rgb(98.431373%,73.72549%,1.960784%);fill-opacity:1;" d="M 3.621094 9.550781 C 3.453125 9.054688 3.355469 8.523438 3.355469 7.972656 C 3.355469 7.421875 3.453125 6.890625 3.613281 6.394531 L 3.605469 6.289062 L 1.113281 4.355469 L 1.035156 4.394531 C 0.492188 5.472656 0.183594 6.6875 0.183594 7.972656 C 0.183594 9.257812 0.492188 10.46875 1.035156 11.550781 L 3.621094 9.550781 "/>
<path style=" stroke:none;fill-rule:nonzero;fill:rgb(92.156863%,26.27451%,20.784314%);fill-opacity:1;" d="M 8.15625 3.082031 C 9.652344 3.082031 10.664062 3.730469 11.238281 4.269531 L 13.488281 2.074219 C 12.105469 0.789062 10.308594 0 8.15625 0 C 5.039062 0 2.34375 1.789062 1.035156 4.394531 L 3.613281 6.394531 C 4.257812 4.472656 6.046875 3.082031 8.15625 3.082031 "/>
</g>
</svg>
