<svg width="24" height="24" viewBox="0 0 24 24" fill="none" xmlns="http://www.w3.org/2000/svg">
<path d="M12 22.75C9.87386 22.75 7.79545 22.1195 6.02762 20.9383C4.2598 19.7571 2.88194 18.0782 2.0683 16.1139C1.25466 14.1495 1.04177 11.9881 1.45656 9.90278C1.87135 7.81749 2.89519 5.90202 4.39861 4.39861C5.90202 2.89519 7.81749 1.87135 9.90278 1.45656C11.9881 1.04177 14.1495 1.25466 16.1139 2.0683C18.0782 2.88194 19.7571 4.2598 20.9383 6.02762C22.1195 7.79545 22.75 9.87386 22.75 12C22.7476 14.8504 21.6143 17.5833 19.5988 19.5988C17.5833 21.6143 14.8504 22.7476 12 22.75ZM12 2.75C10.1705 2.75 8.38213 3.29251 6.86098 4.30891C5.33983 5.32531 4.15423 6.76997 3.45412 8.46018C2.75401 10.1504 2.57083 12.0103 2.92774 13.8046C3.28465 15.5989 4.16563 17.2471 5.45927 18.5407C6.7529 19.8344 8.40109 20.7154 10.1954 21.0723C11.9897 21.4292 13.8496 21.246 15.5398 20.5459C17.23 19.8458 18.6747 18.6602 19.6911 17.139C20.7075 15.6179 21.25 13.8295 21.25 12C21.2471 9.54765 20.2716 7.19656 18.5375 5.46248C16.8034 3.7284 14.4524 2.75292 12 2.75Z" fill="#707070"/>
<path d="M12 13.75C11.8015 13.7487 11.6115 13.6693 11.4711 13.5289C11.3307 13.3885 11.2513 13.1985 11.25 13V8C11.2513 7.80149 11.3307 7.61149 11.4711 7.47112C11.6115 7.33075 11.8015 7.25131 12 7.25C12.1985 7.25131 12.3885 7.33075 12.5289 7.47112C12.6693 7.61149 12.7487 7.80149 12.75 8V13C12.7487 13.1985 12.6693 13.3885 12.5289 13.5289C12.3885 13.6693 12.1985 13.7487 12 13.75Z" fill="#707070"/>
<path d="M12 17.0049C11.8693 17.0033 11.7402 16.9761 11.62 16.9249C11.4981 16.8711 11.3865 16.7967 11.29 16.7049C11.1996 16.6093 11.1283 16.4973 11.08 16.3749C11.03 16.2578 11.0029 16.1322 11 16.0049C11.0009 15.8725 11.0281 15.7417 11.08 15.6199C11.1307 15.4988 11.2017 15.3872 11.29 15.2899C11.3873 15.2016 11.4989 15.1306 11.62 15.0799C11.8635 14.9799 12.1365 14.9799 12.38 15.0799C12.5011 15.1306 12.6127 15.2016 12.71 15.2899C12.7983 15.3872 12.8693 15.4988 12.92 15.6199C12.9719 15.7417 12.9991 15.8725 13 16.0049C12.9984 16.1356 12.9712 16.2647 12.92 16.3849C12.8717 16.5073 12.8004 16.6193 12.71 16.7149C12.6127 16.8031 12.5011 16.8742 12.38 16.9249C12.2598 16.9761 12.1307 17.0033 12 17.0049Z" fill="#707070"/>
</svg>
