<svg width="24" height="24" viewBox="0 0 24 24" fill="none" xmlns="http://www.w3.org/2000/svg">
<path d="M12 12.25C11.5537 12.2485 11.1145 12.1387 10.72 11.93L4.21 8.42104C3.91902 8.25491 3.67715 8.01477 3.50892 7.725C3.34068 7.43522 3.25208 7.10611 3.25208 6.77104C3.25208 6.43597 3.34068 6.10686 3.50892 5.81709C3.67715 5.52731 3.91902 5.28718 4.21 5.12104L10.72 1.61004C11.1117 1.39841 11.5498 1.2876 11.995 1.2876C12.4402 1.2876 12.8784 1.39841 13.27 1.61004L19.78 5.12004C20.071 5.28618 20.3129 5.52631 20.4811 5.81609C20.6493 6.10586 20.7379 6.43497 20.7379 6.77004C20.7379 7.10511 20.6493 7.43422 20.4811 7.724C20.3129 8.01377 20.071 8.25391 19.78 8.42004L13.27 11.93C12.8813 12.1443 12.4438 12.2545 12 12.25ZM12 2.78004C11.8004 2.78124 11.6043 2.83283 11.43 2.93004L4.93 6.43004C4.87201 6.46509 4.82464 6.51524 4.79294 6.57512C4.76123 6.63501 4.74639 6.70238 4.75 6.77004C4.74575 6.83644 4.76041 6.90268 4.79226 6.96108C4.82412 7.01949 4.87188 7.06767 4.93 7.10004L11.44 10.61C11.6136 10.7036 11.8078 10.7526 12.005 10.7526C12.2022 10.7526 12.3964 10.7036 12.57 10.61L19.08 7.10004C19.1351 7.06439 19.1805 7.01552 19.2119 6.95789C19.2433 6.90026 19.2599 6.83569 19.26 6.77004C19.2643 6.70365 19.2496 6.63741 19.2177 6.579C19.1859 6.5206 19.1381 6.47242 19.08 6.44004L12.57 2.93104C12.3958 2.83349 12.1997 2.78154 12 2.78004Z" fill="#707070"/>
<path d="M9.78 22.72C9.49165 22.718 9.20765 22.6495 8.95 22.52L2.89 19.5C2.39639 19.2529 1.98143 18.8731 1.69173 18.4032C1.40203 17.9334 1.24906 17.392 1.25 16.84V11.12C1.25029 10.8034 1.33154 10.4921 1.48602 10.2157C1.6405 9.9393 1.86309 9.707 2.13264 9.54087C2.40219 9.37473 2.70974 9.28027 3.02607 9.26647C3.34241 9.25267 3.65701 9.31999 3.94 9.46202L10 12.482C10.4944 12.7281 10.9101 13.1077 11.1999 13.5778C11.4898 14.0479 11.6422 14.5898 11.64 15.142V20.862C11.6413 21.1788 11.561 21.4905 11.4069 21.7672C11.2528 22.044 11.03 22.2764 10.76 22.442C10.4664 22.6259 10.1264 22.7223 9.78 22.72ZM3.11 10.762C3.04368 10.7639 2.97868 10.7811 2.92 10.812C2.86726 10.8446 2.82386 10.8902 2.79407 10.9446C2.76427 10.9989 2.74908 11.0601 2.75 11.122V16.842C2.74868 17.1157 2.82381 17.3842 2.96693 17.6174C3.11004 17.8507 3.31545 18.0393 3.56 18.162L9.61 21.192C9.66463 21.2194 9.72519 21.2328 9.78626 21.231C9.84734 21.2293 9.90703 21.2125 9.96 21.182C10.0127 21.1495 10.0561 21.1038 10.0859 21.0495C10.1157 20.9951 10.1309 20.934 10.13 20.872V15.15C10.1313 14.8764 10.0562 14.6078 9.91308 14.3746C9.76997 14.1414 9.56456 13.9528 9.32 13.83L3.27 10.8C3.22054 10.7746 3.16563 10.7615 3.11 10.762Z" fill="#707070"/>
<path d="M14.22 22.72C13.8734 22.7217 13.5334 22.6246 13.24 22.44C12.97 22.2743 12.7473 22.042 12.5931 21.7652C12.439 21.4885 12.3587 21.1768 12.36 20.86V15.14C12.3591 14.588 12.512 14.0467 12.8017 13.5768C13.0914 13.1069 13.5064 12.7271 14 12.48L20.05 9.45201C20.3331 9.3099 20.6479 9.24259 20.9644 9.25649C21.2809 9.27038 21.5886 9.36501 21.8582 9.53138C22.1278 9.69775 22.3504 9.93033 22.5047 10.207C22.6591 10.4837 22.7401 10.7952 22.74 11.112V16.832C22.7409 17.384 22.588 17.9254 22.2983 18.3952C22.0086 18.8651 21.5936 19.2449 21.1 19.492L15.05 22.522C14.7939 22.6554 14.5088 22.7234 14.22 22.72ZM20.89 10.76C20.8342 10.7601 20.7793 10.7739 20.73 10.8L14.68 13.83C14.4343 13.9519 14.228 14.1406 14.0847 14.3744C13.9414 14.6083 13.867 14.8778 13.87 15.152V20.872C13.8691 20.934 13.8843 20.9951 13.9141 21.0495C13.9439 21.1038 13.9873 21.1495 14.04 21.182C14.0921 21.215 14.152 21.2333 14.2136 21.235C14.2752 21.2368 14.3361 21.2219 14.39 21.192L20.44 18.162C20.6846 18.0393 20.89 17.8506 21.0331 17.6174C21.1762 17.3842 21.2513 17.1156 21.25 16.842V11.12C21.2509 11.058 21.2357 10.9969 21.2059 10.9426C21.1761 10.8882 21.1327 10.8426 21.08 10.81C21.0213 10.779 20.9563 10.7619 20.89 10.76Z" fill="#707070"/>
</svg>
