<svg width="24" height="24" viewBox="0 0 24 24" fill="none" xmlns="http://www.w3.org/2000/svg">
<path d="M18 10.75C17.8015 10.7487 17.6115 10.6693 17.4711 10.5289C17.3307 10.3885 17.2513 10.1985 17.25 10V8C17.25 4.85 16.36 2.75 12 2.75C7.64 2.75 6.75 4.85 6.75 8V10C6.74869 10.1985 6.66925 10.3885 6.52888 10.5289C6.38851 10.6693 6.19851 10.7487 6 10.75C5.80149 10.7487 5.61149 10.6693 5.47112 10.5289C5.33075 10.3885 5.25131 10.1985 5.25 10V8C5.25 5.1 5.95 1.25 12 1.25C18.05 1.25 18.75 5.1 18.75 8V10C18.7487 10.1985 18.6693 10.3885 18.5289 10.5289C18.3885 10.6693 18.1985 10.7487 18 10.75Z" fill="#707070"/>
<path d="M17 22.75H7C2.59 22.75 1.25 21.41 1.25 17V15C1.25 10.59 2.59 9.25 7 9.25H17C21.41 9.25 22.75 10.59 22.75 15V17C22.75 21.41 21.41 22.75 17 22.75ZM7 10.75C3.42 10.75 2.75 11.43 2.75 15V17C2.75 20.57 3.42 21.25 7 21.25H17C20.58 21.25 21.25 20.57 21.25 17V15C21.25 11.43 20.58 10.75 17 10.75H7Z" fill="#707070"/>
<path d="M8 17.0009C7.86932 16.9993 7.74022 16.9721 7.62 16.9209C7.49762 16.8726 7.38561 16.8013 7.29 16.7109C7.1058 16.5202 7.00197 16.266 7 16.0009C7.00145 15.8699 7.02863 15.7404 7.08 15.6199C7.12832 15.4975 7.1996 15.3855 7.29 15.2899C7.38561 15.1995 7.49762 15.1282 7.62 15.0799C7.80211 15.0033 8.00282 14.9824 8.19681 15.0198C8.3908 15.0571 8.56938 15.1511 8.71 15.2899C8.79825 15.3872 8.86927 15.4988 8.92 15.6199C8.97137 15.7404 8.99855 15.8699 9 16.0009C8.99612 16.2656 8.89257 16.5192 8.71 16.7109C8.51826 16.8935 8.26473 16.997 8 17.0009Z" fill="#707070"/>
<path d="M12 16.999C11.7353 16.9951 11.4817 16.8915 11.29 16.709C11.1058 16.5183 11.002 16.2641 11 15.999C10.9967 15.8681 11.0241 15.7383 11.08 15.62C11.1307 15.4988 11.2017 15.3872 11.29 15.29C11.4064 15.1747 11.5494 15.0897 11.7063 15.0427C11.8632 14.9956 12.0293 14.9878 12.19 15.02C12.2562 15.0292 12.3205 15.0495 12.38 15.08C12.4437 15.1018 12.5043 15.1321 12.56 15.17C12.6124 15.2069 12.6625 15.2469 12.71 15.29C12.7983 15.3872 12.8693 15.4988 12.92 15.62C12.9711 15.7399 12.9983 15.8686 13 15.999C12.998 16.2641 12.8942 16.5183 12.71 16.709L12.56 16.829C12.5043 16.8668 12.4437 16.8971 12.38 16.919C12.3205 16.9494 12.2562 16.9697 12.19 16.979C12.1273 16.9906 12.0638 16.9972 12 16.999Z" fill="#707070"/>
<path d="M16 16.9991C15.7349 16.9971 15.4807 16.8933 15.29 16.7091C15.2017 16.6118 15.1307 16.5002 15.08 16.3791C15.0288 16.2589 15.0016 16.1298 15 15.9991C15.0041 15.7347 15.1077 15.4816 15.29 15.2901L15.44 15.1701C15.4957 15.1322 15.5563 15.1019 15.62 15.0801C15.6767 15.0512 15.7373 15.031 15.8 15.0201C15.9622 14.9878 16.1298 14.9955 16.2884 15.0425C16.447 15.0896 16.5917 15.1746 16.71 15.2901C16.894 15.4805 16.9978 15.7343 17 15.9991C16.9984 16.1298 16.9712 16.2589 16.92 16.3791C16.8717 16.5015 16.8004 16.6135 16.71 16.7091C16.5183 16.8917 16.2647 16.9952 16 16.9991Z" fill="#707070"/>
</svg>
