<svg width="24" height="24" viewBox="0 0 24 24" fill="none" xmlns="http://www.w3.org/2000/svg">
<path d="M14.89 18.2198H6.10001C5.61262 18.2235 5.12631 18.1732 4.65001 18.0698C4.37601 18.0263 4.10769 17.9525 3.85001 17.8498C2.52001 17.3498 0.950012 16.1198 0.950012 13.0598V7.90977C0.950012 4.63977 2.83001 2.75977 6.10001 2.75977H14.89C17.65 2.75977 19.43 4.07977 19.91 6.47977C20.0016 6.95081 20.0451 7.42993 20.04 7.90977V13.0598C20.04 16.3498 18.17 18.2198 14.89 18.2198ZM6.11001 4.27977C3.65001 4.27977 2.46001 5.46977 2.46001 7.92977V13.0798C2.46001 14.8698 3.09001 15.9698 4.38001 16.4598C4.56538 16.5259 4.75608 16.5761 4.95001 16.6098C5.33133 16.6908 5.72019 16.731 6.11001 16.7298H14.9C17.36 16.7298 18.55 15.5398 18.55 13.0798V7.92977C18.5551 7.55068 18.5216 7.17206 18.45 6.79977C18.11 5.09977 16.95 4.27977 14.9 4.27977H6.11001Z" fill="#707070"/>
<path d="M17.89 21.22H9.09997C8.33036 21.2358 7.56438 21.1104 6.83997 20.85C6.12067 20.5863 5.48523 20.1346 4.99981 19.5419C4.51439 18.9492 4.19675 18.2372 4.07997 17.48C4.05491 17.3581 4.06101 17.2319 4.09772 17.1131C4.13443 16.9942 4.20056 16.8865 4.28997 16.8C4.379 16.7118 4.48924 16.6479 4.61009 16.6146C4.73094 16.5814 4.85833 16.5798 4.97997 16.61C5.34843 16.6857 5.72382 16.7226 6.09997 16.72H14.89C17.35 16.72 18.54 15.53 18.54 13.07V7.92C18.5451 7.54092 18.5116 7.1623 18.44 6.79C18.4163 6.66892 18.4221 6.54393 18.457 6.42558C18.4918 6.30723 18.5545 6.19899 18.64 6.11C18.7263 6.0206 18.8343 5.95516 18.9535 5.9201C19.0727 5.88503 19.199 5.88155 19.32 5.91C21.72 6.4 23.04 8.18 23.04 10.92V16.07C23.04 19.35 21.165 21.22 17.89 21.22ZM5.91997 18.22C6.23502 18.7987 6.75618 19.2378 7.37997 19.45C7.93601 19.6421 8.52184 19.7335 9.10997 19.72H17.9C20.36 19.72 21.55 18.53 21.55 16.07V10.92C21.55 9.34 21.06 8.29 20.05 7.74V13.07C20.05 16.34 18.17 18.22 14.9 18.22H5.91997Z" fill="#707070"/>
<path d="M10.5 13.89C9.82951 13.89 9.17409 13.6912 8.6166 13.3187C8.05912 12.9462 7.62462 12.4167 7.36804 11.7973C7.11145 11.1778 7.04432 10.4962 7.17512 9.83863C7.30593 9.18104 7.62879 8.57699 8.10289 8.10289C8.57699 7.62879 9.18104 7.30593 9.83863 7.17512C10.4962 7.04432 11.1778 7.11145 11.7973 7.36804C12.4167 7.62462 12.9462 8.05912 13.3187 8.6166C13.6912 9.17409 13.89 9.82951 13.89 10.5C13.8892 11.3988 13.5318 12.2606 12.8962 12.8962C12.2606 13.5318 11.3988 13.8892 10.5 13.89ZM10.5 8.60999C10.1262 8.60999 9.76077 8.72083 9.44996 8.92851C9.13915 9.13619 8.8969 9.43136 8.75385 9.77672C8.61081 10.1221 8.57338 10.5021 8.6463 10.8687C8.71923 11.2353 8.89923 11.5721 9.16355 11.8364C9.42788 12.1007 9.76464 12.2807 10.1313 12.3537C10.4979 12.4266 10.8779 12.3892 11.2233 12.2461C11.5686 12.1031 11.8638 11.8608 12.0715 11.55C12.2791 11.2392 12.39 10.8738 12.39 10.5C12.3887 9.99913 12.1891 9.51917 11.835 9.16501C11.4808 8.81085 11.0008 8.61131 10.5 8.60999Z" fill="#707070"/>
<path d="M4.78003 13.45C4.58152 13.4487 4.39152 13.3692 4.25115 13.2289C4.11078 13.0885 4.03134 12.8985 4.03003 12.7V8.29999C4.03134 8.10148 4.11078 7.91147 4.25115 7.77111C4.39152 7.63074 4.58152 7.5513 4.78003 7.54999C4.97854 7.5513 5.16854 7.63074 5.30891 7.77111C5.44928 7.91147 5.52872 8.10148 5.53003 8.29999V12.7C5.53016 12.7985 5.51085 12.8961 5.47321 12.9872C5.43556 13.0782 5.38032 13.1609 5.31065 13.2306C5.24098 13.3003 5.15825 13.3555 5.0672 13.3932C4.97614 13.4308 4.87856 13.4501 4.78003 13.45Z" fill="#707070"/>
<path d="M16.21 13.45C16.0115 13.4487 15.8215 13.3692 15.6811 13.2289C15.5408 13.0885 15.4613 12.8985 15.46 12.7V8.29999C15.4613 8.10148 15.5408 7.91147 15.6811 7.77111C15.8215 7.63074 16.0115 7.5513 16.21 7.54999C16.4085 7.5513 16.5985 7.63074 16.7389 7.77111C16.8793 7.91147 16.9587 8.10148 16.96 8.29999V12.7C16.9602 12.7985 16.9408 12.8961 16.9032 12.9872C16.8656 13.0782 16.8103 13.1609 16.7406 13.2306C16.671 13.3003 16.5882 13.3555 16.4972 13.3932C16.4061 13.4308 16.3086 13.4501 16.21 13.45Z" fill="#707070"/>
</svg>
