<svg width="24" height="24" viewBox="0 0 24 24" fill="none" xmlns="http://www.w3.org/2000/svg">
<path d="M12.46 22.5074C12.29 22.5074 12.12 22.5074 11.95 22.4975C9.23245 22.3662 6.6548 21.2661 4.69342 19.4004C2.73204 17.5347 1.51954 15.0296 1.28 12.3481C1.12025 10.062 1.68957 7.78387 2.90772 5.83486C4.12588 3.88584 5.93145 2.36416 8.07 1.48426C9.32 0.969766 9.98 1.36553 10.26 1.65246C10.5098 1.93957 10.6593 2.29875 10.6864 2.67665C10.7134 3.05455 10.6165 3.43099 10.41 3.75003C9.95051 4.79535 9.71881 5.92474 9.73 7.06458C9.77816 9.21555 10.6511 11.2679 12.1719 12.8057C13.6927 14.3435 15.7476 15.2516 17.92 15.346C18.5595 15.3732 19.2001 15.3301 19.83 15.2174C21.15 14.9799 21.7 15.5043 21.91 15.8407C22.12 16.1771 22.36 16.8994 21.56 17.968C20.5123 19.3809 19.1418 20.5287 17.5603 21.3176C15.9788 22.1065 14.2311 22.5142 12.46 22.5074ZM2.77 12.2373C2.94712 14.1885 3.72026 16.0402 4.98665 17.5463C6.25303 19.0523 7.95268 20.1413 9.85968 20.6686C11.7667 21.1959 13.7907 21.1364 15.6627 20.4982C17.5348 19.8599 19.1661 18.673 20.34 17.0953C20.4416 16.9612 20.5256 16.815 20.59 16.66C20.4228 16.6434 20.254 16.6534 20.09 16.6896C19.3509 16.8184 18.5999 16.8682 17.85 16.8381C15.2934 16.7242 12.8763 15.653 11.0882 13.8415C9.30005 12.0301 8.27475 9.61387 8.22 7.08239C8.21372 5.73402 8.49305 4.39932 9.04 3.1643C9.1075 3.02386 9.15141 2.87347 9.17 2.71906C8.99306 2.72805 8.8197 2.77177 8.66 2.84768C6.81063 3.60938 5.24841 4.92441 4.1922 6.60853C3.13599 8.29265 2.6387 10.2615 2.77 12.2392V12.2373Z" fill="#707070"/>
</svg>
