<svg width="5" height="19" viewBox="0 0 5 19" fill="none" xmlns="http://www.w3.org/2000/svg">
<g id="Property 1=Group">
<path id="Vector" d="M2.49998 4.99997C3.88069 4.99997 4.99997 3.88069 4.99997 2.49998C4.99997 1.11928 3.88069 0 2.49998 0C1.11928 0 0 1.11928 0 2.49998C0 3.88069 1.11928 4.99997 2.49998 4.99997Z" fill="#707070"/>
<path id="Vector_2" d="M2.49998 12C3.88069 12 4.99997 10.8807 4.99997 9.49998C4.99997 8.11928 3.88069 7 2.49998 7C1.11928 7 0 8.11928 0 9.49998C0 10.8807 1.11928 12 2.49998 12Z" fill="#707070"/>
<path id="Vector_3" d="M2.49998 18.9998C3.88069 18.9998 4.99997 17.8806 4.99997 16.4999C4.99997 15.1192 3.88069 13.9999 2.49998 13.9999C1.11928 13.9999 0 15.1192 0 16.4999C0 17.8806 1.11928 18.9998 2.49998 18.9998Z" fill="#707070"/>
</g>
</svg>
