<svg width="28" height="28" viewBox="0 0 28 28" fill="none" xmlns="http://www.w3.org/2000/svg">
<g id="vuesax/bold/note">
<g id="note">
<path id="Vector" d="M9.67163 7.33834C9.55668 7.3385 9.44283 7.31597 9.3366 7.27205C9.23037 7.22813 9.13385 7.16369 9.05257 7.0824C8.97129 7.00112 8.90684 6.9046 8.86292 6.79837C8.81901 6.69214 8.79648 6.57829 8.79663 6.46334V3.20834C8.79663 2.97628 8.88882 2.75372 9.05291 2.58963C9.21701 2.42553 9.43957 2.33334 9.67163 2.33334C9.9037 2.33334 10.1263 2.42553 10.2904 2.58963C10.4544 2.75372 10.5466 2.97628 10.5466 3.20834V6.45168C10.548 6.56752 10.5264 6.68249 10.4831 6.78993C10.4397 6.89737 10.3755 6.99514 10.2942 7.0776C10.2128 7.16006 10.1159 7.22557 10.009 7.27032C9.90215 7.31508 9.78748 7.3382 9.67163 7.33834Z" fill="white"/>
<path id="Vector_2" d="M18.3284 7.33834C18.2134 7.3385 18.0996 7.31597 17.9933 7.27205C17.8871 7.22813 17.7906 7.16369 17.7093 7.0824C17.628 7.00112 17.5636 6.9046 17.5197 6.79837C17.4757 6.69214 17.4532 6.57829 17.4534 6.46334V3.20834C17.4534 2.97628 17.5456 2.75372 17.7097 2.58963C17.8737 2.42553 18.0963 2.33334 18.3284 2.33334C18.5604 2.33334 18.783 2.42553 18.9471 2.58963C19.1112 2.75372 19.2034 2.97628 19.2034 3.20834V6.45168C19.2048 6.56752 19.1832 6.68249 19.1398 6.78993C19.0965 6.89737 19.0323 6.99514 18.9509 7.0776C18.8695 7.16006 18.7726 7.22557 18.6657 7.27032C18.5589 7.31508 18.4442 7.3382 18.3284 7.33834Z" fill="white"/>
<path id="Vector_3" d="M22.8317 5.25001C22.6564 5.1206 22.4487 5.04229 22.2317 5.0238C22.0146 5.00531 21.7967 5.04735 21.6021 5.14526C21.4075 5.24317 21.2438 5.39311 21.1293 5.57842C21.0148 5.76373 20.9539 5.97717 20.9533 6.19501V6.31168C20.9678 6.97948 20.7372 7.62946 20.3052 8.13888C19.8731 8.6483 19.2695 8.9819 18.6083 9.07668C18.2419 9.11544 17.8714 9.07673 17.521 8.96306C17.1705 8.8494 16.8478 8.66332 16.5739 8.4169C16.3 8.17048 16.0809 7.86922 15.9309 7.53267C15.7809 7.19612 15.7034 6.8318 15.7033 6.46334V5.25001C15.7033 4.94059 15.5804 4.64384 15.3616 4.42505C15.1428 4.20626 14.8461 4.08334 14.5367 4.08334H13.4633C13.1539 4.08334 12.8572 4.20626 12.6384 4.42505C12.4196 4.64384 12.2967 4.94059 12.2967 5.25001V6.46334C12.2979 6.90068 12.1884 7.3312 11.9782 7.71474C11.7681 8.09829 11.4642 8.42234 11.095 8.65668C10.9861 8.72578 10.8732 8.78812 10.7567 8.84334C10.646 8.90393 10.5285 8.95093 10.4067 8.98334C10.2595 9.03343 10.1066 9.06479 9.95166 9.07668C9.76572 9.10002 9.57759 9.10002 9.39166 9.07668C9.23667 9.06479 9.0838 9.03343 8.93666 8.98334C8.81618 8.94682 8.69908 8.89998 8.58666 8.84334C8.47016 8.78812 8.35717 8.72578 8.24832 8.65668C7.87579 8.38972 7.57239 8.03765 7.36338 7.62977C7.15436 7.22189 7.04578 6.76999 7.04666 6.31168V6.19501C7.04521 5.99376 6.9925 5.79621 6.8935 5.62099C6.7945 5.44578 6.65247 5.29868 6.48084 5.1936C6.3092 5.08851 6.11361 5.02891 5.91254 5.02041C5.71147 5.0119 5.51155 5.05479 5.33166 5.14501C5.31999 5.15668 5.30832 5.15668 5.29666 5.16834C5.25134 5.19135 5.20836 5.2187 5.16832 5.25001C5.13332 5.28501 5.08666 5.30834 5.05166 5.34334C4.72994 5.59505 4.44003 5.88496 4.18832 6.20668C4.06555 6.34371 3.95617 6.49216 3.86166 6.65001C3.84725 6.66331 3.83538 6.67912 3.82666 6.69668C3.72213 6.85336 3.62858 7.01708 3.54666 7.18668C3.52332 7.21001 3.51166 7.22168 3.51166 7.24501C3.43759 7.38348 3.37515 7.52787 3.32499 7.67668C3.29678 7.7289 3.27335 7.78357 3.25499 7.84001C3.18996 8.01154 3.13541 8.18686 3.09166 8.36501C3.04436 8.53337 3.00927 8.70493 2.98666 8.87834C2.96332 9.00668 2.95166 9.13501 2.93999 9.27501C2.92832 9.43834 2.91666 9.60168 2.91666 9.76501V19.985C2.91666 21.4919 3.51526 22.937 4.58078 24.0026C5.6463 25.0681 7.09145 25.6667 8.59832 25.6667H19.4017C20.9085 25.6667 22.3537 25.0681 23.4192 24.0026C24.4847 22.937 25.0833 21.4919 25.0833 19.985V9.76501C25.0839 8.88936 24.8807 8.02559 24.4899 7.24198C24.0991 6.45837 23.5314 5.77641 22.8317 5.25001ZM14 20.3233H8.58666C8.35304 20.3233 8.129 20.2305 7.96381 20.0654C7.79862 19.9002 7.70582 19.6761 7.70582 19.4425C7.70582 19.2089 7.79862 18.9849 7.96381 18.8197C8.129 18.6545 8.35304 18.5617 8.58666 18.5617H14C14.2336 18.5617 14.4576 18.6545 14.6228 18.8197C14.788 18.9849 14.8808 19.2089 14.8808 19.4425C14.8808 19.6761 14.788 19.9002 14.6228 20.0654C14.4576 20.2305 14.2336 20.3233 14 20.3233ZM17.2433 15.995H8.58666C8.35304 15.995 8.129 15.9022 7.96381 15.737C7.79862 15.5718 7.70582 15.3478 7.70582 15.1142C7.70582 14.8806 7.79862 14.6565 7.96381 14.4913C8.129 14.3261 8.35304 14.2333 8.58666 14.2333H17.2433C17.4769 14.2333 17.701 14.3261 17.8662 14.4913C18.0314 14.6565 18.1242 14.8806 18.1242 15.1142C18.1242 15.3478 18.0314 15.5718 17.8662 15.737C17.701 15.9022 17.4769 15.995 17.2433 15.995Z" fill="white"/>
</g>
</g>
</svg>
