<svg width="25" height="25" viewBox="0 0 25 25" fill="none" xmlns="http://www.w3.org/2000/svg">
<path d="M15 9.63577H2.5C2.30149 9.63444 2.11149 9.55379 1.97112 9.41127C1.83075 9.26876 1.75131 9.07585 1.75 8.87431C1.75131 8.67277 1.83075 8.47986 1.97112 8.33735C2.11149 8.19484 2.30149 8.11418 2.5 8.11285H15C15.1985 8.11418 15.3885 8.19484 15.5289 8.33735C15.6693 8.47986 15.7487 8.67277 15.75 8.87431C15.7487 9.07585 15.6693 9.26876 15.5289 9.41127C15.3885 9.55379 15.1985 9.63444 15 9.63577Z" fill="#707070"/>
<path d="M8.5 17.758H6.5C6.30149 17.7566 6.11149 17.676 5.97112 17.5335C5.83075 17.391 5.75131 17.198 5.75 16.9965C5.75131 16.795 5.83075 16.6021 5.97112 16.4595C6.11149 16.317 6.30149 16.2364 6.5 16.235H8.5C8.69851 16.2364 8.88851 16.317 9.02888 16.4595C9.16925 16.6021 9.24869 16.795 9.25 16.9965C9.24869 17.198 9.16925 17.391 9.02888 17.5335C8.88851 17.676 8.69851 17.7566 8.5 17.758Z" fill="#707070"/>
<path d="M15 17.758H11C10.8015 17.7566 10.6115 17.676 10.4711 17.5335C10.3307 17.391 10.2513 17.198 10.25 16.9965C10.2513 16.795 10.3307 16.6021 10.4711 16.4595C10.6115 16.317 10.8015 16.2364 11 16.235H15C15.1985 16.2364 15.3885 16.317 15.5289 16.4595C15.6693 16.6021 15.7487 16.795 15.75 16.9965C15.7487 17.198 15.6693 17.391 15.5289 17.5335C15.3885 17.676 15.1985 17.7566 15 17.758Z" fill="#707070"/>
<path d="M18.06 21.8191H6.94C2.96 21.8191 1.75 20.6007 1.75 16.6005V8.25497C1.75 4.25477 2.96 3.03644 6.94 3.03644H15C15.1985 3.03777 15.3885 3.11842 15.5289 3.26093C15.6693 3.40345 15.7487 3.59636 15.75 3.7979C15.7487 3.99944 15.6693 4.19234 15.5289 4.33486C15.3885 4.47737 15.1985 4.55802 15 4.55935H6.94C3.8 4.55935 3.25 5.1076 3.25 8.25497V16.5904C3.25 19.7378 3.8 20.286 6.94 20.286H18.05C21.19 20.286 21.74 19.7378 21.74 16.5904V14.4786C21.74 14.2767 21.819 14.083 21.9597 13.9402C22.1003 13.7974 22.2911 13.7172 22.49 13.7172C22.6889 13.7172 22.8797 13.7974 23.0203 13.9402C23.161 14.083 23.24 14.2767 23.24 14.4786V16.5904C23.25 20.6007 22.04 21.8191 18.06 21.8191Z" fill="#707070"/>
<path d="M20.5 10.6512C20.3015 10.6498 20.1115 10.5692 19.9711 10.4267C19.8308 10.2842 19.7513 10.0913 19.75 9.88971V3.79805C19.7491 3.64802 19.7925 3.50116 19.8745 3.37633C19.9564 3.25149 20.0733 3.15439 20.21 3.0975C20.3477 3.04235 20.4981 3.02834 20.6434 3.05712C20.7887 3.08591 20.9228 3.15628 21.03 3.25995L23.03 5.2905C23.1037 5.36021 23.1628 5.44428 23.2038 5.53769C23.2448 5.63109 23.2668 5.73192 23.2686 5.83416C23.2704 5.9364 23.2519 6.03796 23.2141 6.13278C23.1764 6.22759 23.1203 6.31372 23.0491 6.38603C22.9778 6.45833 22.893 6.51534 22.7996 6.55363C22.7062 6.59193 22.6062 6.61074 22.5055 6.60894C22.4048 6.60713 22.3055 6.58475 22.2135 6.54313C22.1215 6.50152 22.0387 6.44151 21.97 6.3667L21.25 5.6357V9.88971C21.2487 10.0913 21.1693 10.2842 21.0289 10.4267C20.8885 10.5692 20.6985 10.6498 20.5 10.6512Z" fill="#707070"/>
<path d="M18.501 6.59295C18.4025 6.59331 18.3049 6.57374 18.2139 6.53539C18.1229 6.49704 18.0403 6.44068 17.971 6.36959C17.8315 6.22629 17.7533 6.03295 17.7533 5.83149C17.7533 5.63003 17.8315 5.43669 17.971 5.29339L19.971 3.26284C20.1132 3.12833 20.3012 3.05511 20.4955 3.05859C20.6898 3.06207 20.8752 3.14199 21.0126 3.2815C21.15 3.42101 21.2287 3.60923 21.2322 3.8065C21.2356 4.00377 21.1635 4.19469 21.031 4.33903L19.031 6.36959C18.9617 6.44068 18.8791 6.49704 18.7881 6.53539C18.6971 6.57374 18.5995 6.59331 18.501 6.59295Z" fill="#707070"/>
</svg>
