<svg width="24" height="24" viewBox="0 0 24 24" fill="none" xmlns="http://www.w3.org/2000/svg">
<path d="M12.16 11.497H12.08C12.0204 11.4871 11.9596 11.4871 11.9 11.497C10.5486 11.4593 9.26642 10.8968 8.33085 9.9311C7.39528 8.96544 6.88146 7.67423 6.90051 6.33669C6.91957 4.99915 7.46996 3.72277 8.43266 2.78359C9.39537 1.8444 10.693 1.31787 12.045 1.31787C13.397 1.31787 14.6946 1.8444 15.6573 2.78359C16.62 3.72277 17.1704 4.99915 17.1895 6.33669C17.2085 7.67423 16.6947 8.96544 15.7592 9.9311C14.8236 10.8968 13.5414 11.4593 12.19 11.497H12.16ZM12 2.72082C11.031 2.71554 10.0989 3.08799 9.40543 3.75755C8.71192 4.42711 8.31277 5.33994 8.29437 6.2985C8.27596 7.25705 8.63979 8.18422 9.3071 8.87936C9.97441 9.5745 10.8915 9.9817 11.86 10.0128C11.9664 10.0026 12.0736 10.0026 12.18 10.0128C13.1427 9.96848 14.0496 9.55295 14.7064 8.8552C15.3633 8.15746 15.7179 7.23298 15.6944 6.27973C15.6709 5.32647 15.2711 4.42023 14.5805 3.75504C13.89 3.08986 12.9637 2.71862 12 2.72082Z" fill="#707070"/>
<path d="M12.17 22.3113C10.2562 22.3467 8.37317 21.8311 6.75 20.8272C6.12063 20.4694 5.59327 19.9596 5.21726 19.3453C4.84124 18.731 4.62887 18.0324 4.6 17.3148C4.62969 16.5947 4.84222 15.8937 5.21798 15.2763C5.59375 14.659 6.12063 14.1453 6.75 13.7825C8.38918 12.8161 10.2619 12.3059 12.17 12.3059C14.0781 12.3059 15.9508 12.8161 17.59 13.7825C18.2179 14.1419 18.7442 14.6522 19.12 15.2661C19.4958 15.8801 19.709 16.5779 19.74 17.295C19.7103 18.015 19.4978 18.7161 19.122 19.3334C18.7463 19.9508 18.2194 20.4645 17.59 20.8272C15.9663 21.8299 14.0837 22.3454 12.17 22.3113ZM7.58 15.0292C7.15907 15.259 6.80305 15.5894 6.54451 15.9904C6.28597 16.3914 6.13314 16.8502 6.1 17.3247C6.13575 17.7959 6.28984 18.2508 6.54829 18.6482C6.80673 19.0456 7.16136 19.3729 7.58 19.6003C8.97066 20.4116 10.5556 20.8395 12.17 20.8395C13.7844 20.8395 15.3693 20.4116 16.76 19.6003C17.1809 19.3706 17.5369 19.0401 17.7955 18.6391C18.054 18.2381 18.2069 17.7794 18.24 17.3049C18.2042 16.8336 18.0502 16.3787 17.7917 15.9813C17.5333 15.5839 17.1786 15.2567 16.76 15.0292C15.3677 14.2226 13.7834 13.7975 12.17 13.7975C10.5566 13.7975 8.97229 14.2226 7.58 15.0292Z" fill="#707070"/>
</svg>
