<svg width="28" height="28" viewBox="0 0 28 28" fill="none" xmlns="http://www.w3.org/2000/svg">
<g id="vuesax/bold/frame">
<g id="frame">
<path id="Vector" d="M14 2.33315C12.547 2.33828 11.1543 2.91433 10.1222 3.93706C9.09009 4.95979 8.50136 6.34723 8.48299 7.80011C8.46462 9.25298 9.01807 10.6549 10.024 11.7034C11.0299 12.7519 12.4076 13.363 13.86 13.4048C13.9452 13.3931 14.0315 13.3931 14.1167 13.4048H14.1983C15.6567 13.3641 17.04 12.7494 18.0476 11.6944C19.0553 10.6395 19.6059 9.22946 19.5798 7.77081C19.5536 6.31216 18.9529 4.92276 17.9081 3.90456C16.8633 2.88636 15.4588 2.32165 14 2.33315Z" fill="white"/>
<path id="Vector_2" d="M19.9267 16.5083C18.1354 15.443 16.0899 14.8808 14.0058 14.8808C11.9217 14.8808 9.87626 15.443 8.08499 16.5083C7.41698 16.8937 6.85646 17.4407 6.45489 18.0991C6.05331 18.7575 5.82354 19.5062 5.78665 20.2766C5.82267 21.0426 6.05104 21.7872 6.45068 22.4417C6.85032 23.0963 7.40836 23.6396 8.07332 24.0216C9.84718 25.1339 11.9066 25.7055 14 25.6666C16.0934 25.7055 18.1528 25.1339 19.9267 24.0216C20.5926 23.6349 21.1509 23.0873 21.5504 22.429C21.9499 21.7706 22.1779 21.0225 22.2133 20.2533C22.1749 19.4878 21.9455 18.7441 21.5461 18.09C21.1467 17.4359 20.59 16.8921 19.9267 16.5083Z" fill="white"/>
</g>
</g>
</svg>
