<svg width="24" height="24" viewBox="0 0 24 24" fill="none" xmlns="http://www.w3.org/2000/svg">
<path d="M8 5.6892C7.80149 5.6879 7.61149 5.6093 7.47112 5.47042C7.33075 5.33154 7.25131 5.14354 7.25 4.94713V1.97888C7.25131 1.78247 7.33075 1.59448 7.47112 1.45559C7.61149 1.31671 7.80149 1.23811 8 1.23682C8.19851 1.23811 8.38851 1.31671 8.52888 1.45559C8.66925 1.59448 8.74869 1.78247 8.75 1.97888V4.94713C8.74869 5.14354 8.66925 5.33154 8.52888 5.47042C8.38851 5.6093 8.19851 5.6879 8 5.6892Z" fill="#707070"/>
<path d="M16 5.6892C15.8015 5.6879 15.6115 5.6093 15.4711 5.47042C15.3307 5.33154 15.2513 5.14354 15.25 4.94713V1.97888C15.2513 1.78247 15.3307 1.59448 15.4711 1.45559C15.6115 1.31671 15.8015 1.23811 16 1.23682C16.1985 1.23811 16.3885 1.31671 16.5289 1.45559C16.6693 1.59448 16.7487 1.78247 16.75 1.97888V4.94713C16.7487 5.14354 16.6693 5.33154 16.5289 5.47042C16.3885 5.6093 16.1985 5.6879 16 5.6892Z" fill="#707070"/>
<path d="M15 13.6045H7C6.80149 13.6032 6.61149 13.5246 6.47112 13.3857C6.33075 13.2468 6.25131 13.0588 6.25 12.8624C6.25131 12.666 6.33075 12.478 6.47112 12.3391C6.61149 12.2003 6.80149 12.1217 7 12.1204H15C15.1985 12.1217 15.3885 12.2003 15.5289 12.3391C15.6693 12.478 15.7487 12.666 15.75 12.8624C15.7487 13.0588 15.6693 13.2468 15.5289 13.3857C15.3885 13.5246 15.1985 13.6032 15 13.6045Z" fill="#707070"/>
<path d="M12 17.5623H7C6.80149 17.561 6.61149 17.4824 6.47112 17.3435C6.33075 17.2046 6.25131 17.0166 6.25 16.8202C6.25131 16.6238 6.33075 16.4358 6.47112 16.2969C6.61149 16.158 6.80149 16.0794 7 16.0781H12C12.1985 16.0794 12.3885 16.158 12.5289 16.2969C12.6693 16.4358 12.7487 16.6238 12.75 16.8202C12.7487 17.0166 12.6693 17.2046 12.5289 17.3435C12.3885 17.4824 12.1985 17.561 12 17.5623Z" fill="#707070"/>
<path d="M15 22.5093H9C3.38 22.5093 2.25 19.8874 2.25 15.6526V9.54793C2.25 4.85809 3.85 2.94851 7.96 2.72095H16.04C20.15 2.94851 21.75 4.85809 21.75 9.54793V15.6526C21.75 19.8874 20.62 22.5093 15 22.5093ZM8 4.20507C5.2 4.36338 3.75 5.23407 3.75 9.54793V15.6526C3.75 19.4421 4.48 21.0252 9 21.0252H15C19.52 21.0252 20.25 19.4421 20.25 15.6526V9.54793C20.25 5.24396 18.81 4.36338 15.98 4.20507H8Z" fill="#707070"/>
</svg>
