<svg width="24" height="24" viewBox="0 0 24 24" fill="none" xmlns="http://www.w3.org/2000/svg">
<path d="M12 15.5832C11.2583 15.5832 10.5333 15.3656 9.91661 14.9579C9.29993 14.5502 8.81928 13.9708 8.53545 13.2928C8.25162 12.6148 8.17736 11.8688 8.32206 11.1491C8.46675 10.4293 8.8239 9.76822 9.34835 9.24933C9.8728 8.73043 10.541 8.37706 11.2684 8.23389C11.9958 8.09073 12.7498 8.16421 13.4351 8.44503C14.1203 8.72586 14.706 9.20142 15.118 9.81157C15.5301 10.4217 15.75 11.1391 15.75 11.8729C15.7497 12.8569 15.3546 13.8005 14.6514 14.4962C13.9482 15.192 12.9945 15.583 12 15.5832ZM12 9.64673C11.555 9.64673 11.12 9.77729 10.75 10.0219C10.38 10.2665 10.0916 10.6142 9.92127 11.021C9.75098 11.4278 9.70642 11.8754 9.79323 12.3072C9.88005 12.7391 10.0943 13.1357 10.409 13.4471C10.7237 13.7584 11.1246 13.9704 11.561 14.0563C11.9975 14.1422 12.4499 14.0981 12.861 13.9296C13.2722 13.7612 13.6236 13.4758 13.8708 13.1097C14.118 12.7436 14.25 12.3132 14.25 11.8729C14.2492 11.2827 14.0119 10.717 13.5901 10.2996C13.1683 9.88231 12.5965 9.64751 12 9.64673Z" fill="#707070"/>
<path d="M15.21 21.955C14.9976 21.9531 14.7862 21.9265 14.58 21.8759C13.9646 21.7123 13.4374 21.3185 13.11 20.7776L12.99 20.5797C12.4 19.5705 11.59 19.5705 11 20.5797L10.89 20.7677C10.7313 21.0397 10.5197 21.2779 10.2674 21.4685C10.0151 21.659 9.72705 21.7982 9.42 21.8778C9.11396 21.9616 8.7939 21.9828 8.4793 21.9403C8.1647 21.8978 7.86213 21.7924 7.59 21.6305L5.87 20.651C5.26023 20.3044 4.81449 19.7324 4.63073 19.0608C4.44696 18.3892 4.54022 17.6729 4.89 17.0693C5.0256 16.8944 5.11492 16.6887 5.14984 16.471C5.18477 16.2533 5.1642 16.0304 5.09 15.8226C4.94592 15.6544 4.7615 15.5245 4.55361 15.445C4.34572 15.3655 4.121 15.3389 3.9 15.3675C3.19724 15.3662 2.52366 15.0892 2.02692 14.5974C1.53018 14.1055 1.25079 13.4389 1.25 12.7435L1.25 11.0022C1.25132 10.3072 1.53094 9.64103 2.02763 9.1496C2.52431 8.65817 3.19758 8.38151 3.9 8.3802C4.12083 8.40905 4.34544 8.3827 4.55331 8.30354C4.76119 8.22438 4.94571 8.09494 5.09 7.92705C5.16671 7.71959 5.18861 7.49619 5.1536 7.27802C5.1186 7.05985 5.02787 6.85414 4.89 6.68038C4.54158 6.07736 4.44813 5.36254 4.63 4.69165C4.71693 4.3569 4.87166 4.04311 5.08481 3.76929C5.29796 3.49547 5.56508 3.26732 5.87 3.09869L7.6 2.11719C8.15353 1.8007 8.81107 1.71358 9.42926 1.87484C10.0474 2.03609 10.5761 2.43262 10.9 2.97798L11.02 3.17586C11.61 4.18507 12.42 4.18507 13.01 3.17586L13.12 2.98787C13.2796 2.71573 13.4921 2.47748 13.745 2.2868C13.998 2.09613 14.2866 1.9568 14.5942 1.87681C14.9018 1.79682 15.2223 1.77776 15.5373 1.8207C15.8524 1.86365 16.1557 1.96777 16.43 2.12708L18.15 3.1066C18.7598 3.4532 19.2055 4.02514 19.3893 4.69675C19.573 5.36836 19.4798 6.08468 19.13 6.6883C18.9944 6.86319 18.9051 7.06882 18.8702 7.28653C18.8352 7.50423 18.8558 7.72712 18.93 7.93496C19.0741 8.10321 19.2585 8.23303 19.4664 8.31254C19.6743 8.39205 19.899 8.41871 20.12 8.3901C20.8224 8.3914 21.4957 8.66806 21.9924 9.15949C22.4891 9.65092 22.7687 10.3171 22.77 11.0121V12.7534C22.7687 13.4484 22.4891 14.1146 21.9924 14.606C21.4957 15.0974 20.8224 15.3741 20.12 15.3754C19.899 15.3468 19.6743 15.3734 19.4664 15.4529C19.2585 15.5325 19.0741 15.6623 18.93 15.8305C18.8533 16.038 18.8314 16.2614 18.8664 16.4795C18.9014 16.6977 18.9921 16.9034 19.13 17.0772C19.3048 17.3749 19.4178 17.7042 19.4625 18.0456C19.5071 18.3871 19.4825 18.734 19.39 19.0659C19.3031 19.4007 19.1483 19.7145 18.9352 19.9883C18.722 20.2621 18.4549 20.4902 18.15 20.6589L16.42 21.6384C16.0505 21.8442 15.634 21.9532 15.21 21.955ZM12 18.2942C12.4853 18.3244 12.9535 18.4826 13.3562 18.7522C13.7589 19.0219 14.0813 19.3932 14.29 19.8278L14.4 20.0158C14.5225 20.2198 14.7209 20.3683 14.9527 20.4293C15.1845 20.4904 15.4312 20.4591 15.64 20.3423L17.37 19.3528C17.6356 19.2018 17.8298 18.9527 17.91 18.6603C17.9498 18.5167 17.9606 18.3667 17.9418 18.219C17.9229 18.0713 17.8747 17.9287 17.8 17.7995C17.5253 17.4025 17.3621 16.9406 17.3269 16.4608C17.2918 15.981 17.386 15.5006 17.6 15.0687C17.8696 14.6678 18.2426 14.3454 18.6804 14.1349C19.1182 13.9244 19.6048 13.8335 20.09 13.8715C20.2412 13.8723 20.3911 13.8434 20.531 13.7865C20.6709 13.7296 20.798 13.6458 20.9049 13.54C21.0119 13.4341 21.0966 13.3084 21.1541 13.17C21.2116 13.0316 21.2408 12.8833 21.24 12.7336V10.9942C21.24 10.6925 21.1188 10.4031 20.9032 10.1897C20.6875 9.97629 20.395 9.85641 20.09 9.85641C19.6048 9.8944 19.1182 9.80346 18.6804 9.59298C18.2426 9.3825 17.8696 9.06013 17.6 8.65922C17.386 8.22727 17.2918 7.74686 17.3269 7.26707C17.3621 6.78729 17.5253 6.32533 17.8 5.92842C17.8747 5.79917 17.9229 5.6566 17.9418 5.50888C17.9606 5.36116 17.9498 5.21121 17.91 5.06763C17.8309 4.77745 17.6408 4.52907 17.38 4.37504L15.65 3.39551C15.5456 3.33496 15.4302 3.29538 15.3104 3.27902C15.1905 3.26266 15.0686 3.26985 14.9515 3.30018C14.8345 3.3305 14.7247 3.38337 14.6283 3.45576C14.532 3.52815 14.451 3.61863 14.39 3.72202L14.28 3.91001C14.0713 4.34454 13.7489 4.71589 13.3462 4.98556C12.9435 5.25523 12.4753 5.41338 11.99 5.44361C11.5047 5.41338 11.0365 5.25523 10.6338 4.98556C10.2311 4.71589 9.9087 4.34454 9.7 3.91001L9.59 3.71213C9.46573 3.50992 9.26661 3.36369 9.03501 3.30456C8.80342 3.24542 8.55764 3.27806 8.35 3.39551L6.62 4.38493C6.35443 4.53597 6.16024 4.78504 6.08 5.07752C6.04016 5.22111 6.02937 5.37106 6.04825 5.51877C6.06712 5.66649 6.1153 5.80907 6.19 5.93832C6.46469 6.33523 6.62794 6.79718 6.66308 7.27697C6.69822 7.75675 6.60398 8.23716 6.39 8.66911C6.12037 9.07003 5.74738 9.3924 5.30961 9.60287C4.87185 9.81335 4.3852 9.9043 3.9 9.86631C3.74893 9.86552 3.59919 9.89435 3.45944 9.95113C3.31969 10.0079 3.19269 10.0915 3.08577 10.1971C2.97885 10.3027 2.89413 10.4282 2.8365 10.5664C2.77887 10.7046 2.74947 10.8527 2.75 11.0022V12.7435C2.75 13.0453 2.87116 13.3347 3.08683 13.5481C3.30249 13.7615 3.595 13.8814 3.9 13.8814C4.3852 13.8434 4.87185 13.9343 5.30961 14.1448C5.74738 14.3553 6.12037 14.6776 6.39 15.0786C6.60398 15.5105 6.69822 15.9909 6.66308 16.4707C6.62794 16.9505 6.46469 17.4124 6.19 17.8094C6.1153 17.9386 6.06712 18.0812 6.04825 18.2289C6.02937 18.3766 6.04016 18.5266 6.08 18.6701C6.1591 18.9603 6.34916 19.2087 6.61 19.3627L8.34 20.3423C8.44225 20.4041 8.55613 20.4448 8.67474 20.4618C8.79335 20.4788 8.91421 20.4718 9.03 20.4412C9.26873 20.3782 9.47322 20.2256 9.6 20.0158L9.71 19.8278C9.9204 19.3945 10.2432 19.0243 10.6456 18.7548C11.0479 18.4854 11.5153 18.3264 12 18.2942Z" fill="#707070"/>
</svg>
