<svg width="24" height="24" viewBox="0 0 24 24" fill="none" xmlns="http://www.w3.org/2000/svg">
<path d="M17.62 9.62012H12.37C12.1715 9.61881 11.9815 9.53937 11.8411 9.399C11.7007 9.25863 11.6213 9.06862 11.62 8.87012C11.6213 8.67161 11.7007 8.4816 11.8411 8.34124C11.9815 8.20087 12.1715 8.12143 12.37 8.12012H17.62C17.8189 8.12012 18.0097 8.19913 18.1503 8.33979C18.291 8.48044 18.37 8.6712 18.37 8.87012C18.37 9.06903 18.291 9.25979 18.1503 9.40045C18.0097 9.5411 17.8189 9.62012 17.62 9.62012Z" fill="#707070"/>
<path d="M7.12201 10.3809C7.02348 10.3813 6.92588 10.362 6.83488 10.3243C6.74388 10.2865 6.66132 10.231 6.59201 10.161L5.84201 9.41095C5.70953 9.26878 5.63741 9.08073 5.64083 8.88643C5.64426 8.69213 5.72297 8.50674 5.86039 8.36933C5.9978 8.23192 6.18318 8.1532 6.37749 8.14978C6.57179 8.14635 6.75983 8.21847 6.90201 8.35095L7.12201 8.57095L8.83901 6.85095C8.98118 6.71847 9.16923 6.64635 9.36353 6.64978C9.55783 6.6532 9.74322 6.73192 9.88063 6.86933C10.018 7.00674 10.0968 7.19213 10.1002 7.38643C10.1036 7.58073 10.0315 7.76878 9.89901 7.91095L7.64901 10.161C7.50929 10.301 7.31984 10.3801 7.12201 10.3809Z" fill="#707070"/>
<path d="M17.62 16.6201H12.37C12.1715 16.6188 11.9815 16.5394 11.8411 16.399C11.7007 16.2586 11.6213 16.0686 11.62 15.8701C11.6213 15.6716 11.7007 15.4816 11.8411 15.3412C11.9815 15.2009 12.1715 15.1214 12.37 15.1201H17.62C17.8189 15.1201 18.0097 15.1991 18.1503 15.3398C18.291 15.4804 18.37 15.6712 18.37 15.8701C18.37 16.069 18.291 16.2598 18.1503 16.4004C18.0097 16.5411 17.8189 16.6201 17.62 16.6201Z" fill="#707070"/>
<path d="M7.12201 17.38C7.02348 17.3803 6.92588 17.361 6.83488 17.3233C6.74388 17.2855 6.66132 17.23 6.59201 17.16L5.84201 16.41C5.70953 16.2678 5.63741 16.0797 5.64083 15.8854C5.64426 15.6911 5.72297 15.5057 5.86039 15.3683C5.9978 15.2309 6.18318 15.1522 6.37749 15.1488C6.57179 15.1453 6.75983 15.2175 6.90201 15.35L7.12201 15.57L8.83901 13.851C8.98118 13.7185 9.16923 13.6463 9.36353 13.6498C9.55783 13.6532 9.74322 13.7319 9.88063 13.8693C10.018 14.0067 10.0968 14.1921 10.1002 14.3864C10.1036 14.5807 10.0315 14.7688 9.89901 14.911L7.64901 17.161C7.50913 17.3006 7.31969 17.3794 7.12201 17.38Z" fill="#707070"/>
<path d="M15 22.75H9C3.57 22.75 1.25 20.43 1.25 15V9C1.25 3.57 3.57 1.25 9 1.25H15C20.43 1.25 22.75 3.57 22.75 9V15C22.75 20.43 20.43 22.75 15 22.75ZM9 2.75C4.39 2.75 2.75 4.39 2.75 9V15C2.75 19.61 4.39 21.25 9 21.25H15C19.61 21.25 21.25 19.61 21.25 15V9C21.25 4.39 19.61 2.75 15 2.75H9Z" fill="#707070"/>
</svg>
