<svg width="24" height="24" viewBox="0 0 24 24" fill="none" xmlns="http://www.w3.org/2000/svg">
<path d="M15 22.75H9C3.57 22.75 1.25 20.43 1.25 15V9C1.25 3.57 3.57 1.25 9 1.25H15C20.43 1.25 22.75 3.57 22.75 9V15C22.75 20.43 20.43 22.75 15 22.75ZM9 2.75C4.39 2.75 2.75 4.39 2.75 9V15C2.75 19.61 4.39 21.25 9 21.25H15C19.61 21.25 21.25 19.61 21.25 15V9C21.25 4.39 19.61 2.75 15 2.75H9Z" fill="#292D32"/>
<path d="M14.109 17.61C14.0105 17.6103 13.9129 17.591 13.8219 17.5533C13.7309 17.5155 13.6483 17.46 13.579 17.39C13.4395 17.2488 13.3613 17.0584 13.3613 16.86C13.3613 16.6615 13.4395 16.4711 13.579 16.33L16.62 13.291C16.6887 13.2173 16.7715 13.1582 16.8635 13.1172C16.9555 13.0762 17.0548 13.0541 17.1555 13.0524C17.2562 13.0506 17.3562 13.0691 17.4496 13.1068C17.543 13.1446 17.6278 13.2007 17.6991 13.2719C17.7703 13.3431 17.8264 13.428 17.8642 13.5214C17.9019 13.6147 17.9204 13.7148 17.9186 13.8155C17.9168 13.9162 17.8948 14.0155 17.8538 14.1075C17.8128 14.1995 17.7537 14.2823 17.68 14.351L14.64 17.391C14.5703 17.4606 14.4875 17.5158 14.3964 17.5534C14.3052 17.591 14.2076 17.6102 14.109 17.61Z" fill="#292D32"/>
<path d="M17.15 14.5701H6.84998C6.65147 14.5688 6.46146 14.4893 6.32109 14.349C6.18072 14.2086 6.10129 14.0186 6.09998 13.8201C6.10129 13.6216 6.18072 13.4316 6.32109 13.2912C6.46146 13.1508 6.65147 13.0714 6.84998 13.0701H17.16C17.3585 13.0714 17.5485 13.1508 17.6889 13.2912C17.8292 13.4316 17.9087 13.6216 17.91 13.8201C17.9079 14.0201 17.8268 14.2111 17.6844 14.3516C17.5421 14.4921 17.35 14.5706 17.15 14.5701Z" fill="#292D32"/>
<path d="M6.85 10.93C6.75147 10.9303 6.65386 10.911 6.56287 10.8733C6.47187 10.8355 6.38931 10.78 6.32 10.71C6.18052 10.5688 6.10229 10.3784 6.10229 10.18C6.10229 9.98153 6.18052 9.7911 6.32 9.64996L9.36 6.61096C9.50217 6.47848 9.69022 6.40636 9.88452 6.40978C10.0788 6.41321 10.2642 6.49193 10.4016 6.62934C10.539 6.76675 10.6177 6.95214 10.6212 7.14644C10.6246 7.34074 10.5525 7.52878 10.42 7.67096L7.38 10.711C7.3106 10.7808 7.228 10.8361 7.13701 10.8737C7.04602 10.9113 6.94845 10.9304 6.85 10.93Z" fill="#292D32"/>
<path d="M17.15 10.9299H6.84998C6.65147 10.9286 6.46146 10.8492 6.32109 10.7088C6.18072 10.5684 6.10129 10.3784 6.09998 10.1799C6.10129 9.98142 6.18072 9.79142 6.32109 9.65105C6.46146 9.51068 6.65147 9.43124 6.84998 9.42993H17.16C17.3585 9.43124 17.5485 9.51068 17.6889 9.65105C17.8292 9.79142 17.9087 9.98142 17.91 10.1799C17.9079 10.3799 17.8268 10.571 17.6844 10.7115C17.5421 10.8519 17.35 10.9305 17.15 10.9299Z" fill="#292D32"/>
</svg>
