<svg width="24" height="24" viewBox="0 0 24 24" fill="none" xmlns="http://www.w3.org/2000/svg">
<path d="M14.79 19.4199C14.6622 19.4185 14.5369 19.3848 14.4257 19.3218C14.3145 19.2588 14.221 19.1687 14.1541 19.0598C14.0872 18.951 14.049 18.8269 14.043 18.6993C14.037 18.5716 14.0635 18.4445 14.12 18.3299L16.26 14.0599C16.3237 13.937 16.4198 13.8339 16.5379 13.7616C16.656 13.6894 16.7916 13.6507 16.93 13.6499C17.0697 13.6507 17.2064 13.6904 17.3247 13.7646C17.4431 13.8388 17.5384 13.9445 17.6 14.0699L19.744 18.3399C19.8248 18.5179 19.8334 18.7203 19.7679 18.9045C19.7023 19.0887 19.5678 19.2403 19.3927 19.3272C19.2176 19.4141 19.0155 19.4296 18.8292 19.3704C18.6429 19.3112 18.4868 19.1819 18.394 19.0099L16.93 16.0799L15.47 19.0099C15.4038 19.1329 15.3058 19.2359 15.1861 19.308C15.0665 19.3802 14.9297 19.4188 14.79 19.4199Z" fill="#292D32"/>
<path d="M18.68 18.6599H15.16C14.9615 18.6586 14.7715 18.5792 14.6311 18.4388C14.4907 18.2984 14.4113 18.1084 14.41 17.9099C14.4113 17.7114 14.4907 17.5214 14.6311 17.381C14.7715 17.2407 14.9615 17.1612 15.16 17.1599H18.68C18.8789 17.1599 19.0697 17.2389 19.2103 17.3796C19.351 17.5202 19.43 17.711 19.43 17.9099C19.43 18.1088 19.351 18.2996 19.2103 18.4402C19.0697 18.5809 18.8789 18.6599 18.68 18.6599Z" fill="#292D32"/>
<path d="M16.92 22.7501C15.767 22.7501 14.6398 22.4082 13.6811 21.7676C12.7223 21.127 11.9751 20.2164 11.5338 19.1511C11.0926 18.0858 10.9771 16.9136 11.2021 15.7827C11.427 14.6518 11.9823 13.613 12.7976 12.7977C13.6129 11.9823 14.6517 11.4271 15.7827 11.2021C16.9136 10.9772 18.0858 11.0926 19.1511 11.5339C20.2164 11.9751 21.1269 12.7224 21.7675 13.6811C22.4081 14.6399 22.75 15.767 22.75 16.9201C22.7484 18.4658 22.1337 19.9478 21.0407 21.0408C19.9477 22.1338 18.4658 22.7485 16.92 22.7501ZM16.92 12.6001C16.0636 12.6001 15.2265 12.854 14.5144 13.3298C13.8023 13.8056 13.2474 14.4819 12.9196 15.2731C12.5919 16.0643 12.5062 16.9349 12.6732 17.7748C12.8403 18.6148 13.2527 19.3863 13.8583 19.9919C14.4638 20.5974 15.2354 21.0098 16.0753 21.1769C16.9152 21.344 17.7858 21.2582 18.577 20.9305C19.3683 20.6028 20.0445 20.0478 20.5203 19.3357C20.9961 18.6236 21.25 17.7865 21.25 16.9301C21.2495 15.7819 20.7931 14.6808 19.9812 13.8689C19.1693 13.057 18.0683 12.6006 16.92 12.6001Z" fill="#292D32"/>
<path d="M4.86 12.7C3.90386 12.754 2.96533 12.4268 2.25 11.79C1.89806 11.4061 1.62792 10.9545 1.456 10.4628C1.28409 9.97117 1.214 9.44966 1.25 8.93005V5.01005C1.19075 4.50064 1.24751 3.98444 1.41603 3.50008C1.58454 3.01572 1.86044 2.57575 2.22307 2.21312C2.5857 1.85049 3.02567 1.57459 3.51003 1.40608C3.99439 1.23757 4.51059 1.18081 5.02 1.24005H8.94C9.45973 1.20257 9.98164 1.27197 10.4735 1.44396C10.9654 1.61594 11.4168 1.88688 11.8 2.24005C12.1327 2.61924 12.3849 3.06207 12.5413 3.54166C12.6978 4.02125 12.7551 4.52761 12.71 5.03005V8.93005C12.7582 9.44038 12.7005 9.95516 12.5405 10.4421C12.3804 10.9291 12.1215 11.3778 11.78 11.76C11.3934 12.1012 10.9412 12.3596 10.4511 12.5196C9.96099 12.6795 9.44335 12.7375 8.93 12.69H5.03C4.97368 12.6978 4.91684 12.7012 4.86 12.7ZM5.02 2.75005C3.41 2.75005 2.75 3.41005 2.75 5.02005V8.94005C2.71865 9.25767 2.7502 9.57836 2.84286 9.88379C2.93551 10.1892 3.08746 10.4734 3.29 10.72C3.7714 11.0976 4.38224 11.27 4.99 11.2H8.93C9.24349 11.2401 9.56185 11.2165 9.86599 11.1306C10.1701 11.0447 10.4538 10.8982 10.7 10.7C10.8942 10.4558 11.0377 10.1751 11.1218 9.87456C11.206 9.57402 11.2292 9.25968 11.19 8.95005V5.01005C11.2277 4.70585 11.2047 4.39721 11.1223 4.10197C11.0399 3.80673 10.8998 3.53077 10.71 3.29005C10.4633 3.08751 10.1792 2.93557 9.87373 2.84291C9.56831 2.75025 9.24762 2.7187 8.93 2.75005H5.02Z" fill="#292D32"/>
<path d="M9 6.6001H4.94C4.74149 6.59879 4.55149 6.51935 4.41112 6.37898C4.27075 6.23861 4.19131 6.04861 4.19 5.8501C4.19131 5.65159 4.27075 5.46158 4.41112 5.32122C4.55149 5.18085 4.74149 5.10141 4.94 5.1001H9C9.19891 5.1001 9.38968 5.17912 9.53033 5.31977C9.67098 5.46042 9.75 5.65119 9.75 5.8501C9.75 6.04901 9.67098 6.23978 9.53033 6.38043C9.38968 6.52108 9.19891 6.6001 9 6.6001Z" fill="#292D32"/>
<path d="M6.97998 6.59992C6.78147 6.59861 6.59147 6.51917 6.4511 6.3788C6.31073 6.23843 6.23129 6.04843 6.22998 5.84992V5.16992C6.23129 4.97141 6.31073 4.78141 6.4511 4.64104C6.59147 4.50067 6.78147 4.42123 6.97998 4.41992C7.17849 4.42123 7.36849 4.50067 7.50886 4.64104C7.64923 4.78141 7.72867 4.97141 7.72998 5.16992V5.84992C7.72867 6.04843 7.64923 6.23843 7.50886 6.3788C7.36849 6.51917 7.17849 6.59861 6.97998 6.59992Z" fill="#292D32"/>
<path d="M4.94 9.76009C4.74109 9.76009 4.55032 9.68107 4.40967 9.54042C4.26902 9.39977 4.19 9.209 4.19 9.01009C4.19 8.81118 4.26902 8.62041 4.40967 8.47976C4.55032 8.33911 4.74109 8.26009 4.94 8.26009C5.24995 8.25231 5.55533 8.18353 5.83869 8.05768C6.12205 7.93184 6.37784 7.75139 6.59143 7.52665C6.80502 7.30191 6.97224 7.03729 7.08353 6.7479C7.19481 6.45851 7.24798 6.15003 7.24 5.84009C7.24 5.64118 7.31902 5.45041 7.45967 5.30976C7.60032 5.16911 7.79109 5.09009 7.99 5.09009C8.18891 5.09009 8.37968 5.16911 8.52033 5.30976C8.66098 5.45041 8.74 5.64118 8.74 5.84009C8.75498 6.86355 8.36325 7.85114 7.65081 8.58608C6.93837 9.32101 5.96344 9.74324 4.94 9.76009Z" fill="#292D32"/>
<path d="M9.00998 9.75977C8.5287 9.7482 8.05674 9.62469 7.63148 9.39905C7.20623 9.1734 6.83937 8.85181 6.55998 8.45977C6.44063 8.30064 6.38938 8.10062 6.41751 7.9037C6.44564 7.70679 6.55085 7.52912 6.70998 7.40977C6.86911 7.29042 7.06913 7.23918 7.26604 7.26731C7.46296 7.29544 7.64063 7.40064 7.75998 7.55977C7.89739 7.76848 8.08233 7.94164 8.29961 8.06506C8.51689 8.18848 8.76034 8.25863 9.00998 8.26977C9.20848 8.27108 9.39849 8.35052 9.53886 8.49089C9.67923 8.63126 9.75867 8.82126 9.75998 9.01977C9.75813 9.21719 9.6782 9.40585 9.53766 9.54452C9.39712 9.68318 9.20741 9.76057 9.00998 9.75977Z" fill="#292D32"/>
<path d="M9 22.75C6.94563 22.7466 4.97638 21.9289 3.52372 20.4763C2.07106 19.0236 1.25344 17.0544 1.25 15C1.25131 14.8015 1.33075 14.6115 1.47112 14.4711C1.61149 14.3307 1.80149 14.2513 2 14.25C2.19851 14.2513 2.38851 14.3307 2.52888 14.4711C2.66925 14.6115 2.74869 14.8015 2.75 15C2.75119 16.4108 3.22884 17.7799 4.10552 18.8853C4.9822 19.9907 6.20652 20.7675 7.58 21.09L7.31 20.64C7.25944 20.5553 7.22606 20.4615 7.21176 20.3639C7.19747 20.2663 7.20254 20.1668 7.22668 20.0712C7.25082 19.9755 7.29357 19.8856 7.35248 19.8064C7.41138 19.7273 7.4853 19.6606 7.57 19.61C7.6547 19.5594 7.74853 19.5261 7.84614 19.5118C7.94374 19.4975 8.0432 19.5025 8.13885 19.5267C8.23449 19.5508 8.32444 19.5936 8.40357 19.6525C8.48269 19.7114 8.54944 19.7853 8.6 19.87L9.65 21.62C9.71784 21.733 9.75451 21.8619 9.75627 21.9936C9.75803 22.1254 9.72481 22.2553 9.66 22.37C9.59157 22.4844 9.49499 22.5794 9.37946 22.6459C9.26393 22.7124 9.1333 22.7483 9 22.75Z" fill="#292D32"/>
<path d="M22 9.75001C21.8015 9.7487 21.6115 9.66926 21.4711 9.52889C21.3308 9.38853 21.2513 9.19852 21.25 9.00001C21.2488 7.58919 20.7712 6.22011 19.8945 5.11473C19.0178 4.00935 17.7935 3.23247 16.42 2.91001L16.69 3.36001C16.7406 3.44471 16.774 3.53855 16.7883 3.63615C16.8025 3.73375 16.7975 3.83322 16.7733 3.92886C16.7492 4.0245 16.7064 4.11446 16.6475 4.19358C16.5886 4.27271 16.5147 4.33945 16.43 4.39001C16.3453 4.44057 16.2515 4.47395 16.1539 4.48825C16.0563 4.50254 15.9568 4.49748 15.8612 4.47333C15.7655 4.44919 15.6756 4.40644 15.5964 4.34754C15.5173 4.28863 15.4506 4.21471 15.4 4.13001L14.35 2.38001C14.2828 2.2667 14.2468 2.13758 14.2458 2.00582C14.2447 1.87407 14.2786 1.74439 14.344 1.63001C14.4075 1.51434 14.501 1.41796 14.6147 1.35106C14.7284 1.28417 14.8581 1.24926 14.99 1.25001C17.0451 1.25239 19.0154 2.06954 20.4689 3.52232C21.9224 4.9751 22.7406 6.94495 22.744 9.00001C22.7452 9.09833 22.7268 9.1959 22.6899 9.28704C22.653 9.37818 22.5984 9.46107 22.5291 9.53088C22.4599 9.60068 22.3774 9.65601 22.2866 9.69363C22.1958 9.73125 22.0983 9.75042 22 9.75001Z" fill="#292D32"/>
</svg>
