<svg width="16" height="16" viewBox="0 0 16 16" fill="none" xmlns="http://www.w3.org/2000/svg">
<g id="vuesax/bold/trash">
<g id="trash">
<path id="Vector" d="M14.0466 3.48671C12.9733 3.38004 11.9 3.30004 10.82 3.24004V3.23337L10.6733 2.36671C10.5733 1.75337 10.4266 0.833374 8.86662 0.833374H7.11995C5.56395 0.833374 5.41995 1.71337 5.31329 2.36004L5.17329 3.21337C4.55329 3.25337 3.93329 3.29337 3.31329 3.35337L1.95329 3.48671C1.82156 3.49908 1.70015 3.56328 1.61576 3.66518C1.53137 3.76707 1.49091 3.89832 1.50329 4.03004C1.51566 4.16177 1.57986 4.28318 1.68176 4.36757C1.78365 4.45196 1.9149 4.49242 2.04662 4.48004L3.40662 4.34671C6.91812 4.04358 10.4511 4.09048 13.9533 4.48671H14.0066C14.1312 4.4862 14.2512 4.43962 14.3435 4.35592C14.4359 4.27222 14.4939 4.15733 14.5066 4.03337C14.5167 3.9002 14.4741 3.76839 14.3881 3.6662C14.3021 3.56402 14.1796 3.49958 14.0466 3.48671Z" fill="#DC3545"/>
<path id="Vector_2" d="M12.8187 5.42663C12.7402 5.3447 12.6461 5.27944 12.5418 5.23476C12.4376 5.19008 12.3254 5.16691 12.212 5.16663H3.78666C3.67315 5.16629 3.56077 5.18918 3.45644 5.2339C3.35211 5.27861 3.25803 5.3442 3.17999 5.42663C3.10212 5.5106 3.04183 5.6093 3.00268 5.71693C2.96352 5.82455 2.94629 5.93891 2.95199 6.0533L3.36533 12.8933C3.43866 13.9066 3.53199 15.1733 5.85866 15.1733H10.1387C12.4653 15.1733 12.5587 13.9133 12.632 12.8933L13.0453 6.05996C13.0517 5.94462 13.0349 5.82917 12.9959 5.72041C12.957 5.61165 12.8967 5.51176 12.8187 5.42663ZM9.10666 11.8333H6.88533C6.75272 11.8333 6.62554 11.7806 6.53177 11.6868C6.43801 11.5931 6.38533 11.4659 6.38533 11.3333C6.38533 11.2007 6.43801 11.0735 6.53177 10.9797C6.62554 10.886 6.75272 10.8333 6.88533 10.8333H9.10533C9.23794 10.8333 9.36511 10.886 9.45888 10.9797C9.55265 11.0735 9.60533 11.2007 9.60533 11.3333C9.60533 11.4659 9.55265 11.5931 9.45888 11.6868C9.36511 11.7806 9.23794 11.8333 9.10533 11.8333H9.10666ZM9.66666 9.16663H6.33333C6.20072 9.16663 6.07354 9.11395 5.97977 9.02018C5.88601 8.92642 5.83333 8.79924 5.83333 8.66663C5.83333 8.53402 5.88601 8.40684 5.97977 8.31308C6.07354 8.21931 6.20072 8.16663 6.33333 8.16663H9.66666C9.79927 8.16663 9.92645 8.21931 10.0202 8.31308C10.114 8.40684 10.1667 8.53402 10.1667 8.66663C10.1667 8.79924 10.114 8.92642 10.0202 9.02018C9.92645 9.11395 9.79927 9.16663 9.66666 9.16663Z" fill="#DC3545"/>
</g>
</g>
</svg>
