<svg width="24" height="24" viewBox="0 0 24 24" fill="none" xmlns="http://www.w3.org/2000/svg">
<path d="M12 12.75C10.8628 12.75 9.75106 12.4128 8.80547 11.781C7.85989 11.1491 7.1229 10.2511 6.6877 9.20043C6.25249 8.14976 6.13862 6.99362 6.36049 5.87823C6.58235 4.76284 7.12999 3.73829 7.93414 2.93414C8.73829 2.12999 9.76284 1.58235 10.8782 1.36049C11.9936 1.13862 13.1498 1.25249 14.2004 1.6877C15.2511 2.1229 16.1491 2.85989 16.781 3.80547C17.4128 4.75106 17.75 5.86276 17.75 7C17.7482 8.52443 17.1418 9.98589 16.0638 11.0638C14.9859 12.1418 13.5244 12.7482 12 12.75ZM12 2.75C11.1594 2.75 10.3377 2.99926 9.63883 3.46626C8.93992 3.93325 8.39519 4.59701 8.07351 5.3736C7.75184 6.15018 7.66768 7.00472 7.83167 7.82914C7.99565 8.65356 8.40043 9.41083 8.9948 10.0052C9.58917 10.5996 10.3464 11.0044 11.1709 11.1683C11.9953 11.3323 12.8498 11.2482 13.6264 10.9265C14.403 10.6048 15.0668 10.0601 15.5337 9.36118C16.0007 8.66227 16.25 7.84057 16.25 7C16.2476 5.87356 15.7991 4.79394 15.0026 3.99743C14.2061 3.20091 13.1264 2.75238 12 2.75Z" fill="#707070"/>
<path d="M20.59 22.75C20.3915 22.7487 20.2015 22.6693 20.0611 22.5289C19.9208 22.3885 19.8413 22.1985 19.84 22C19.84 18.55 16.32 15.75 12 15.75C7.68 15.75 4.16 18.55 4.16 22C4.15869 22.1985 4.07925 22.3885 3.93889 22.5289C3.79852 22.6693 3.60851 22.7487 3.41 22.75C3.2115 22.7487 3.02149 22.6693 2.88112 22.5289C2.74075 22.3885 2.66131 22.1985 2.66 22C2.66 17.73 6.85 14.25 12 14.25C17.15 14.25 21.34 17.73 21.34 22C21.3387 22.1985 21.2593 22.3885 21.1189 22.5289C20.9785 22.6693 20.7885 22.7487 20.59 22.75Z" fill="#707070"/>
</svg>
