<svg width="20" height="20" viewBox="0 0 20 20" fill="none" xmlns="http://www.w3.org/2000/svg">
<rect width="20" height="20" fill="#1E1E1E"/>
<g id="Home">
<g clip-path="url(#clip0_0_1)">
<rect x="-40" y="-810" width="430" height="932" rx="32" fill="white"/>
<g id="Rectangle 50" filter="url(#filter0_d_0_1)">
<rect x="-24" y="-14" width="398" height="48" rx="6" fill="white"/>
<rect x="-23.5" y="-13.5" width="397" height="47" rx="5.5" stroke="#D2D5D5"/>
</g>
<g id="vuesax/outline/wallet-money">
<g id="wallet-money">
<path id="Vector" d="M5.975 18.9583C5.07117 19.0053 4.18529 18.6939 3.50971 18.0916C2.83413 17.4894 2.42339 16.6449 2.36667 15.7417V14.0417C2.36776 13.8762 2.43396 13.7179 2.55093 13.6009C2.66791 13.4839 2.82625 13.4177 2.99167 13.4167C3.15709 13.4177 3.31543 13.4839 3.4324 13.6009C3.54938 13.7179 3.61558 13.8762 3.61667 14.0417C3.61667 15.0833 4.625 15.8667 5.975 15.8667C7.325 15.8667 8.33333 15.0833 8.33333 14.0417C8.33333 13.8759 8.39918 13.7169 8.51639 13.5997C8.6336 13.4825 8.79257 13.4167 8.95833 13.4167C9.1241 13.4167 9.28307 13.4825 9.40028 13.5997C9.51749 13.7169 9.58333 13.8759 9.58333 14.0417V15.7417C9.52811 16.6455 9.11781 17.4908 8.44188 18.0934C7.76595 18.696 6.87922 19.0069 5.975 18.9583ZM3.83334 16.5583C4.05573 16.9232 4.37145 17.2221 4.74793 17.4243C5.1244 17.6264 5.54799 17.7245 5.975 17.7083C6.40175 17.7229 6.82476 17.6242 7.20095 17.4222C7.57715 17.2202 7.89311 16.9221 8.11667 16.5583C7.46794 16.9393 6.72725 17.1353 5.975 17.125C5.22276 17.1353 4.48207 16.9393 3.83334 16.5583Z" fill="#707070"/>
<path id="Vector_2" d="M5.97501 14.8335C5.34854 14.8559 4.7266 14.7194 4.16708 14.4367C3.60757 14.154 3.12868 13.7344 2.77501 13.2168C2.50704 12.7776 2.36573 12.2729 2.36667 11.7585C2.36947 11.3194 2.46783 10.8863 2.65491 10.4891C2.84199 10.0919 3.1133 9.74022 3.45001 9.45847C4.16298 8.88491 5.05017 8.57153 5.96521 8.57001C6.88025 8.5685 7.76847 8.87894 8.48334 9.45014C8.82067 9.7337 9.09283 10.0867 9.28123 10.4851C9.46963 10.8835 9.56984 11.3178 9.57501 11.7585C9.57595 12.2729 9.43464 12.7776 9.16667 13.2168C8.8155 13.7349 8.33828 14.1551 7.77993 14.4379C7.22159 14.7208 6.60046 14.8569 5.97501 14.8335ZM5.97501 9.7918C5.35344 9.78245 4.74952 9.99856 4.27501 10.4001C4.07305 10.565 3.90952 10.772 3.79581 11.0066C3.68211 11.2412 3.62097 11.4978 3.61667 11.7585C3.61523 12.0436 3.69314 12.3234 3.84167 12.5668C4.08174 12.9039 4.40331 13.1748 4.77636 13.354C5.14941 13.5332 5.56178 13.6151 5.97501 13.5918C6.38625 13.6156 6.79683 13.5349 7.16843 13.3571C7.54002 13.1793 7.86052 12.9103 8.10001 12.5751C8.24957 12.3322 8.32756 12.0521 8.32501 11.7668C8.31944 11.5056 8.25777 11.2487 8.14418 11.0135C8.03059 10.7783 7.86774 10.5702 7.66667 10.4035C7.19656 9.99957 6.59472 9.78196 5.97501 9.7918Z" fill="#707070"/>
<path id="Vector_3" d="M5.975 17.125C3.91667 17.125 2.36667 15.8 2.36667 14.05V11.7583C2.42189 10.8545 2.8322 10.0092 3.50813 9.40661C4.18405 8.80405 5.07079 8.49315 5.975 8.54168C6.89547 8.53407 7.78824 8.8563 8.49167 9.45001C8.829 9.73358 9.10115 10.0866 9.28956 10.485C9.47796 10.8834 9.57817 11.3177 9.58333 11.7583V14.05C9.58333 15.8 8.03334 17.125 5.975 17.125ZM5.975 9.79168C5.40267 9.74539 4.83503 9.92546 4.39404 10.2932C3.95306 10.6609 3.67394 11.187 3.61667 11.7583V14.05C3.61667 15.0917 4.625 15.875 5.975 15.875C7.325 15.875 8.33333 15.0917 8.33333 14.05V11.7583C8.32824 11.4966 8.2668 11.2391 8.15319 11.0032C8.03959 10.7674 7.87649 10.5588 7.675 10.3917C7.19759 9.99611 6.59495 9.78342 5.975 9.79168Z" fill="#707070"/>
<path id="Vector_4" d="M15.8667 12.3333C15.2694 12.3434 14.6899 12.1304 14.2414 11.7358C13.7929 11.3413 13.5078 10.7936 13.4417 10.2C13.4091 9.85883 13.4536 9.51471 13.5719 9.19305C13.6901 8.8714 13.8792 8.58043 14.125 8.34165C14.3379 8.12511 14.5923 7.95372 14.8729 7.83774C15.1535 7.72176 15.4547 7.66357 15.7583 7.66665H17.5C17.888 7.67211 18.2582 7.82979 18.531 8.1057C18.8038 8.38161 18.9573 8.75366 18.9583 9.14165V10.8583C18.9585 11.2424 18.8088 11.6114 18.5411 11.8868C18.2735 12.1623 17.9089 12.3225 17.525 12.3333H15.8667ZM17.475 8.91665H15.7642C15.6247 8.91428 15.4863 8.94041 15.3573 8.99343C15.2284 9.04645 15.1116 9.12524 15.0142 9.22498C14.8973 9.33497 14.8073 9.47029 14.7509 9.62054C14.6946 9.77079 14.6735 9.93196 14.6892 10.0917C14.7292 10.3728 14.8714 10.6293 15.0886 10.8123C15.3058 10.9952 15.5828 11.0917 15.8667 11.0833H17.5C17.5571 11.0801 17.6107 11.0548 17.6496 11.0129C17.6884 10.9709 17.7095 10.9155 17.7083 10.8583V9.14165C17.7066 9.08108 17.6812 9.02361 17.6376 8.98155C17.594 8.93949 17.5356 8.91619 17.475 8.91665Z" fill="#707070"/>
<path id="Vector_5" d="M13.3333 17.7083H11.25C11.0842 17.7083 10.9253 17.6425 10.8081 17.5253C10.6908 17.408 10.625 17.2491 10.625 17.0833C10.625 16.9176 10.6908 16.7586 10.8081 16.6414C10.9253 16.5242 11.0842 16.4583 11.25 16.4583H13.3333C13.8069 16.4911 14.282 16.422 14.7266 16.2557C15.1711 16.0893 15.5749 15.8295 15.9105 15.4939C16.2462 15.1582 16.506 14.7545 16.6724 14.3099C16.8387 13.8653 16.9078 13.3902 16.875 12.9166V12.3333H15.8667C15.2694 12.3434 14.6899 12.1304 14.2414 11.7358C13.7929 11.3413 13.5078 10.7936 13.4417 10.2C13.4091 9.85882 13.4536 9.51471 13.5719 9.19305C13.6901 8.8714 13.8792 8.58043 14.125 8.34165C14.3379 8.12511 14.5923 7.95372 14.8729 7.83774C15.1535 7.72176 15.4547 7.66357 15.7583 7.66665H16.8667V7.08332C16.9319 6.2221 16.654 5.37002 16.0936 4.71283C15.5332 4.05564 14.7357 3.64663 13.875 3.57498C13.693 3.54802 13.5089 3.53687 13.325 3.54165H5.825C5.62985 3.54279 5.43499 3.55671 5.24167 3.58332C4.38834 3.66282 3.60031 4.07407 3.04707 4.72861C2.49383 5.38314 2.21959 6.22867 2.28333 7.08332V8.74998C2.28224 8.91541 2.21604 9.07374 2.09907 9.19072C1.98209 9.30769 1.82376 9.37389 1.65833 9.37498C1.49291 9.37389 1.33457 9.30769 1.2176 9.19072C1.10062 9.07374 1.03442 8.91541 1.03333 8.74998V7.08332C0.967365 5.92559 1.35087 4.78708 2.10387 3.90522C2.85687 3.02335 3.92123 2.46621 5.075 2.34998C5.32325 2.31236 5.57391 2.29286 5.825 2.29165H13.325C13.5676 2.28975 13.81 2.30646 14.05 2.34165C15.2106 2.44984 16.2837 3.00499 17.0426 3.8898C17.8014 4.77461 18.1866 5.91977 18.1167 7.08332V8.29165C18.1156 8.45707 18.0494 8.61541 17.9324 8.73238C17.8154 8.84936 17.6571 8.91556 17.4917 8.91665H15.7583C15.6189 8.91428 15.4805 8.94041 15.3515 8.99343C15.2226 9.04644 15.1058 9.12524 15.0083 9.22498C14.8915 9.33497 14.8014 9.47029 14.7451 9.62054C14.6888 9.77079 14.6676 9.93196 14.6833 10.0916C14.7233 10.3723 14.8652 10.6285 15.0818 10.8114C15.2985 10.9943 15.5749 11.0911 15.8583 11.0833H17.5C17.6654 11.0844 17.8238 11.1506 17.9407 11.2676C18.0577 11.3846 18.1239 11.5429 18.125 11.7083V12.9166C18.1622 13.5556 18.0637 14.1952 17.8361 14.7934C17.6084 15.3916 17.2567 15.9349 16.8041 16.3875C16.3516 16.84 15.8083 17.1917 15.2101 17.4194C14.6119 17.647 13.9723 17.7455 13.3333 17.7083Z" fill="#707070"/>
</g>
</g>
</g>
</g>
<defs>
<filter id="filter0_d_0_1" x="-28" y="-18" width="406" height="56" filterUnits="userSpaceOnUse" color-interpolation-filters="sRGB">
<feFlood flood-opacity="0" result="BackgroundImageFix"/>
<feColorMatrix in="SourceAlpha" type="matrix" values="0 0 0 0 0 0 0 0 0 0 0 0 0 0 0 0 0 0 127 0" result="hardAlpha"/>
<feOffset/>
<feGaussianBlur stdDeviation="2"/>
<feComposite in2="hardAlpha" operator="out"/>
<feColorMatrix type="matrix" values="0 0 0 0 0 0 0 0 0 0 0 0 0 0 0 0 0 0 0.15 0"/>
<feBlend mode="normal" in2="BackgroundImageFix" result="effect1_dropShadow_0_1"/>
<feBlend mode="normal" in="SourceGraphic" in2="effect1_dropShadow_0_1" result="shape"/>
</filter>
<clipPath id="clip0_0_1">
<rect x="-40" y="-810" width="430" height="932" rx="32" fill="white"/>
</clipPath>
</defs>
</svg>
